<svg xmlns="http://www.w3.org/2000/svg" width="131" height="92" fill="none"><path fill="#B4D6F8" d="M26.605 79.011V30.97h72.138v48.042a7 7 0 0 1-7 7H33.605a7 7 0 0 1-7-7Z"/><path stroke="#DBECFD" stroke-linecap="round" stroke-width="3" d="M35.623 81.149h52.722m10.222-46.82H35.624"/><path stroke="#1B8CFF" stroke-linecap="round" stroke-width="3" d="M35.487 15.905h53.816c5.523 0 10 4.477 10 10v50.686c0 5.523-4.478 10-10 10H35.487c-5.523 0-10-4.477-10-10V25.905c0-5.523 4.477-10 10-10ZM43.381 2v12.746m38.027 0V2M98.184 29.81H26.046"/><path fill="#1B8CFF" d="M35.623 43.247h7.829v8.111h-7.829zM35.623 55.993h7.829v8.111h-7.829zM50.163 43.247h7.829v8.111h-7.829z"/><path fill="#fff" stroke="#1B8CFF" stroke-width="3" d="M126.881 61.098c0 13.941-10.895 25.151-24.223 25.151-13.329 0-24.224-11.21-24.224-25.151 0-13.942 10.895-25.152 24.224-25.152 13.328 0 24.223 11.21 24.223 25.152Z"/><path stroke="#1B8CFF" stroke-width="4" d="m91.474 62.257 12.302 11.008 10.625-23.755"/><path stroke="#DBECFD" stroke-linecap="round" stroke-width="3" d="M2 90.067h127.5"/></svg>