<svg xmlns="http://www.w3.org/2000/svg" width="35" height="36" fill="none"><g fill="#43A4F3" clip-path="url(#a)"><path d="M17.5 35.5c8.614 0 15.62-7.023 15.62-15.656 0-3.937-1.468-7.53-3.872-10.284l1.248-1.256 1.125 1.006 1.456-1.63L29.05 4.08l-1.456 1.63 1.269 1.134-1.163 1.17a15.505 15.505 0 0 0-9.107-3.77V2.685h3.256V.5h-8.698v2.186h3.256v1.558C8.303 4.81 1.879 11.581 1.879 19.843c0 8.634 7.007 15.657 15.62 15.657Zm0-29.125c7.407 0 13.434 6.041 13.434 13.468 0 7.428-6.027 13.47-13.434 13.47-7.407 0-13.435-6.042-13.435-13.47 0-7.427 6.028-13.468 13.435-13.468Z"/><path d="m27.674 24.648-9.08-7.18V8.632H16.41v9.896l9.909 7.835 1.356-1.714Z"/></g><defs><clipPath id="a"><path fill="#fff" d="M0 .5h35v35H0z"/></clipPath></defs></svg>