<svg xmlns="http://www.w3.org/2000/svg" width="18" height="19" fill="none"><path stroke="#1B8CFF" d="m14.37 3.368.362 1.086c.111.342.334.636.633.836l.915.616a1.618 1.618 0 0 1 .6 1.944l-.361.88a1.616 1.616 0 0 0 0 1.212l.362.858a1.619 1.619 0 0 1-.557 1.926l-.81.593c-.299.213-.516.52-.616.873l-.293 1.028a1.614 1.614 0 0 1-1.69 1.17l-.878-.073a1.595 1.595 0 0 0-1.15.362l-.847.684a1.616 1.616 0 0 1-2.044 0l-.724-.593a1.61 1.61 0 0 0-1.027-.363H4.957a1.609 1.609 0 0 1-1.573-1.252l-.232-.985a1.607 1.607 0 0 0-.662-.999l-.781-.546a1.61 1.61 0 0 1-.612-1.887l.362-.991c.134-.361.134-.758 0-1.12l-.326-.868a1.616 1.616 0 0 1 .633-1.911l.858-.554c.331-.215.573-.543.68-.923l.253-.913a1.618 1.618 0 0 1 1.697-1.176l.81.069a1.62 1.62 0 0 0 1.154-.362l.77-.623a1.62 1.62 0 0 1 2.052 0l.673.565c.324.267.74.397 1.157.362l.85-.062a1.616 1.616 0 0 1 1.65 1.137Z"/><path stroke="#1B8CFF" d="M6.818 7.545c.804 0 1.455-.488 1.455-1.09 0-.603-.651-1.091-1.455-1.091-.803 0-1.454.488-1.454 1.09 0 .603.651 1.091 1.454 1.091ZM11.182 13.364c.803 0 1.454-.489 1.454-1.091 0-.603-.651-1.091-1.454-1.091-.804 0-1.455.488-1.455 1.09 0 .603.651 1.092 1.455 1.092ZM12.636 6.09l-7.272 7.274"/></svg>