<svg xmlns="http://www.w3.org/2000/svg" width="14" height="17" fill="none"><path fill="#1B8CFF" d="m13.722 6.246-.98-1.541a2.97 2.97 0 0 0 .5-1.588.38.38 0 0 0 .005-.083 3.03 3.03 0 0 0-6.06-.137l-2.074.917a1.183 1.183 0 0 0-.505.416L.054 10.782a.29.29 0 0 0-.018.309 7.656 7.656 0 0 0 2.117 2.514 7.349 7.349 0 0 0 2.939 1.348.293.293 0 0 0 .315-.14l1.09-1.816v2.873a.297.297 0 0 0 .171.27 8.407 8.407 0 0 0 7.09 0 .295.295 0 0 0 .172-.27V6.958c0-.252-.072-.5-.208-.712ZM10.213.596a2.446 2.446 0 0 1 2.44 2.446 2.44 2.44 0 0 1-.27 1.098l-.51-.804a1.663 1.663 0 0 0-1.405-.769h-.537c-.2 0-.398.038-.585.11a1.462 1.462 0 0 0-1.383-.121l-.152.068A2.445 2.445 0 0 1 10.213.596ZM6.496 7.068v4.777L5.01 14.324a6.735 6.735 0 0 1-2.497-1.19 7.035 7.035 0 0 1-1.867-2.165l4.453-6.4a.597.597 0 0 1 .252-.211l2.853-1.26a.853.853 0 0 1 .55-.038 1.481 1.481 0 0 0-.247.312l-1.82 3.013a1.344 1.344 0 0 0-.19.683Zm6.84 8.612a7.95 7.95 0 0 1-6.246 0V7.068a.739.739 0 0 1 .107-.377l1.817-3.013a1.079 1.079 0 0 1 .917-.517h.537a1.063 1.063 0 0 1 .903.496l.647 1.015a2.41 2.41 0 0 1-1.805.802 2.487 2.487 0 0 1-.466-.05.731.731 0 0 1 .638-.384.297.297 0 0 0 0-.593 1.323 1.323 0 1 0 0 2.645.297.297 0 0 0 0-.594.73.73 0 0 1-.683-.475 3.012 3.012 0 0 0 2.643-.834l.878 1.377a.726.726 0 0 1 .113.392v8.722Z"/><path fill="#1B8CFF" d="M8.844 8.552a.98.98 0 1 0 .006 1.96.98.98 0 0 0-.006-1.96Zm0 1.366a.386.386 0 1 1 .006-.772.386.386 0 0 1-.006.772ZM11.582 11.97a.98.98 0 1 0-.004 1.961.98.98 0 0 0 .004-1.961Zm0 1.368a.387.387 0 1 1-.003-.774.387.387 0 0 1 .003.774ZM11.921 8.96a.297.297 0 0 0-.417.043l-3.042 3.762a.297.297 0 1 0 .463.373l3.04-3.761a.297.297 0 0 0-.044-.418ZM4.436 11.202a.298.298 0 0 0-.478.14.297.297 0 0 0 .101.319l.871.715a.294.294 0 0 0 .359.013.297.297 0 0 0 .017-.472l-.87-.715ZM2.686 9.774a.297.297 0 0 0-.39.448l.814.708a.295.295 0 0 0 .33.046.296.296 0 0 0 .06-.494l-.814-.708Z"/></svg>