<svg xmlns="http://www.w3.org/2000/svg" width="18" height="18" fill="none"><path fill="#1B8CFF" d="M6.667 14.793a2.29 2.29 0 0 1 4.272-1.152c1.742-.768 2.394-1.974 2.394-4.266v-2.5c0-3.327-1.876-5.625-4.791-5.625-2.916 0-4.792 2.3-4.792 5.625v2.917a.626.626 0 0 1-.625.625h-.833A2.294 2.294 0 0 1 0 8.126v-.833A2.295 2.295 0 0 1 2.292 5h.398c.63-2.976 2.79-5 5.852-5 3.061 0 5.22 2.024 5.85 5h.399a2.295 2.295 0 0 1 2.291 2.292v.833a2.294 2.294 0 0 1-2.291 2.292h-.258a4.875 4.875 0 0 1-3.283 4.45 2.292 2.292 0 1 1-4.583-.075Zm1.25 0a1.042 1.042 0 1 0 2.083 0 1.042 1.042 0 0 0-2.083 0Zm6.666-5.625h.208a1.043 1.043 0 0 0 1.042-1.042v-.833a1.043 1.043 0 0 0-1.041-1.043h-.209v2.918ZM1.25 7.293v.833a1.043 1.043 0 0 0 1.042 1.04H2.5V6.25h-.208A1.042 1.042 0 0 0 1.25 7.293Z"/></svg>