<svg width="63" height="52" viewBox="0 0 63 52" fill="none" xmlns="http://www.w3.org/2000/svg">
<path d="M31.0406 39.6245C30.7271 39.6245 30.418 39.7575 30.1956 39.988C29.9746 40.2185 29.8462 40.5372 29.8462 40.862C29.8462 41.1884 29.9746 41.507 30.1956 41.7375C30.418 41.968 30.7271 42.0995 31.0406 42.0995C31.3556 42.0995 31.6632 41.968 31.8857 41.7375C32.1081 41.507 32.235 41.1884 32.235 40.862C32.235 40.5372 32.1081 40.2185 31.8857 39.988C31.6632 39.7577 31.3556 39.6245 31.0406 39.6245Z" fill="#4986EE"/>
<path fill-rule="evenodd" clip-rule="evenodd" d="M62.1469 37.1211C62.1469 37.0415 62.139 36.964 62.1251 36.8885V6.18742C62.1251 2.77552 59.446 0 56.153 0H13.1467H5.9721C2.67908 0 0 2.77552 0 6.18742V39.6154C0 43.0272 2.67908 45.8028 5.9721 45.8028H21.5218V49.525H17.9145C17.2549 49.525 16.7201 50.0791 16.7201 50.7625C16.7201 51.4459 17.2549 52 17.9145 52H44.0411C44.7007 52 45.2355 51.4459 45.2355 50.7625C45.2355 50.0791 44.7007 49.525 44.0411 49.525H40.5712V45.8028H56.1528C59.4458 45.8028 62.1249 43.0272 62.1249 39.6154V37.3539C62.1388 37.2784 62.1469 37.2008 62.1469 37.1211ZM5.9721 2.47497H12.6516H16.03H56.1531C58.129 2.47497 59.7364 4.14031 59.7364 6.18742V35.8838H48.2762L44.8979 35.8836H2.38884V6.18742C2.38884 4.14031 3.99623 2.47497 5.9721 2.47497ZM38.1823 49.525H23.9106V45.8028H38.1823V49.525ZM56.153 43.3279H5.9721C3.99623 43.3279 2.38884 41.6625 2.38884 39.6154V38.3587H59.7362V39.6154C59.7362 41.6624 58.1287 43.3279 56.153 43.3279Z" fill="#4986EE"/>
<path d="M10 27.3846L13.7288 20.9459L18.0791 23.5214L20.565 20.9459L31.1299 27.3846L36.1017 19.6581L41.6949 21.5898L47.9096 13.2194L49.1525 10" stroke="#4986EE"/>
</svg>
