<svg width="52" height="56" viewBox="0 0 52 56" fill="none" xmlns="http://www.w3.org/2000/svg">
<path d="M34.8588 39.6443H31.3496V52.405H49.5337V39.6443H46.6625M34.8588 39.6443V36.9326C34.8588 33.6731 37.5012 31.0308 40.7607 31.0308V31.0308C44.0201 31.0308 46.6625 33.6731 46.6625 36.9326V39.6443M34.8588 39.6443H46.6625" stroke="#4986EE" stroke-width="3"/>
<path d="M27.8405 54H9.99999C5.58171 54 2 50.4183 2 46V43.4724M36.135 26.5644V11.2515M36.135 11.2515V10C36.135 5.58173 32.5532 2 28.135 2H10C5.58172 2 2 5.58172 2 10V43.4724M36.135 11.2515H6.46626M2 43.4724H27.8405M18.2699 48.5767H22.0982" stroke="#4986EE" stroke-width="3"/>
<path d="M42.6535 44.8712C42.6535 46.1807 41.5919 47.2423 40.2823 47.2423C38.9727 47.2423 37.9111 46.1807 37.9111 44.8712C37.9111 43.5616 38.9727 42.5 40.2823 42.5C41.5919 42.5 42.6535 43.5616 42.6535 44.8712Z" stroke="#4986EE"/>
<path d="M40.5 49.9419V47.4419" stroke="#4986EE"/>
<circle cx="19.5457" cy="21.7791" r="5.10429" fill="#4986EE"/>
<path fill-rule="evenodd" clip-rule="evenodd" d="M28.1836 35.1781H11.2515C11.9995 31.1829 15.5054 28.1597 19.7175 28.1597C23.9296 28.1597 27.4356 31.1829 28.1836 35.1781Z" fill="#4986EE"/>
</svg>
