<svg width="34" height="28" viewBox="0 0 34 28" fill="none" xmlns="http://www.w3.org/2000/svg">
<path d="M16.6361 2.90942C11.0043 2.90942 6.45312 7.46061 6.45312 13.0924C6.45312 18.7243 11.0043 23.2755 16.6361 23.2755C22.268 23.2755 26.8192 18.7243 26.8192 13.0924C26.8192 7.46061 22.268 2.90942 16.6361 2.90942ZM16.6361 3.7781C17.1391 3.7781 17.6295 3.81966 18.1116 3.89448L17.1723 5.53207L13.5937 7.24033L12.1764 8.23369L7.9785 9.64269C9.34594 6.20124 12.7001 3.7781 16.6361 3.7781ZM22.5381 20.3037C20.9338 21.6171 18.8764 22.4068 16.632 22.4068C11.4781 22.4068 7.3218 18.2505 7.3218 13.0924C7.3218 12.2612 7.42986 11.4549 7.63352 10.6901L12.5796 9.03171L14.0426 8.00925L17.7999 6.20955L19.0177 4.08151C19.6121 4.2353 20.1815 4.45142 20.7177 4.71327V6.22202L19.6911 7.82637V9.85882L18.228 13.1922L19.4874 14.8755H22.5381V20.3037ZM23.4234 19.4807V13.9944H19.9321L19.2463 13.0758L20.5764 10.0459V8.08406L21.603 6.48387V5.20372C24.2173 6.84963 25.9505 9.76322 25.9505 13.0924C25.9505 15.5696 24.9904 17.814 23.4234 19.4807Z" fill="#42A5F5"/>
<path d="M23.4234 19.4807V13.9944H19.9321L19.2463 13.0758L20.5764 10.0459V8.08406L21.603 6.48387V5.20372C24.2173 6.84963 25.9505 9.76322 25.9505 13.0924C25.9505 15.5696 24.9904 17.814 23.4234 19.4807Z" fill="#42A5F5"/>
<path d="M16.6361 3.7781C17.1391 3.7781 17.6295 3.81966 18.1116 3.89448L17.1723 5.53207L13.5937 7.24033L12.1764 8.23369L7.9785 9.64269C9.34594 6.20124 12.7001 3.7781 16.6361 3.7781Z" fill="#42A5F5"/>
<path d="M11.9976 11.8331L10.2603 13.4832V14.9088L11.848 17.652L12.7624 20.9355L15.996 20.2247L16.6028 18.1424L17.5089 16.8955V14.701L15.5887 14.2978L11.9976 11.8331ZM16.6319 16.6129H16.6278L15.8006 17.7476L15.2977 19.4766L13.39 19.8964L12.6668 17.307L11.1414 14.6719V13.8614L12.089 12.9636L15.2395 15.1249L16.6319 15.4159V16.6129Z" fill="#42A5F5"/>
<path d="M16.6319 16.6129H16.6278L15.8006 17.7476L15.2977 19.4766L13.39 19.8964L12.6668 17.307L11.1414 14.6719V13.8614L12.089 12.9636L15.2395 15.1249L16.6319 15.4159V16.6129Z" fill="#42A5F5"/>
<path fill-rule="evenodd" clip-rule="evenodd" d="M16.1363 25.4476C16.1417 24.3726 17.0148 23.5028 18.091 23.5028C19.1706 23.5028 20.0458 24.378 20.0458 25.4576C20.0458 26.5371 19.1706 27.4123 18.091 27.4123C17.2667 27.4123 16.5615 26.902 16.2742 26.18C16.2733 26.18 16.2725 26.18 16.2717 26.1799C10.3356 26.0176 5.38617 21.9041 3.9587 16.3748H3.79547C1.69929 16.3748 0 14.6755 0 12.5793C0 10.4831 1.69929 8.78382 3.79547 8.78382H4.26937C6.05092 3.66976 10.9151 0 16.6363 0C22.1482 0 26.8646 3.4061 28.7954 8.22831H29.3381C31.5111 8.22831 33.2726 9.98988 33.2726 12.1629C33.2726 14.2074 31.7068 15.9112 29.6697 16.0835L29.0436 16.1364L29.0317 15.9967C28.8418 15.9633 28.7114 15.7746 28.7516 15.5777C28.9154 14.7748 29.0014 13.9437 29.0014 13.0925C29.0014 6.2634 23.4654 0.727359 16.6363 0.727359C9.80726 0.727359 4.27122 6.2634 4.27122 13.0925C4.27122 19.7541 9.53909 25.1853 16.1363 25.4476ZM29.5476 15.0902L29.5854 15.087C31.1048 14.9585 32.2726 13.6877 32.2726 12.1629C32.2726 10.5422 30.9588 9.22831 29.3381 9.22831H29.1492C29.5259 10.4497 29.7288 11.7474 29.7288 13.0925C29.7288 13.7717 29.6589 14.4389 29.5476 15.0902ZM3.96553 9.78382H3.79547C2.25158 9.78382 1 11.0354 1 12.5793C1 14.1053 2.22279 15.3458 3.74201 15.3743C3.61178 14.6333 3.54386 13.8708 3.54386 13.0925C3.54386 11.9495 3.69033 10.8407 3.96553 9.78382ZM18.091 24.5028C17.5638 24.5028 17.1363 24.9303 17.1363 25.4576C17.1363 25.9848 17.5638 26.4123 18.091 26.4123C18.6183 26.4123 19.0458 25.9848 19.0458 25.4576C19.0458 24.9303 18.6183 24.5028 18.091 24.5028Z" fill="#42A5F5"/>
</svg>
