<svg width="41" height="28" viewBox="0 0 41 28" fill="none" xmlns="http://www.w3.org/2000/svg">
<g clip-path="url(#clip0_401_536)">
<path d="M27.3269 6.87681C27.3269 10.1225 24.6957 12.7536 21.4501 12.7536C18.2044 12.7536 15.5732 10.1225 15.5732 6.87681C15.5732 3.63114 18.2044 1 21.4501 1C24.6957 1 27.3269 3.63114 27.3269 6.87681Z" fill="#2196F3" stroke="#2196F3"/>
<path d="M32.4969 27.5H10.4032C10.6646 21.6249 15.5105 16.942 21.4501 16.942C27.3897 16.942 32.2355 21.6249 32.4969 27.5Z" fill="#2196F3" stroke="#2196F3"/>
</g>
<g clip-path="url(#clip1_401_536)">
<path d="M37.5454 8.29565C37.5454 9.28736 36.7415 10.0913 35.7498 10.0913C34.758 10.0913 33.9541 9.28736 33.9541 8.29565C33.9541 7.30394 34.758 6.5 35.7498 6.5C36.7415 6.5 37.5454 7.30394 37.5454 8.29565Z" stroke="#2196F3"/>
<path d="M39.3767 15.4H32.1227C32.3665 13.6147 33.8975 12.2391 35.7497 12.2391C37.602 12.2391 39.1329 13.6147 39.3767 15.4Z" stroke="#2196F3"/>
</g>
<g clip-path="url(#clip2_401_536)">
<path d="M6.7456 8.29565C6.7456 9.28736 5.94166 10.0913 4.94995 10.0913C3.95824 10.0913 3.1543 9.28736 3.1543 8.29565C3.1543 7.30394 3.95824 6.5 4.94995 6.5C5.94166 6.5 6.7456 7.30394 6.7456 8.29565Z" stroke="#2196F3"/>
<path d="M8.57694 15.4H1.32292C1.56674 13.6147 3.0977 12.2391 4.94993 12.2391C6.80217 12.2391 8.33312 13.6147 8.57694 15.4Z" stroke="#2196F3"/>
</g>
<defs>
<clipPath id="clip0_401_536">
<rect width="27.5" height="27.5" fill="white" transform="translate(7.7002 0.5)"/>
</clipPath>
<clipPath id="clip1_401_536">
<rect width="9.9" height="9.9" fill="white" transform="translate(30.7998 6)"/>
</clipPath>
<clipPath id="clip2_401_536">
<rect width="9.9" height="9.9" fill="white" transform="translate(0 6)"/>
</clipPath>
</defs>
</svg>
