<svg width="59" height="54" viewBox="0 0 59 54" fill="none" xmlns="http://www.w3.org/2000/svg">
<path fill-rule="evenodd" clip-rule="evenodd" d="M51.9507 31.3616C51.0334 25.9236 49.9586 19.712 48.9703 14.3088C48.5416 11.9653 48.1287 9.77076 47.7514 7.85571C51.1659 7.40096 54.3796 9.6637 55.0234 13.045L57.083 23.862C57.7436 27.3318 55.4495 30.6742 51.9507 31.3616ZM52.2461 33.1186C52.5492 34.9268 52.8305 36.6227 53.0799 38.1416L53.3052 39.5138L51.9485 39.1417L29.826 33.0745L25.7232 33.6501L27.5757 38.0266L25.8574 38.5844L23.8782 33.9089L14.5407 35.2187L16.8478 37.9598C19.7746 41.4371 20.9733 46.0242 20.1156 50.4653L19.864 51.7678L30.5949 49.7765L28.5938 45.0491L30.3122 44.4912L32.6884 50.105L33.118 51.1199L32.023 51.323L18.8971 53.7588L17.5971 54L17.8448 52.7172L18.3441 50.1319C19.1009 46.2132 18.0433 42.1658 15.4608 39.0976L12.4436 35.5129L9.42302 35.9366L8.5693 36.0564L8.41001 35.2197L8.39557 35.1439C4.70638 35.4048 1.30772 33.0555 0.308853 29.5196L2.20666 29.5276C3.11024 31.9098 5.47473 33.4726 8.05954 33.379L5.75986 21.3007C3.70196 22.0077 2.22212 23.7541 1.82733 25.8075L0 25.7998C0.427251 22.9061 2.50588 20.4272 5.42382 19.5358L5.238 18.5598L5.08222 17.7416L5.89872 17.5335L25.2431 12.6019L25.2274 12.5196L26.0086 12.3746C29.0033 10.4982 33.4183 7.70435 37.1929 5.25617C39.1247 4.00315 40.884 2.84381 42.1981 1.94554C42.856 1.49579 43.3953 1.1162 43.7865 0.825368C43.9827 0.679489 44.1339 0.561709 44.241 0.472183C44.3065 0.417486 44.3406 0.385438 44.3544 0.372514L44.3545 0.372474L44.3545 0.37245L44.3546 0.372369L44.3547 0.372217C44.3595 0.367757 44.3617 0.365679 44.3619 0.365829L44.3615 0.366548C44.4673 0.231682 44.6885 0.0272159 45.0433 0.0023927C45.3932 -0.0220985 45.6344 0.147521 45.7344 0.232828C45.9185 0.389765 46.016 0.592617 46.0522 0.668566C46.1535 0.88055 46.2507 1.17551 46.3444 1.49848C46.5384 2.16684 46.7751 3.16393 47.0421 4.39791C47.1558 4.92302 47.2756 5.49455 47.4008 6.10664C51.801 5.46161 55.9669 8.36267 56.7958 12.7162L58.8553 23.5331C59.7023 27.9817 56.745 32.2662 52.2461 33.1186ZM30.6681 31.4577L27.2841 13.684C30.273 11.8094 34.526 9.11608 38.1831 6.74411C40.1189 5.48854 41.8926 4.31988 43.2247 3.40921C43.8101 3.00899 44.3157 2.65494 44.7144 2.36323C44.8725 2.95814 45.0625 3.77112 45.2786 4.76983C45.8081 7.21713 46.4781 10.7026 47.1956 14.6252C48.5308 21.9246 50.0249 30.7074 51.0737 37.0541L30.6681 31.4577ZM28.8254 31.4167L25.577 14.3555L7.16611 19.0491L10.023 34.0542L28.8254 31.4167ZM44.4104 1.40764C44.4105 1.40717 44.4135 1.41224 44.4194 1.42425C44.4132 1.41411 44.4103 1.40811 44.4104 1.40764Z" fill="#4986EE"/>
</svg>
