<svg width="77" height="56" viewBox="0 0 77 56" fill="none" xmlns="http://www.w3.org/2000/svg">
<path d="M2 24.75V45C2 49.9706 6.02943 54 11 54H30.644H50.2879C55.2585 54 59.2879 49.9706 59.2879 45V24.75M2 24.75V22C2 18.134 5.13401 15 9 15H52.2879C56.1539 15 59.2879 18.134 59.2879 22V24.75M2 24.75H59.2879" stroke="#4986EE" stroke-width="3"/>
<path d="M8 30H12.8728M16.2969 30H21.5647M24.9888 30H29.9933" stroke="#4986EE" stroke-width="3"/>
<path d="M21 8V7C21 4.23858 23.2386 2 26 2H70.5C73.2614 2 75.5 4.23858 75.5 7V36.5C75.5 39.2614 73.2614 41.5 70.5 41.5H64" stroke="#4986EE" stroke-width="3"/>
<path d="M75.5 8.5H19.5M74.5 15H61.5" stroke="#4986EE" stroke-width="3"/>
</svg>
