<svg width="28" height="27" viewBox="0 0 28 27" fill="none" xmlns="http://www.w3.org/2000/svg">
<path d="M13.4938 27C12.7026 27 11.9114 26.7363 11.2961 26.2088L9.31186 24.5009C9.11093 24.3251 8.6086 24.1493 8.34488 24.1493H6.18488C4.32628 24.1493 2.8193 22.6423 2.8193 20.7837V18.6363C2.8193 18.3726 2.64349 17.8828 2.46767 17.6819L0.772326 15.6851C-0.257442 14.467 -0.257442 12.5456 0.772326 11.3274L2.46767 9.3307C2.64349 9.12977 2.8193 8.64 2.8193 8.37628V6.21628C2.8193 4.35767 4.32628 2.8507 6.18488 2.8507H8.35744C8.62116 2.8507 9.12349 2.66233 9.32442 2.49907L11.3087 0.791163C12.5394 -0.263721 14.4607 -0.263721 15.6914 0.791163L17.6756 2.49907C17.8766 2.67488 18.3789 2.8507 18.6426 2.8507H20.7775C22.6361 2.8507 24.1431 4.35767 24.1431 6.21628V8.35116C24.1431 8.61488 24.3314 9.11721 24.5073 9.31814L26.2152 11.3023C27.2701 12.533 27.2701 14.4544 26.2152 15.6851L24.5073 17.6693C24.3314 17.8702 24.1431 18.3726 24.1431 18.6363V20.7712C24.1431 22.6298 22.6361 24.1367 20.7775 24.1367H18.6426C18.3789 24.1367 17.8766 24.3251 17.6756 24.4884L15.6914 26.1963C15.0761 26.7363 14.2849 27 13.4938 27ZM6.18488 4.73442C5.36861 4.73442 4.70302 5.4 4.70302 6.21628V8.36372C4.70302 9.07953 4.36395 9.99628 3.8993 10.5363L2.20395 12.533C1.76442 13.0479 1.76442 13.9395 2.20395 14.4544L3.8993 16.4512C4.36395 17.0037 4.70302 17.9079 4.70302 18.6237V20.7712C4.70302 21.5874 5.36861 22.253 6.18488 22.253H8.35744C9.08581 22.253 10.0026 22.5921 10.5551 23.0693L12.5394 24.7772C13.0542 25.2167 13.9584 25.2167 14.4733 24.7772L16.4575 23.0693C17.01 22.6047 17.9268 22.253 18.6552 22.253H20.7901C21.6063 22.253 22.2719 21.5874 22.2719 20.7712V18.6363C22.2719 17.9079 22.611 16.9912 23.0882 16.4386L24.7961 14.4544C25.2356 13.9395 25.2356 13.0353 24.7961 12.5205L23.0882 10.5363C22.611 9.98372 22.2719 9.06698 22.2719 8.3386V6.21628C22.2719 5.4 21.6063 4.73442 20.7901 4.73442H18.6552C17.9268 4.73442 17.01 4.39535 16.4575 3.91814L14.4733 2.21023C13.9584 1.7707 13.0542 1.7707 12.5394 2.21023L10.5551 3.9307C10.0026 4.39535 9.07326 4.73442 8.35744 4.73442H6.18488Z" fill="#42A5F5"/>
<path d="M9.3125 12.1296V11.6506C9.3125 11.3064 9.38818 10.9933 9.53953 10.7113C9.69089 10.4293 9.91372 10.2033 10.208 10.0332C10.5023 9.86319 10.8639 9.77817 11.2927 9.77817C11.7342 9.77817 12.1021 9.86319 12.3964 10.0332C12.6949 10.2033 12.9177 10.4293 13.0648 10.7113C13.2162 10.9933 13.2919 11.3064 13.2919 11.6506V12.1296C13.2919 12.4656 13.2162 12.7745 13.0648 13.0565C12.9177 13.3385 12.697 13.5646 12.4027 13.7346C12.1084 13.9046 11.7447 13.9896 11.3116 13.9896C10.8744 13.9896 10.5065 13.9046 10.208 13.7346C9.91372 13.5646 9.69089 13.3385 9.53953 13.0565C9.38818 12.7745 9.3125 12.4656 9.3125 12.1296ZM10.517 11.6506V12.1296C10.517 12.2748 10.5444 12.4137 10.599 12.5464C10.6579 12.675 10.7462 12.7807 10.8639 12.8637C10.9858 12.9425 11.133 12.9819 11.3053 12.9819C11.4861 12.9819 11.6333 12.9425 11.7468 12.8637C11.8603 12.7807 11.9444 12.675 11.999 12.5464C12.0537 12.4137 12.081 12.2748 12.081 12.1296V11.6506C12.081 11.4972 12.0516 11.3562 11.9927 11.2276C11.9381 11.0949 11.8519 10.9891 11.7342 10.9104C11.6207 10.8274 11.4735 10.7859 11.2927 10.7859C11.1246 10.7859 10.9816 10.8274 10.8639 10.9104C10.7462 10.9891 10.6579 11.0949 10.599 11.2276C10.5444 11.3562 10.517 11.4972 10.517 11.6506ZM13.7018 17.2245V16.7455C13.7018 16.4054 13.7775 16.0943 13.9288 15.8123C14.0844 15.5303 14.3093 15.3043 14.6036 15.1343C14.9021 14.9642 15.2679 14.8792 15.7009 14.8792C16.1382 14.8792 16.504 14.9642 16.7983 15.1343C17.0926 15.3043 17.3154 15.5303 17.4667 15.8123C17.6181 16.0943 17.6938 16.4054 17.6938 16.7455V17.2245C17.6938 17.5645 17.6181 17.8756 17.4667 18.1576C17.3196 18.4396 17.0989 18.6656 16.8046 18.8356C16.5103 19.0057 16.1466 19.0907 15.7135 19.0907C15.2763 19.0907 14.9084 19.0057 14.6099 18.8356C14.3114 18.6656 14.0844 18.4396 13.9288 18.1576C13.7775 17.8756 13.7018 17.5645 13.7018 17.2245ZM14.9126 16.7455V17.2245C14.9126 17.3738 14.9463 17.5148 15.0135 17.6475C15.0808 17.7802 15.1733 17.8859 15.291 17.9647C15.4129 18.0435 15.5538 18.0829 15.7135 18.0829C15.9154 18.0829 16.073 18.0435 16.1865 17.9647C16.3 17.8859 16.3778 17.7802 16.4199 17.6475C16.4661 17.5148 16.4892 17.3738 16.4892 17.2245V16.7455C16.4892 16.5962 16.4598 16.4572 16.401 16.3287C16.3421 16.196 16.2538 16.0902 16.1361 16.0114C16.0226 15.9285 15.8775 15.887 15.7009 15.887C15.5244 15.887 15.3772 15.9285 15.2595 16.0114C15.146 16.0902 15.0598 16.196 15.0009 16.3287C14.9421 16.4572 14.9126 16.5962 14.9126 16.7455ZM16.1487 11.2027L11.6648 18.282L10.7819 17.8217L15.2658 10.7424L16.1487 11.2027Z" fill="#42A5F5"/>
<path d="M10.517 11.6506V12.1296C10.517 12.2748 10.5444 12.4137 10.599 12.5464C10.6579 12.675 10.7462 12.7807 10.8639 12.8637C10.9858 12.9425 11.133 12.9819 11.3053 12.9819C11.4861 12.9819 11.6333 12.9425 11.7468 12.8637C11.8603 12.7807 11.9444 12.675 11.999 12.5464C12.0537 12.4137 12.081 12.2748 12.081 12.1296V11.6506C12.081 11.4972 12.0516 11.3562 11.9927 11.2276C11.9381 11.0949 11.8519 10.9891 11.7342 10.9104C11.6207 10.8274 11.4735 10.7859 11.2927 10.7859C11.1246 10.7859 10.9816 10.8274 10.8639 10.9104C10.7462 10.9891 10.6579 11.0949 10.599 11.2276C10.5444 11.3562 10.517 11.4972 10.517 11.6506Z" fill="#42A5F5"/>
<path d="M14.9126 16.7455V17.2245C14.9126 17.3738 14.9463 17.5148 15.0135 17.6475C15.0808 17.7802 15.1733 17.8859 15.291 17.9647C15.4129 18.0435 15.5538 18.0829 15.7135 18.0829C15.9154 18.0829 16.073 18.0435 16.1865 17.9647C16.3 17.8859 16.3778 17.7802 16.4199 17.6475C16.4661 17.5148 16.4892 17.3738 16.4892 17.2245V16.7455C16.4892 16.5962 16.4598 16.4572 16.401 16.3287C16.3421 16.196 16.2538 16.0902 16.1361 16.0114C16.0226 15.9285 15.8775 15.887 15.7009 15.887C15.5244 15.887 15.3772 15.9285 15.2595 16.0114C15.146 16.0902 15.0598 16.196 15.0009 16.3287C14.9421 16.4572 14.9126 16.5962 14.9126 16.7455Z" fill="#42A5F5"/>
</svg>
