<svg width="56" height="56" viewBox="0 0 56 56" fill="none" xmlns="http://www.w3.org/2000/svg">
<path fill-rule="evenodd" clip-rule="evenodd" d="M43.088 40.0739C44.017 38.9662 44.8467 37.7771 45.5665 36.5203C46.5078 34.8767 47.2612 33.1175 47.803 31.2735L45.8429 30.6976L45.8419 30.701C45.1889 32.9224 44.2007 35.0095 42.9266 36.8979C41.1666 39.5067 38.8608 41.7362 36.1391 43.4165C31.4462 46.3139 25.8478 47.374 20.4205 46.3931C14.9932 45.4122 10.1201 42.4594 6.73831 38.1027C3.35649 33.7459 1.70471 28.2927 2.10059 22.7917C2.49646 17.2907 4.91204 12.1302 8.88283 8.30258C12.8536 4.47495 18.0993 2.2504 23.6111 2.0567C29.123 1.86299 34.5119 3.71381 38.7416 7.25325C41.1946 9.306 43.1574 11.8427 44.5258 14.6766C45.5168 16.729 46.1961 18.9373 46.5242 21.2305L48.5465 20.9412L48.5461 20.9381C48.2738 19.0367 47.7803 17.1888 47.0844 15.4283C46.552 14.0814 45.9011 12.7857 45.1402 11.5564C43.7798 9.35847 42.0678 7.37288 40.0526 5.68653C35.4363 1.82362 29.555 -0.196343 23.5394 0.015064C17.5238 0.226471 11.7987 2.65432 7.46504 6.83177C3.13135 11.0092 0.495015 16.6413 0.0629626 22.6451C-0.36909 28.6489 1.43365 34.6004 5.12453 39.3553C8.81542 44.1102 14.1339 47.3328 20.0572 48.4034C25.9805 49.474 32.0905 48.317 37.2123 45.1548C39.4482 43.7744 41.4269 42.0544 43.088 40.0739ZM14.8576 21.7158H13.418H12.418V22.7158V34.8679V35.8679H13.418H14.8576V37.8138H16.8576V35.8679H18.2972H19.2972V34.8679V22.7158V21.7158H18.2972H16.8576V18.2969H14.8576V21.7158ZM14.418 23.7158V33.8679H15.8576H17.2972V23.7158H15.8576H14.418ZM23.1763 13.1772H24.6159V9.75831H26.6159V13.1772H28.0555H29.0555V14.1772V26.3293V27.3293H28.0555H26.6159V36.5941H24.6159V27.3293H23.1763H22.1763V26.3293V14.1772V13.1772H23.1763ZM24.1763 25.3293V15.1772H25.6159H27.0555V25.3293H25.6159H24.1763ZM33.1545 18.0566H31.7149H30.7149V19.0566V23.7863V24.7863H31.7149H33.1545V31.715H35.1545V24.7863H36.5941H37.5941V23.7863V19.0566V18.0566H36.5941H35.1545V14.6377H33.1545V18.0566ZM32.7149 20.0566V22.7863H34.1545H35.5941V20.0566H34.1545H32.7149ZM40.8925 43.7208L52.5745 55.5903L55.4253 52.7845L43.7433 40.915L40.8925 43.7208Z" fill="#4986EE"/>
</svg>
