<svg width="65" height="54" viewBox="0 0 65 54" fill="none" xmlns="http://www.w3.org/2000/svg">
<path d="M49.9872 27.7386C49.9872 41.6867 38.9 52.9772 25.2436 52.9772C11.5872 52.9772 0.5 41.6867 0.5 27.7386C0.5 13.7905 11.5872 2.5 25.2436 2.5C38.9 2.5 49.9872 13.7905 49.9872 27.7386Z" stroke="#4986EE"/>
<path d="M24.2726 47.0438V52.4885M35.438 50.5086L33.0107 45.5589M43.6907 45.0639L39.3216 40.6092M49.0307 36.1544L43.2053 34.1745M50 26.7499H44.1762M47.0889 15.8605L41.7489 18.8303M40.2925 7.94094L36.4089 12.8907M29.1271 2.99121L28.1562 9.42586M16.0199 3.98116L18.4471 10.9108M5.33989 12.8907L11.1653 17.3454M0.485352 26.2549L7.2817 26.7499M8.73806 36.1544L2.91262 38.1343M11.1653 48.0337L14.5635 43.579" stroke="#4986EE" stroke-width="3"/>
<path d="M26.1265 20.6489V22.9536H24.9078V20.6489H26.1265ZM25.9781 33.4067V35.5083H24.7593V33.4067H25.9781ZM26.8374 30.8442C26.8374 30.5474 26.7828 30.2948 26.6734 30.0864C26.5692 29.8781 26.3973 29.6932 26.1578 29.5317C25.9234 29.3703 25.6057 29.214 25.2046 29.063C24.5275 28.8026 23.9312 28.5265 23.4156 28.2349C22.9052 27.938 22.5067 27.5708 22.2203 27.1333C21.9338 26.6906 21.7906 26.1307 21.7906 25.4536C21.7906 24.8078 21.9442 24.2479 22.2515 23.7739C22.5588 23.3 22.9833 22.9354 23.5249 22.6802C24.0718 22.4198 24.7072 22.2896 25.4312 22.2896C25.9833 22.2896 26.4833 22.3729 26.9312 22.5396C27.3791 22.701 27.7645 22.9406 28.0874 23.2583C28.4104 23.5708 28.6578 23.9536 28.8296 24.4067C29.0015 24.8599 29.0874 25.3781 29.0874 25.9614H26.8453C26.8453 25.6489 26.8114 25.3729 26.7437 25.1333C26.676 24.8937 26.577 24.6932 26.4468 24.5317C26.3218 24.3703 26.1708 24.2505 25.9937 24.1724C25.8166 24.089 25.6213 24.0474 25.4078 24.0474C25.09 24.0474 24.8296 24.1099 24.6265 24.2349C24.4234 24.3599 24.2749 24.5291 24.1812 24.7427C24.0927 24.951 24.0484 25.1906 24.0484 25.4614C24.0484 25.7271 24.0953 25.9588 24.189 26.1567C24.288 26.3547 24.4572 26.5369 24.6968 26.7036C24.9364 26.8651 25.2645 27.0317 25.6812 27.2036C26.3583 27.464 26.952 27.7453 27.4624 28.0474C27.9729 28.3494 28.3713 28.7192 28.6578 29.1567C28.9442 29.5942 29.0874 30.1515 29.0874 30.8286C29.0874 31.5005 28.9312 32.0734 28.6187 32.5474C28.3062 33.0161 27.8687 33.3755 27.3062 33.6255C26.7437 33.8703 26.0927 33.9927 25.3531 33.9927C24.8739 33.9927 24.3973 33.9302 23.9234 33.8052C23.4494 33.675 23.0197 33.4666 22.6343 33.1802C22.2489 32.8937 21.9416 32.5135 21.7124 32.0396C21.4833 31.5604 21.3687 30.9718 21.3687 30.2739H23.6187C23.6187 30.6541 23.6682 30.9718 23.7671 31.2271C23.8661 31.4771 23.9963 31.6776 24.1578 31.8286C24.3244 31.9744 24.5119 32.0786 24.7203 32.1411C24.9286 32.2036 25.1395 32.2349 25.3531 32.2349C25.6864 32.2349 25.9598 32.175 26.1734 32.0552C26.3921 31.9354 26.5562 31.7713 26.6656 31.563C26.7802 31.3494 26.8374 31.1099 26.8374 30.8442Z" fill="#4986EE"/>
<path d="M44.1618 28.2336C44.1618 38.628 35.9001 47.0376 25.7291 47.0376C15.5581 47.0376 7.29639 38.628 7.29639 28.2336C7.29639 17.8393 15.5581 9.42969 25.7291 9.42969C35.9001 9.42969 44.1618 17.8393 44.1618 28.2336Z" stroke="#4986EE"/>
<path fill-rule="evenodd" clip-rule="evenodd" d="M44.8186 49.4536C56.0865 47.2315 64.5988 37.1288 64.6181 24.9954H64.6187V22.9954H64.5438C63.564 10.1292 53.0141 0 40.1439 0C37.7107 0 35.3604 0.362034 33.1421 1.03615C33.7442 1.20334 34.3383 1.38979 34.9237 1.59481C36.603 1.20551 38.3502 1 40.1439 1C41.0653 1 41.9744 1.05423 42.8684 1.15975L42.2254 5.42118C42.8473 5.87264 43.4502 6.34863 44.0328 6.84773L44.8427 1.48033C48.1002 2.15604 51.1142 3.52044 53.7312 5.41889L50.4352 9.61963C48.5946 8.42887 46.5318 7.563 44.3245 7.10111C44.8469 7.56097 45.3523 8.03965 45.8396 8.5361C52.863 10.7973 57.9705 17.4964 57.9705 25.4343C57.9705 30.7185 55.7072 35.4537 52.1221 38.6962C51.8652 39.3664 51.5838 40.0245 51.2788 40.6693C52.1063 40.0661 52.8826 39.3945 53.5997 38.6627L56.7549 41.8798C55.0149 43.6575 53.0028 45.1573 50.7885 46.3089L49.5543 43.7922C49.1437 44.4367 48.7079 45.0636 48.2483 45.6715L48.9756 47.1545C48.0714 47.5294 47.1393 47.8485 46.1834 48.1076C45.7436 48.5713 45.2884 49.0203 44.8186 49.4536ZM56.0151 15.2463C54.9362 13.5544 53.5965 12.0514 52.054 10.7965L55.299 6.66078C57.3141 8.4005 59.0383 10.4809 60.3859 12.8155L56.0151 15.2463ZM58.8161 22.9954C58.5433 20.8586 57.9171 18.8349 56.9991 16.9875L61.313 14.5883C62.5279 17.167 63.3037 20.0028 63.5408 22.9954H58.8161ZM58.9705 25.4343C58.9705 25.2876 58.9689 25.1413 58.9656 24.9954H63.6181C63.6141 27.3826 63.2684 29.6869 62.6282 31.8605L58.3186 30.3958C58.7436 28.8157 58.9705 27.152 58.9705 25.4343ZM54.9244 37.1572C56.0739 35.7004 57.0137 34.0645 57.6973 32.297L61.9841 33.7539C61.042 36.187 59.7208 38.4242 58.0953 40.3902L54.9244 37.1572Z" fill="#4986EE"/>
</svg>
