<svg width="29" height="29" viewBox="0 0 29 29" fill="none" xmlns="http://www.w3.org/2000/svg">
<circle cx="14.5" cy="14.5" r="14.5" fill="#00D7E5" fill-opacity="0.05"/>
<path d="M7 12.75V17.75C7 18.4404 7.78546 19 8.75439 19H21.0351C22.004 19 22.7895 18.4404 22.7895 17.75V12.75M7 12.75V10.25C7 9.55964 7.78546 9 8.75439 9H21.0351C22.004 9 22.7895 9.55964 22.7895 10.25V12.75M7 12.75H22.7895" stroke="#00D7E5" stroke-width="1.5" stroke-linecap="round" stroke-linejoin="round"/>
<path d="M8.84221 11.6316C9.27822 11.6316 9.63168 11.2781 9.63168 10.8421C9.63168 10.4061 9.27822 10.0526 8.84221 10.0526C8.40619 10.0526 8.05273 10.4061 8.05273 10.8421C8.05273 11.2781 8.40619 11.6316 8.84221 11.6316Z" fill="#00D7E5"/>
<path d="M10.9472 11.6316C11.3832 11.6316 11.7367 11.2781 11.7367 10.8421C11.7367 10.4061 11.3832 10.0526 10.9472 10.0526C10.5112 10.0526 10.1577 10.4061 10.1577 10.8421C10.1577 11.2781 10.5112 11.6316 10.9472 11.6316Z" fill="#00D7E5"/>
</svg>
