<svg xmlns="http://www.w3.org/2000/svg" width="19" height="19" fill="none"><path fill="#1B8CFF" d="M6.703 18.65a9.65 9.65 0 0 1-2.08-.862.725.725 0 0 1-.367-.671l.127-1.981a.144.144 0 0 0-.042-.111l-.678-.679a.142.142 0 0 0-.101-.041h-.01l-1.988.124h-.045a.718.718 0 0 1-.627-.368 9.652 9.652 0 0 1-.863-2.086.723.723 0 0 1 .217-.734L1.74 9.923a.143.143 0 0 0 .048-.109v-.95a.145.145 0 0 0-.048-.108L.243 7.438a.723.723 0 0 1-.217-.734A9.694 9.694 0 0 1 .89 4.617a.719.719 0 0 1 .627-.366h.045l1.988.124h.01a.147.147 0 0 0 .101-.042l.671-.671a.144.144 0 0 0 .041-.111l-.121-1.987a.723.723 0 0 1 .366-.67A9.694 9.694 0 0 1 6.703.03a.72.72 0 0 1 .734.216l1.319 1.49a.145.145 0 0 0 .108.048h.947a.143.143 0 0 0 .108-.048L11.24.243a.72.72 0 0 1 .734-.216 9.652 9.652 0 0 1 2.085.862.722.722 0 0 1 .367.671l-.123 1.989a.144.144 0 0 0 .041.11l.67.672a.148.148 0 0 0 .103.042h.009l1.988-.124h.04a.72.72 0 0 1 .628.366c.368.66.657 1.36.862 2.087a.721.721 0 0 1-.217.734l-1.487 1.32a.145.145 0 0 0-.049.109v.946a.146.146 0 0 0 .05.109l1.493 1.318a.722.722 0 0 1 .217.734 9.611 9.611 0 0 1-.863 2.086.72.72 0 0 1-.627.368h-.045l-1.988-.124h-.01a.143.143 0 0 0-.101.041l-.671.671a.147.147 0 0 0-.041.111l.123 1.989a.713.713 0 0 1-.367.67 9.594 9.594 0 0 1-2.08.863.714.714 0 0 1-.735-.216L9.93 16.939a.143.143 0 0 0-.108-.05h-.959a.146.146 0 0 0-.108.05l-1.319 1.494a.72.72 0 0 1-.734.217ZM4.68 13.328l.679.677a1.581 1.581 0 0 1 .46 1.22l-.096 1.516c.307.15.623.282.947.392l1.01-1.144a1.583 1.583 0 0 1 1.187-.535h.958a1.582 1.582 0 0 1 1.187.537l1.005 1.141c.324-.11.64-.242.948-.393l-.096-1.524a1.582 1.582 0 0 1 .461-1.217l.67-.67c.298-.296.7-.462 1.12-.463h.095l1.524.095c.152-.308.284-.627.395-.952l-1.145-1.011a1.582 1.582 0 0 1-.534-1.187v-.945a1.582 1.582 0 0 1 .534-1.187l1.145-1.01a7.92 7.92 0 0 0-.395-.954l-1.524.096h-.096a1.574 1.574 0 0 1-1.12-.463l-.67-.671a1.583 1.583 0 0 1-.462-1.216l.096-1.524a8.381 8.381 0 0 0-.953-.396L11 2.69a1.584 1.584 0 0 1-1.187.535h-.948a1.583 1.583 0 0 1-1.186-.535l-1.01-1.147a8.435 8.435 0 0 0-.953.396l.096 1.523A1.581 1.581 0 0 1 5.35 4.68l-.67.67a1.57 1.57 0 0 1-1.12.464h-.096L1.94 5.717c-.151.31-.283.628-.396.953l1.15 1.011a1.583 1.583 0 0 1 .528 1.184v.946a1.584 1.584 0 0 1-.534 1.187l-1.15 1.01c.112.326.244.644.395.953l1.524-.095h.096a1.57 1.57 0 0 1 1.126.462Zm.102-3.995a4.552 4.552 0 1 1 9.104 0 4.552 4.552 0 0 1-9.104 0Zm1.437 0a3.115 3.115 0 1 0 6.23 0 3.115 3.115 0 0 0-6.23 0Z"/></svg>