<svg xmlns="http://www.w3.org/2000/svg" aria-hidden="true" style="position:absolute;width:0;height:0;overflow:hidden"><defs><symbol id="icon-indicators" viewBox="0 0 38 32"><path fill="#d9eafb" d="M.909 24V2.182c0-1.004.814-1.818 1.818-1.818h33.091c1.004 0 1.818.814 1.818 1.818V24H.909z" style="fill:var(--color8, #d9eafb)"/><path fill="none" stroke="#1b8cff" stroke-width="1.091" d="M.727 27.636V.727h36.909v26.909H.727zM13.455 30.364v-2.545h11.273v2.545H13.455zM.909 24h36.364" style="stroke:var(--color5, #1b8cff)"/><path fill="#1b8cff" d="M27.636 13.091a7.638 7.638 0 0 0-9.623-7.373 7.633 7.633 0 0 0-5.622 6.726 7.634 7.634 0 0 0 8.963 8.163l-.63-3.497a4.09 4.09 0 0 1-4.793-4.366 4.087 4.087 0 0 1 5.461-3.492 4.087 4.087 0 0 1 2.69 3.839h3.553z" style="fill:var(--color5, #1b8cff)"/><path fill="#1b8cff" d="M21.455 13.273a1.636 1.636 0 1 1-3.272 0 1.636 1.636 0 0 1 3.272 0z" style="fill:var(--color5, #1b8cff)"/><path fill="#b4d6f8" d="M2.727 4.364h9.455v1.455H2.727V4.364zM2.727 6.545H10V8H2.727V6.545zM2.727 9.091H10v.727H2.727v-.727zM26.364 15.273h9.455v1.455h-9.455v-1.455zM26.364 17.455h7.273v1.455h-7.273v-1.455zM26.364 20h7.273v.727h-7.273V20z" style="fill:var(--color3, #b4d6f8)"/><path fill="none" stroke="#d9eafb" stroke-linecap="round" stroke-width="1.091" d="M7.273 31.273h24.182" style="stroke:var(--color8, #d9eafb)"/><path fill="none" stroke="#1b8cff" stroke-linecap="square" stroke-width="1.091" d="M10.545 2.545h22.727M2.727 2.545h6.182" style="stroke:var(--color5, #1b8cff)"/></symbol><symbol id="icon-24/5-support" viewBox="0 0 32 32"><path fill="#4fd5ab" d="M12.513 27.245c-.001-.916.307-1.806.877-2.533s1.369-1.25 2.274-1.489c.905-.238 1.865-.178 2.732.171s1.591.967 2.062 1.759c3.239-1.395 4.452-3.585 4.452-7.748v-4.541c0-6.042-3.488-10.216-8.91-10.216S7.09 6.824 7.09 12.864v5.297c0 .301-.123.589-.341.802s-.513.332-.821.333h-1.55c-1.13-.001-2.212-.44-3.011-1.22S.119 16.239.117 15.135v-1.514c.001-1.104.451-2.162 1.249-2.942s1.882-1.22 3.012-1.221h.741C6.292 4.053 10.307.377 16 .377s9.706 3.676 10.879 9.081h.741c1.13.002 2.213.441 3.011 1.221s1.248 1.838 1.25 2.941v1.514c-.001 1.103-.451 2.161-1.249 2.942s-1.882 1.219-3.012 1.22h-.479c-.06 1.793-.676 3.525-1.766 4.968s-2.603 2.529-4.339 3.114c-.018 1.104-.485 2.155-1.297 2.923s-1.903 1.189-3.033 1.171c-1.13-.018-2.207-.474-2.993-1.267s-1.218-1.859-1.199-2.963zm2.325 0c0 .374.114.74.326 1.051s.515.554.869.697c.354.143.743.181 1.119.108s.721-.253.992-.518.455-.602.53-.969.036-.747-.11-1.093c-.147-.346-.395-.641-.713-.849a1.968 1.968 0 0 0-2.445.236 1.876 1.876 0 0 0-.568 1.337zm12.396-10.216h.386c.514 0 1.007-.199 1.37-.554s.568-.836.568-1.338v-1.514c0-.502-.204-.983-.567-1.338s-.856-.555-1.37-.555h-.387v5.299zM2.441 13.623v1.514c.001.501.205.982.568 1.336s.855.554 1.369.554h.387V11.73h-.387c-.514 0-1.006.2-1.37.555s-.567.836-.567 1.338z" style="fill:var(--color1, #4fd5ab)"/></symbol><symbol id="icon-calendar" viewBox="0 0 46 32"><path fill="#b4d6f8" d="M9.254 27.482v-16.71h25.091v16.71a2.435 2.435 0 0 1-2.435 2.435H11.688a2.435 2.435 0 0 1-2.435-2.435z" style="fill:var(--color3, #b4d6f8)"/><path fill="none" stroke="#dbecfd" stroke-linecap="round" stroke-width="1.044" d="M12.391 28.226h18.338m3.555-16.286H12.391" style="stroke:var(--color4, #dbecfd)"/><path fill="none" stroke="#1b8cff" stroke-linecap="round" stroke-width="1.044" d="M12.343 5.532h18.719A3.478 3.478 0 0 1 34.54 9.01v17.63a3.478 3.478 0 0 1-3.478 3.478H12.343a3.478 3.478 0 0 1-3.478-3.478V9.01a3.478 3.478 0 0 1 3.478-3.478zM15.089.696V5.13m13.227-.001V.695M34.151 10.369H9.059" style="stroke:var(--color5, #1b8cff)"/><path fill="#1b8cff" d="M12.391 15.042h2.723v2.821h-2.723v-2.821zM12.391 19.476h2.723v2.821h-2.723v-2.821zM17.448 15.042h2.723v2.821h-2.723v-2.821z" style="fill:var(--color5, #1b8cff)"/><path fill="#fff" stroke="#1b8cff" stroke-width="1.044" d="M44.133 21.251c0 4.849-3.79 8.748-8.425 8.748s-8.426-3.899-8.426-8.748c0-4.849 3.79-8.748 8.426-8.748s8.425 3.899 8.425 8.748z" style="fill:var(--color6, #fff);stroke:var(--color5, #1b8cff)"/><path fill="none" stroke="#1b8cff" stroke-width="1.391" d="m31.817 21.655 4.279 3.829 3.696-8.263" style="stroke:var(--color5, #1b8cff)"/><path fill="none" stroke="#dbecfd" stroke-linecap="round" stroke-width="1.044" d="M.696 31.328h44.348" style="stroke:var(--color4, #dbecfd)"/></symbol><symbol id="icon-clock" viewBox="0 0 31 32"><path fill="#43a4f3" d="M15.555 31.556c7.657 0 13.885-6.243 13.885-13.916 0-3.5-1.306-6.694-3.443-9.142l1.11-1.116 1 .894 1.294-1.449-3.58-3.199-1.294 1.449 1.128 1.008-1.034 1.04a13.78 13.78 0 0 0-8.095-3.351V2.389h2.895V.446h-7.732v1.943h2.894v1.385C7.38 4.277 1.669 10.296 1.669 17.64c0 7.674 6.228 13.917 13.885 13.917zm0-25.89c6.584 0 11.942 5.37 11.942 11.972 0 6.603-5.358 11.973-11.942 11.973S3.613 24.241 3.613 17.638c0-6.601 5.358-11.972 11.942-11.972z" style="fill:var(--color7, #43a4f3)"/><path fill="#43a4f3" d="m24.6 21.91-8.071-6.382V7.672h-1.943v8.797l8.808 6.965L24.6 21.91z" style="fill:var(--color7, #43a4f3)"/></symbol><symbol id="icon-cloud" viewBox="0 0 51 32"><path fill="none" stroke="#1b8cff" stroke-linecap="round" stroke-linejoin="round" stroke-width="2.667" d="M39.758 14.095c4.552 0 8.242 3.411 8.242 7.619s-3.69 7.619-8.242 7.619H12.97c-5.69 0-10.303-4.264-10.303-9.524 0-5.048 4.249-9.178 9.621-9.503 2.31-4.516 7.283-7.64 13.046-7.64 7.267 0 13.28 4.968 14.279 11.43l.145-.001z" style="stroke:var(--color5, #1b8cff)"/></symbol><symbol xmlns="http://www.w3.org/2000/svg" id="icon-crown" fill="none" viewBox="0 0 122 88"><path fill="#1B8CFF" d="M90.274 36.774H29.042V67.46h61.232V36.774Z" opacity=".3"/><path stroke="#fff" stroke-miterlimit="10" stroke-width="3" d="M29.232 41.095h61.233M29.042 63.457h61.232" opacity=".5"/><path stroke="#1B8CFF" stroke-miterlimit="10" stroke-width="3" d="M96.93 67.459H22.387v14.675H96.93V67.46Z"/><path stroke="#1B8CFF" stroke-miterlimit="10" stroke-width="3" d="M90.274 36.774H29.042V67.46h61.232V36.774ZM56.996 15.428l-9.318 21.346M71.638 36.774 62.32 15.428M26.38 15.428l2.662 21.346M47.678 36.774l-17.304-22.68M26.38 15.429c3.676 0 6.655-2.987 6.655-6.671s-2.98-6.67-6.655-6.67c-3.676 0-6.656 2.986-6.656 6.67 0 3.684 2.98 6.67 6.656 6.67ZM59.658 15.429c3.676 0 6.656-2.987 6.656-6.671s-2.98-6.67-6.656-6.67c-3.676 0-6.656 2.986-6.656 6.67 0 3.684 2.98 6.67 6.656 6.67ZM92.937 15.428l-2.662 21.346M71.639 36.774l17.304-22.68M92.937 15.429c3.676 0 6.656-2.987 6.656-6.671s-2.98-6.67-6.656-6.67c-3.676 0-6.656 2.986-6.656 6.67 0 3.684 2.98 6.67 6.656 6.67ZM29.042 43.445h61.232M29.042 60.789h61.232"/><path fill="#1B8CFF" d="M45.016 55.452h1.33l2.663-2.668V51.45l-2.662-2.668h-1.331l-2.663 2.668v1.334M54.334 55.452h1.33l2.663-2.668V51.45l-2.662-2.668h-1.331L51.67 51.45v1.334M63.652 55.452h1.331l2.662-2.668V51.45l-2.662-2.668h-1.331L60.99 51.45v1.334M72.97 55.452h1.33l2.663-2.668V51.45L74.3 48.782h-1.332l-2.662 2.668v1.334"/><path stroke="#1B8CFF" stroke-linecap="round" stroke-linejoin="round" stroke-width="3" d="M22.387 74.13h14.642M82.288 75.464H96.93"/><path stroke="#DBECFD" stroke-linecap="round" stroke-width="3" d="M1.849 84.294h118.154"/></symbol><symbol id="icon-e-books" viewBox="0 0 39 32"><path fill="#d9eafb" d="M32.672 22.625V.421H7.305L3.623 3.752v22.204l3.682-3.331h25.367z" style="fill:var(--color8, #d9eafb)"/><path fill="#b4d6f8" d="M5.463 1.901 3.417 5.047v21.094l3.478-3.146V1.531l-1.432.37z" style="fill:var(--color3, #b4d6f8)"/><path fill="none" stroke="#1b8cff" stroke-linecap="square" stroke-width="1.263" d="M32.467 22.625v7.587H9.312a5.895 5.895 0 0 1-5.895-5.895V6.686A5.895 5.895 0 0 1 9.312.791h23.155v21.834zm0 0H8.47a4.251 4.251 0 0 0-4.235 4.626v0" style="stroke:var(--color5, #1b8cff)"/><path fill="#1b8cff" stroke="#1b8cff" stroke-linecap="square" stroke-width="1.263" d="M22.443 8.748h9.41v4.071h-9.41V8.748z" style="fill:var(--color5, #1b8cff);stroke:var(--color5, #1b8cff)"/><path fill="none" stroke="#b4d6f8" stroke-linecap="square" stroke-width="1.263" d="M10.782 4.122h17.389m-17.389 2.96h7.774" style="stroke:var(--color3, #b4d6f8)"/><path fill="none" stroke="#1b8cff" stroke-width="1.263" d="M7.1 23.181V11.894M7.304 1.346v6.291" style="stroke:var(--color5, #1b8cff)"/><path fill="none" stroke="#dbecfd" stroke-linecap="round" stroke-width="1.263" d="M.963 31.322H38.4" style="stroke:var(--color4, #dbecfd)"/></symbol><symbol id="icon-educational" viewBox="0 0 50 32"><path fill="none" stroke="#1b8cff" stroke-linecap="round" stroke-width="1.079" d="M40.887 30.202H11.264a4.315 4.315 0 0 1-4.315-4.315v-1.258a4.315 4.315 0 0 1 4.315-4.315h29.623M36.873 20.494v4.854m0 4.854v-4.854m0 0H15.525" style="stroke:var(--color5, #1b8cff)"/><path fill="#b4d6f8" stroke="#1b8cff" stroke-width="1.079" d="M14.065 10.247v9.708h19.706v-9.708l-2.689-.491a39.925 39.925 0 0 0-14.328 0l-2.689.491z" style="fill:var(--color3, #b4d6f8);stroke:var(--color5, #1b8cff)"/><path fill="none" stroke="#1b8cff" stroke-width="1.079" d="M14.065 15.281 7.314 7.91 23.735.719 40.339 7.91m0 0-6.569 6.292m6.569-6.292v5.213" style="stroke:var(--color5, #1b8cff)"/><path fill="#1b8cff" stroke="#1b8cff" stroke-width="1.079" d="M41.99 14.921c0 .886-.731 1.618-1.65 1.618s-1.65-.732-1.65-1.618c0-.886.731-1.618 1.65-1.618s1.65.732 1.65 1.618z" style="fill:var(--color5, #1b8cff);stroke:var(--color5, #1b8cff)"/><path fill="#d9eafb" d="M14.795 19.236v-8.342l1.642-.287 1.825-.271v8.9h-3.467z" style="fill:var(--color8, #d9eafb)"/><path fill="none" stroke="#d9eafb" stroke-linecap="round" stroke-width="1.079" d="M.746 31.281H49.28" style="stroke:var(--color8, #d9eafb)"/></symbol><symbol id="icon-expert" viewBox="0 0 39 32"><path fill="none" stroke="#dbecfd" stroke-linecap="round" stroke-width="1.067" d="M.711 31.409h38.044" style="stroke:var(--color4, #dbecfd)"/><path fill="#1b8cff" d="M11.46 22.368h16.242a3.822 3.822 0 1 0 0 7.642H11.46a3.822 3.822 0 1 1 0-7.642z" opacity=".3" style="fill:var(--color5, #1b8cff)"/><path fill="none" stroke="#fff" stroke-miterlimit="10" stroke-width="1.067" d="M8.594 23.801h16.242M8.594 28.578h16.242" opacity=".5" style="stroke:var(--color6, #fff)"/><path fill="none" stroke="#1b8cff" stroke-linecap="round" stroke-linejoin="round" stroke-width="1.067" d="M11.46 22.368h16.242a3.822 3.822 0 1 0 0 7.642H11.46a3.822 3.822 0 1 1 0-7.642zM31.524 11.381V26.19a3.822 3.822 0 0 1-3.821 3.821" style="stroke:var(--color5, #1b8cff)"/><path fill="none" stroke="#1b8cff" stroke-linecap="round" stroke-linejoin="round" stroke-width="1.067" d="M11.938 22.368V1.349h19.586V3.26M18.841 16.941 36.3 1.349" style="stroke:var(--color5, #1b8cff)"/><path fill="none" stroke="#1b8cff" stroke-linecap="round" stroke-linejoin="round" stroke-width="1.067" d="M31.325 11.556c1.771-1.582 2.837-8.298 2.837-8.298s-6.795.302-8.563 1.884a4.304 4.304 0 0 0-.329 6.058c.757.848 1.82 1.362 2.955 1.428s2.25-.319 3.102-1.072h-.002zM28.106 8.668l.267-4.722M28.106 8.667l4.722.267M15.282 10.903V1.349" style="stroke:var(--color5, #1b8cff)"/></symbol><symbol id="icon-analitycs" viewBox="0 0 26 32"><path fill="#f8a04f" d="M9.267.41c-.927 0-1.544.624-1.544 1.559v28.062c0 .935.618 1.559 1.544 1.559s1.545-.624 1.545-1.559V1.969c0-.935-.618-1.559-1.545-1.559zM1.544 16C.617 16 0 16.624 0 17.559v12.472c0 .935.618 1.559 1.544 1.559s1.544-.624 1.544-1.559V17.559c0-.935-.618-1.559-1.544-1.559zm15.445-6.236c-.927 0-1.545.624-1.545 1.559v18.708c0 .935.618 1.559 1.545 1.559s1.544-.624 1.544-1.559V11.323c0-.935-.618-1.559-1.544-1.559zm7.723 12.472c-.927 0-1.544.624-1.544 1.559v6.236c0 .935.618 1.559 1.544 1.559s1.545-.624 1.545-1.559v-6.236c0-.935-.618-1.559-1.545-1.559z" style="fill:var(--color2, #f8a04f)"/></symbol><symbol id="icon-no-bonus" viewBox="0 0 31 32"><path d="M3.358 7.333C-.786 13.21-.235 21.455 5.049 26.74s13.446 5.792 19.365 1.691c.676-.507 1.438-1.1 2.071-1.691a12.681 12.681 0 0 0 1.649-2.071c4.144-5.877 3.637-14.122-1.649-19.407S12.997-.53 7.078 3.571c-.676.507-1.395 1.1-2.029 1.691a12.97 12.97 0 0 0-1.691 2.071zm22.071 14.586L9.785 6.275C14.182 3.611 20.017 4.16 23.78 7.924c3.806 3.806 4.313 9.64 1.649 13.995zM6.064 10.081l15.644 15.601c-4.397 2.664-10.232 2.115-13.995-1.649C3.907 20.227 3.4 14.435 6.064 10.08v.001z"/></symbol><symbol id="icon-partners" viewBox="0 0 43 32"><path fill="#59f1e9" d="M42.281 11.322 31.259.383a1.324 1.324 0 0 0-1.862 0l-5.349 5.309a1.3 1.3 0 0 0 0 1.848l1.007 1-2.817.245a4 4 0 0 0-.905.187 3.99 3.99 0 0 0-.904-.187l-2.817-.245 1.007-1a1.3 1.3 0 0 0 0-1.848L13.27.383a1.324 1.324 0 0 0-1.862 0L.386 11.322a1.3 1.3 0 0 0 0 1.848l5.349 5.309c.514.51 1.348.51 1.862 0l1.191-1.183.246 2.795a3.92 3.92 0 0 0 1.142 2.431l7.931 7.87c2.177 2.161 4.476 1.959 5.964.482l8.418-8.353a3.92 3.92 0 0 0 1.142-2.431l.246-2.795 1.191 1.183c.514.51 1.348.51 1.862 0l5.349-5.309a1.3 1.3 0 0 0 0-1.848zM6.666 15.706l-3.487-3.46 9.16-9.091 3.487 3.46-9.16 9.091zm22.766 6.15a1.243 1.243 0 0 1-1.753-.002l-2.103-2.087c-.514-.51-1.348-.51-1.862 0s-.514 1.338 0 1.848l2.105 2.09.001.001a1.22 1.22 0 0 1-.002 1.736c-.483.48-1.266.48-1.75 0l-.002-.002-2.104-2.088c-.514-.51-1.348-.51-1.862 0s-.514 1.338 0 1.848l2.105 2.09.001.001a1.22 1.22 0 0 1-.002 1.737 1.242 1.242 0 0 1-1.11.336c-.442-.084-.599-.298-1.125-.82l-7.931-7.87a1.304 1.304 0 0 1-.381-.81l-.439-4.98 3.961-3.931 5.018.436c.308.027.597.161.816.377l8.417 8.353c.483.479.483 1.259.001 1.737zm1.728-3.719-6.953-6.9 3.278-.285 3.961 3.931-.287 3.254zm4.841-2.431-9.16-9.091 3.487-3.46 9.16 9.09-3.487 3.46z" style="fill:var(--color9, #59f1e9)"/></symbol><symbol id="icon-payments" viewBox="0 0 32 32"><path fill="none" stroke="#9747ff" stroke-linecap="round" stroke-linejoin="round" stroke-width="1.391" d="M25.333 8H6.666a2.667 2.667 0 0 0-2.667 2.667v12a2.667 2.667 0 0 0 2.667 2.667h18.667A2.667 2.667 0 0 0 28 22.667v-12A2.667 2.667 0 0 0 25.333 8zM4 13.333h23.333M9.333 20H12" style="stroke:var(--color10, #9747ff)"/></symbol><symbol id="icon-step-1" viewBox="0 0 39 32"><path fill="#1b8cff" d="M32.119 12H18.537v13h13.582V12z" opacity=".3" style="fill:var(--color5, #1b8cff)"/><path fill="#fff" d="M28.985 25v-2c0-.398-.165-.779-.459-1.061s-.692-.439-1.108-.439h-3.134c-.416 0-.814.158-1.108.439s-.459.663-.459 1.061v2z" opacity=".5" style="fill:var(--color6, #fff)"/><path fill="none" stroke="#41b2ff" stroke-linecap="round" stroke-miterlimit="10" stroke-width="1.433" d="M25.851 21.5c2.02 0 3.657-1.567 3.657-3.5s-1.637-3.5-3.657-3.5-3.657 1.567-3.657 3.5 1.637 3.5 3.657 3.5z" style="stroke:var(--color11, #41b2ff)"/><path fill="none" stroke="#41b2ff" stroke-linecap="round" stroke-miterlimit="10" stroke-width="1.433" d="M25.851 19.5c.277 0 .543-.105.739-.293s.306-.442.306-.707M28.985 25v-2c0-.398-.165-.779-.459-1.061s-.692-.439-1.108-.439h-3.134c-.416 0-.814.158-1.108.439s-.459.663-.459 1.061v2M28.985 16.5h-8.358" style="stroke:var(--color11, #41b2ff)"/><path fill="none" stroke="#1b8cff" stroke-linejoin="round" stroke-width="1.433" d="M35.254 9H3.911v20.5h31.343V9z" style="stroke:var(--color5, #1b8cff)"/><path fill="none" stroke="#1b8cff" stroke-linecap="round" stroke-linejoin="round" stroke-width="1.433" d="M15.925 9V2.5h7.313V9" style="stroke:var(--color5, #1b8cff)"/><path fill="none" stroke="#1b8cff" stroke-linejoin="round" stroke-width="1.433" d="M15.925 5h7.313M15.925 6.5h7.313" style="stroke:var(--color5, #1b8cff)"/><path fill="none" stroke="#1b8cff" stroke-linecap="square" stroke-miterlimit="10" stroke-width="1.433" d="M32.119 12H18.537v13h13.582V12z" style="stroke:var(--color5, #1b8cff)"/><path fill="none" stroke="#1b8cff" stroke-linecap="round" stroke-miterlimit="10" stroke-width="1.433" d="M32.119 27H7.044M15.925 16.5H7.044M15.925 18.5H7.044M15.925 20.5H7.044" style="stroke:var(--color5, #1b8cff)"/><path fill="none" stroke="#d9eafb" stroke-linecap="round" stroke-width="1.433" d="M.955 30.806h36.776" style="stroke:var(--color8, #d9eafb)"/></symbol><symbol id="icon-step-2" viewBox="0 0 49 32"><path fill="none" stroke="#1b8cff" stroke-linecap="round" stroke-width="1.846" d="M3.077 4.684H29.81v15.033c0 1.02-.827 1.846-1.846 1.846h-9.279l-6.905 6.905v-6.905H3.077a1.846 1.846 0 0 1-1.846-1.846V6.53c0-1.02.827-1.846 1.846-1.846z" style="stroke:var(--color5, #1b8cff)"/><path fill="#b4d6f8" d="M18.04 9.479a2.11 2.11 0 1 1-4.22 0 2.11 2.11 0 0 1 4.22 0zM20.272 15.808h-8.3a4.221 4.221 0 0 1 8.3 0z" style="fill:var(--color3, #b4d6f8)"/><path fill="#d9eafb" stroke="#1b8cff" stroke-linecap="round" stroke-width="1.846" d="M45.61 1.231H20.723c-1.02 0-1.846.827-1.846 1.846v13.187c0 1.02.827 1.846 1.846 1.846h9.279l6.905 6.905V18.11h8.703c1.02 0 1.846-.827 1.846-1.846V3.077c0-1.02-.827-1.846-1.846-1.846z" style="fill:var(--color8, #d9eafb);stroke:var(--color5, #1b8cff)"/><path fill="#1b8cff" d="M34.989 6.793a2.11 2.11 0 1 1-4.22 0 2.11 2.11 0 0 1 4.22 0zM37.221 13.123h-8.3a4.221 4.221 0 0 1 8.3 0zM6.218 18.493a.766.766 0 1 1-1.533.001.766.766 0 0 1 1.533-.001zM8.903 18.493a.767.767 0 1 1-1.534 0 .767.767 0 0 1 1.534 0z" style="fill:var(--color5, #1b8cff)"/><path fill="none" stroke="#d9eafb" stroke-linecap="round" stroke-width="1.846" d="M4.819 30.769h37.538" style="stroke:var(--color8, #d9eafb)"/></symbol><symbol id="icon-step-3" viewBox="0 0 27 32"><path fill="#b4d6f8" d="m17.534 26.301-1.315 1.315 2.411 2.411 7.233-7.233-2.192-2.411-1.973 1.973-4.164 3.945z" style="fill:var(--color3, #b4d6f8)"/><path fill="none" stroke="#1b8cff" stroke-linecap="round" stroke-width="1.315" d="m17.534 26.301-1.709-1.709a6.136 6.136 0 0 0-4.339-1.797H6.357l-4.931-4.931a1.395 1.395 0 0 1 0-1.973v0a1.395 1.395 0 0 1 1.973 0l4.055 4.055h3.836c.666 0 1.205-.54 1.205-1.205v0c0-.666-.54-1.205-1.205-1.205H8.66a.986.986 0 0 1-.986-.986v0c0-.545.442-.986.986-.986h6.027l7.014 6.795m-4.167 3.942-1.315 1.315 2.411 2.411 7.233-7.233-2.192-2.411-1.973 1.973m-4.164 3.945 4.164-3.945" style="stroke:var(--color5, #1b8cff)"/><path fill="none" stroke="#d4e8fb" stroke-linecap="round" stroke-width="1.315" d="M8.767 31.123h16" style="stroke:var(--color12, #d4e8fb)"/><path fill="#b4d6f8" stroke="#1b8cff" stroke-width="1.315" d="M13.808 7.014a6.356 6.356 0 1 1-12.713 0 6.356 6.356 0 0 1 12.713 0z" style="fill:var(--color3, #b4d6f8);stroke:var(--color5, #1b8cff)"/><path fill="none" stroke="#d9eafb" stroke-linecap="round" stroke-width=".877" d="M2.63 7.89v-.877a4.822 4.822 0 0 1 4.822-4.822v0a4.822 4.822 0 0 1 4.822 4.822v.877" style="stroke:var(--color8, #d9eafb)"/><path fill="#f5f5f5" d="M7.799 4.589v.884h-.467v-.884h.467zm-.057 4.893v.806h-.467v-.806h.467zm.33-.983a.62.62 0 0 0-.063-.291.568.568 0 0 0-.198-.213 1.73 1.73 0 0 0-.366-.18 5.15 5.15 0 0 1-.686-.318 1.33 1.33 0 0 1-.458-.423c-.11-.17-.165-.385-.165-.644 0-.248.059-.462.177-.644s.281-.322.488-.42c.21-.1.453-.15.731-.15.212 0 .404.032.575.096a1.208 1.208 0 0 1 .729.717c.066.174.099.373.099.596h-.86c0-.12-.013-.226-.039-.318s-.064-.169-.114-.231a.445.445 0 0 0-.174-.138.522.522 0 0 0-.225-.048c-.122 0-.222.024-.3.072s-.135.113-.171.195a.7.7 0 0 0-.051.276c0 .102.018.191.054.267a.58.58 0 0 0 .195.21c.092.062.218.126.378.192.26.1.487.208.683.324s.349.258.458.425c.11.168.165.382.165.641 0 .258-.06.477-.18.659-.12.18-.288.318-.503.414a1.86 1.86 0 0 1-.749.141c-.184 0-.367-.024-.548-.072-.182-.05-.347-.13-.494-.24s-.266-.256-.354-.437a1.563 1.563 0 0 1-.132-.677h.863c0 .146.019.268.057.366a.625.625 0 0 0 .15.231c.064.056.136.096.216.12s.161.036.243.036a.639.639 0 0 0 .315-.069.453.453 0 0 0 .189-.189.574.574 0 0 0 .066-.276z" style="fill:var(--color13, #f5f5f5)"/><path fill="none" stroke="#1b8cff" stroke-linecap="round" stroke-width=".877" d="m24.767 21.699-2.411 2.411m-4.603 4.383 2.192-2.192" style="stroke:var(--color5, #1b8cff)"/></symbol><symbol xmlns="http://www.w3.org/2000/svg" id="icon-support" fill="none" viewBox="0 0 80 86"><path fill="#1B8CFF" stroke="#1B8CFF" stroke-linecap="round" stroke-width="3" d="M9.42 36.188h1.808V47.03H9.42a5.42 5.42 0 1 1 0-10.842Z"/><path fill="#D9EAFB" fill-rule="evenodd" d="M80 86H0c1.768-19.268 9.191-28.992 28.797-25.536 7.386 1.302 14.982 1.246 22.308-.363C72.788 55.336 78.609 66.42 80 86Z" clip-rule="evenodd"/><path stroke="#1B8CFF" stroke-linecap="round" stroke-width="3" d="M65.489 47.03v-13.9C65.489 18.7 53.789 7 39.359 7v0C24.926 7 13.226 18.7 13.226 33.13v19.744c0 2.066.39 4.113 1.146 6.034l.363.923A19.091 19.091 0 0 0 32.5 71.927v0"/><path stroke="#1B8CFF" stroke-linecap="round" stroke-width="3" d="M41.367 69h-4.17a3.197 3.197 0 0 0 0 6.394h4.17a3.197 3.197 0 0 0 0-6.394Z"/><path fill="#1B8CFF" stroke="#1B8CFF" stroke-linecap="round" stroke-width="3" d="M67.296 36.188h-1.807V47.03h1.807a5.42 5.42 0 1 0 0-10.842Z"/><circle cx="39.5" cy="36.5" r="21.5" fill="#D9EAFB"/></symbol><symbol xmlns="http://www.w3.org/2000/svg" id="icon-limits" fill="none" viewBox="0 0 35 36"><path fill="#43A4F3" d="M17.5 35.5c8.614 0 15.62-7.023 15.62-15.656 0-3.937-1.468-7.53-3.872-10.284l1.248-1.256 1.125 1.006 1.456-1.63L29.05 4.08l-1.456 1.63 1.269 1.134-1.163 1.17a15.505 15.505 0 0 0-9.107-3.77V2.685h3.256V.5h-8.698v2.186h3.256v1.558C8.303 4.81 1.879 11.581 1.879 19.843c0 8.634 7.007 15.657 15.62 15.657Zm0-29.125c7.407 0 13.434 6.041 13.434 13.468 0 7.428-6.027 13.47-13.434 13.47-7.407 0-13.435-6.042-13.435-13.47 0-7.427 6.028-13.468 13.435-13.468Z"/><path fill="#43A4F3" d="m27.674 24.648-9.08-7.18V8.632H16.41v9.896l9.909 7.835 1.356-1.714Z"/></symbol></defs></svg>