<svg aria-hidden="true" style="position: absolute; width: 0; height: 0; overflow: hidden;" version="1.1" xmlns="http://www.w3.org/2000/svg" xmlns:xlink="http://www.w3.org/1999/xlink">
<defs>
<symbol id="icon-advance" viewBox="0 0 32 32">
<path fill="#42a5f5" style="fill: var(--color1, #42a5f5)" d="M16 0c-6.399 0-11.605 5.206-11.605 11.605 0 3.064 1.183 5.955 3.332 8.139l0.171 0.173c0.896 0.943 1.56 2.065 1.95 3.292-0.46 0.3-0.765 0.819-0.765 1.409v1.665c0 0.875 0.671 1.595 1.526 1.674v1.117c0 1.614 1.313 2.927 2.927 2.927h4.932c1.614 0 2.927-1.313 2.927-2.927v-1.117c0.854-0.079 1.526-0.799 1.526-1.674v-1.665c0-0.589-0.305-1.108-0.765-1.409 0.389-1.223 1.049-2.341 1.941-3.282l0.18-0.183c2.149-2.184 3.332-5.074 3.332-8.139 0-6.399-5.206-11.605-11.605-11.605zM18.466 30.099h-4.932c-0.566 0-1.026-0.46-1.026-1.026v-1.109h6.983v1.109h0c0 0.565-0.46 1.026-1.026 1.026zM21.017 26.063h-10.034v-1.226h10.034v1.226zM22.972 18.356l-0.047 0.047c-1.273 1.268-2.188 2.823-2.675 4.533h-8.499c-0.487-1.71-1.402-3.265-2.675-4.533l-0.046-0.045c-1.764-1.82-2.735-4.215-2.735-6.753 0-5.351 4.353-9.704 9.704-9.704s9.704 4.353 9.704 9.704c0 2.537-0.97 4.931-2.733 6.751z"></path>
<path fill="#42a5f5" style="fill: var(--color1, #42a5f5)" d="M16 8.648c-1.631 0-2.958 1.327-2.958 2.958s1.327 2.958 2.958 2.958c1.631 0 2.958-1.327 2.958-2.958s-1.327-2.958-2.958-2.958zM16 12.662c-0.583 0-1.057-0.474-1.057-1.057s0.474-1.057 1.057-1.057 1.057 0.474 1.057 1.057c0 0.583-0.474 1.057-1.057 1.057z"></path>
<path fill="#42a5f5" style="fill: var(--color1, #42a5f5)" d="M23.751 12.556v-1.901h-1.699c-0.153-0.981-0.541-1.886-1.103-2.655l1.203-1.203-1.344-1.344-1.203 1.203c-0.769-0.562-1.674-0.949-2.655-1.103v-1.699h-1.901v1.699c-0.981 0.154-1.886 0.541-2.655 1.103l-1.203-1.203-1.344 1.344 1.203 1.203c-0.562 0.769-0.949 1.674-1.103 2.655h-1.699v1.901h1.699c0.153 0.981 0.541 1.886 1.103 2.655l-1.203 1.203 1.344 1.344 1.203-1.203c0.769 0.562 1.674 0.949 2.655 1.103v1.699h1.901v-1.699c0.981-0.153 1.886-0.541 2.655-1.103l1.203 1.203 1.344-1.344-1.203-1.203c0.562-0.769 0.949-1.674 1.103-2.655h1.699zM16 15.831c-2.33 0-4.225-1.896-4.225-4.225s1.896-4.225 4.225-4.225c2.33 0 4.225 1.895 4.225 4.225s-1.895 4.225-4.225 4.225z"></path>
</symbol>
<symbol id="icon-arrow-down" viewBox="0 0 10 7"   xmlns="http://www.w3.org/2000/svg">
<path fill-rule="evenodd" clip-rule="evenodd" d="M9.37095 1.33512L4.81605 6.37421L0.615479 1.3194L1.38458 0.680271L4.84781 4.84779L8.6291 0.664551L9.37095 1.33512Z" />
</symbol>

<symbol  id="icon-comissions" viewBox="0 0 39 40" fill="none" xmlns="http://www.w3.org/2000/svg">
<path d="M38.1945 20.0001C38.1945 19.3768 38.3701 18.6655 38.5558 17.9123C38.8677 16.648 39.2212 15.2151 38.7679 13.8188C38.2965 12.3669 37.143 11.4023 36.1252 10.5513C35.552 10.0719 35.0106 9.61924 34.6714 9.15318C34.3244 8.67626 34.0563 8.01404 33.7725 7.31292C33.2779 6.0909 32.7173 4.70584 31.4996 3.81959C30.2928 2.94131 28.8078 2.83382 27.4976 2.73918C26.7369 2.68416 26.0185 2.63214 25.4456 2.4462C24.9141 2.27366 24.3263 1.9045 23.704 1.51363C22.5743 0.804091 21.2939 0 19.7419 0C18.1899 0 16.9095 0.804091 15.7799 1.51354C15.1576 1.90432 14.5698 2.27348 14.0383 2.44611C13.4653 2.63214 12.7469 2.68407 11.9862 2.73909C10.6761 2.83382 9.19107 2.94122 7.98425 3.8195C6.76658 4.70575 6.20597 6.0909 5.71131 7.31283C5.42748 8.01395 5.15948 8.67617 4.81249 9.15309C4.47319 9.61915 3.93185 10.0719 3.35867 10.5512C2.34086 11.4022 1.18734 12.3668 0.716031 13.8185C0.262547 15.2149 0.616141 16.6479 0.928024 17.9121C1.11387 18.6654 1.28931 19.3768 1.28931 20C1.28931 20.6233 1.11387 21.3347 0.928024 22.0878C0.616141 23.3521 0.262638 24.7851 0.716031 26.1815C1.18734 27.6332 2.34095 28.5978 3.35876 29.4488C3.93194 29.9281 4.47337 30.3809 4.81258 30.8469C5.15957 31.3238 5.42757 31.986 5.7114 32.6872C6.20606 33.9093 6.76667 35.2943 7.98434 36.1805C9.19116 37.0588 10.6761 37.1663 11.9863 37.2609C12.747 37.3159 13.4654 37.368 14.0383 37.5539C14.5699 37.7265 15.1576 38.0956 15.78 38.4865C16.9096 39.1959 18.19 40 19.742 40C21.294 40 22.5743 39.1959 23.7039 38.4865C24.3262 38.0958 24.914 37.7266 25.4456 37.554C26.0186 37.3679 26.737 37.3159 27.4978 37.2609C28.8079 37.1662 30.2929 37.0588 31.4997 36.1805C32.7174 35.2943 33.278 33.9091 33.7726 32.6872C34.0564 31.986 34.3245 31.3238 34.6715 30.8469C35.0108 30.3809 35.5522 29.9281 36.1254 29.4488C37.1431 28.5978 38.2967 27.6332 38.768 26.1815C39.2215 24.7851 38.8679 23.3521 38.556 22.0878C38.3701 21.3348 38.1945 20.6234 38.1945 20.0001Z" fill="#42A5F5"/>
<path d="M24.663 11.3061C24.2281 11.0599 23.676 11.2129 23.4299 11.6477L14.4791 27.4607C14.233 27.8956 14.386 28.4477 14.8208 28.6938C14.9617 28.7735 15.1147 28.8114 15.2657 28.8114C15.5811 28.8114 15.8875 28.6462 16.0539 28.3521L25.0047 12.5391C25.2509 12.1043 25.0979 11.5522 24.663 11.3061Z" fill="white"/>
<path d="M17.4421 18.6741C17.9854 17.732 18.1292 16.6346 17.8472 15.5843C17.5652 14.534 16.891 13.6563 15.9488 13.1131C15.0068 12.5697 13.9096 12.426 12.8591 12.7079C11.8087 12.9899 10.931 13.6641 10.3878 14.6062C9.84456 15.5484 9.7007 16.6457 9.98272 17.6961C10.2647 18.7464 10.939 19.6241 11.8812 20.1674C12.5081 20.5289 13.2036 20.7135 13.9084 20.7134C14.2628 20.7134 14.6195 20.6667 14.9709 20.5724C16.0212 20.2904 16.8989 19.6163 17.4421 18.6741ZM12.785 18.5997C12.2615 18.2979 11.887 17.8103 11.7302 17.2268C11.5735 16.6433 11.6534 16.0336 11.9553 15.5102C12.257 14.9868 12.7447 14.6122 13.3282 14.4556C13.5235 14.4031 13.7216 14.3772 13.9185 14.3772C14.31 14.3772 14.6964 14.4798 15.0447 14.6806C15.5681 14.9825 15.9427 15.4701 16.0994 16.0536C16.2561 16.6372 16.1762 17.2468 15.8744 17.7701C15.5726 18.2936 15.085 18.6681 14.5014 18.8248C13.9179 18.9816 13.3084 18.9015 12.785 18.5997Z" fill="white"/>
<path d="M27.6072 19.5461C26.665 19.0029 25.5678 18.859 24.5174 19.141C23.467 19.4231 22.5894 20.0972 22.0461 21.0394C21.5029 21.9816 21.359 23.0789 21.641 24.1293C21.9231 25.1796 22.5973 26.0572 23.5394 26.6005C24.1663 26.962 24.8618 27.1467 25.5666 27.1466C25.921 27.1466 26.2777 27.0999 26.6292 27.0055C27.6796 26.7235 28.5572 26.0493 29.1004 25.1072C29.6437 24.165 29.7876 23.0677 29.5055 22.0174C29.2235 20.9671 28.5493 20.0895 27.6072 19.5461ZM27.5329 24.2033C27.2311 24.7267 26.7435 25.1013 26.16 25.2579C25.5765 25.4147 24.9668 25.3347 24.4435 25.033C23.92 24.7311 23.5455 24.2435 23.3887 23.66C23.232 23.0765 23.3119 22.4668 23.6138 21.9435C23.9155 21.42 24.4031 21.0455 24.9867 20.8888C25.182 20.8364 25.3801 20.8104 25.577 20.8104C25.9685 20.8104 26.3549 20.9131 26.7032 21.1139C27.2266 21.4157 27.6012 21.9033 27.7579 22.4869C27.9146 23.0703 27.8347 23.68 27.5329 24.2033Z" fill="white"/>
</symbol>

<symbol id="icon-crown" viewBox="0 0 32 32">
<path fill="#42a5f5" style="fill: var(--color1, #42a5f5)" d="M30.741 12.003c0.005 0.088-0.002 0.178-0.024 0.267l-1.974 7.895c-0.1 0.398-0.456 0.677-0.866 0.68l-11.843 0.060c-0.002 0-0.003 0-0.005 0h-11.843c-0.412 0-0.771-0.281-0.871-0.68l-1.974-7.925c-0.023-0.091-0.029-0.184-0.024-0.274-0.764-0.241-1.319-0.955-1.319-1.797 0-1.039 0.845-1.884 1.884-1.884s1.884 0.845 1.884 1.884c0 0.585-0.268 1.109-0.688 1.454l2.471 2.49c0.625 0.629 1.491 0.99 2.378 0.99 1.048 0 2.048-0.498 2.678-1.332l4.061-5.381c-0.341-0.341-0.552-0.812-0.552-1.331 0-1.039 0.845-1.884 1.884-1.884s1.884 0.845 1.884 1.884c0 0.504-0.2 0.961-0.523 1.3 0.001 0.001 0.002 0.003 0.003 0.004l4.032 5.396c0.629 0.842 1.632 1.345 2.684 1.345 0.895 0 1.736-0.348 2.369-0.981l2.487-2.487c-0.429-0.346-0.704-0.874-0.704-1.466 0-1.039 0.845-1.884 1.884-1.884s1.884 0.845 1.884 1.884c0 0.82-0.527 1.517-1.259 1.775zM28.551 23.716c0-0.495-0.402-0.897-0.897-0.897h-23.207c-0.495 0-0.897 0.402-0.897 0.897v2.153c0 0.495 0.402 0.897 0.897 0.897h23.207c0.495 0 0.897-0.402 0.897-0.897v-2.153z"></path>
</symbol>
<symbol id="icon-cup" viewBox="0 0 28 32">
<path fill="#42a5f5" style="fill: var(--color1, #42a5f5)" d="M22.153 0h-16.215v2.897h-5.548v4.296c0 3.086 2.489 5.597 5.548 5.597h0.097c0.512 3.354 3.046 6.029 6.299 6.735v4.636h-1.99c-0.616 0-1.108 0.503-1.108 1.118v1.471h-1.698v5.25h13.020v-5.25h-1.698v-1.471c0-0.621-0.499-1.118-1.108-1.118h-1.99v-4.636c3.26-0.706 5.787-3.387 6.299-6.735h0.097c3.059 0 5.548-2.511 5.548-5.597v-4.296h-5.548v-2.897h-0.007zM5.938 9.958c-1.51 0-2.741-1.242-2.741-2.766v-1.465h2.741v4.231zM17.727 7.957l-1.666 1.419 0.518 2.138c0.097 0.399-0.337 0.719-0.687 0.503l-1.847-1.164-1.854 1.157c-0.35 0.216-0.784-0.098-0.687-0.504l0.518-2.138-1.659-1.412c-0.311-0.268-0.149-0.785 0.259-0.811l2.171-0.157 0.83-2.040c0.156-0.386 0.693-0.386 0.849 0l0.823 2.034 2.171 0.157c0.408 0.033 0.57 0.549 0.259 0.817zM24.888 5.728v1.465c0 1.523-1.225 2.766-2.735 2.766v-4.231h2.735z"></path>
</symbol>
<symbol id="icon-document" viewBox="0 0 24 32">
<path fill="none" stroke="#0080ff" style="stroke: var(--color2, #0080ff)" stroke-linejoin="round" stroke-linecap="butt" stroke-miterlimit="4" stroke-width="0.8649" d="M23.568 13.535v13.817c0 0.903-0.359 1.769-0.997 2.408s-1.505 0.997-2.408 0.997h-15.892c-0.903 0-1.769-0.359-2.408-0.997s-0.997-1.505-0.997-2.408v-22.703c0-0.903 0.359-1.769 0.997-2.408s1.505-0.997 2.408-0.997h7.006c0.602 0 1.179 0.239 1.605 0.665l10.022 10.022c0.425 0.426 0.665 1.003 0.665 1.605z"></path>
<path fill="none" stroke="#0080ff" style="stroke: var(--color2, #0080ff)" stroke-linejoin="round" stroke-linecap="round" stroke-miterlimit="4" stroke-width="0.8649" d="M12.216 1.811v8.514c0 0.602 0.239 1.18 0.665 1.605s1.003 0.665 1.605 0.665h8.514"></path>
<path fill="none" stroke="#0080ff" style="stroke: var(--color2, #0080ff)" stroke-linejoin="round" stroke-linecap="round" stroke-miterlimit="4" stroke-width="0.8649" d="M6.541 18.27h11.351"></path>
<path fill="none" stroke="#0080ff" style="stroke: var(--color2, #0080ff)" stroke-linejoin="round" stroke-linecap="round" stroke-miterlimit="4" stroke-width="0.8649" d="M6.541 23.946h11.351"></path>
</symbol>
<symbol id="icon-height-lot" viewBox="0 0 31 32">
<path fill="#42a5f5" style="fill: var(--color1, #42a5f5)" d="M30.556 16c0-0.499 0.14-1.068 0.289-1.67 0.25-1.011 0.532-2.158 0.17-3.275-0.377-1.162-1.3-1.933-2.114-2.614-0.459-0.384-0.892-0.746-1.163-1.119-0.278-0.382-0.492-0.911-0.719-1.472-0.396-0.978-0.844-2.086-1.818-2.795-0.965-0.703-2.153-0.789-3.202-0.864-0.609-0.044-1.183-0.086-1.642-0.234-0.425-0.138-0.895-0.433-1.393-0.746-0.904-0.568-1.928-1.211-3.17-1.211s-2.266 0.643-3.17 1.211c-0.498 0.313-0.968 0.608-1.393 0.746-0.458 0.149-1.033 0.19-1.642 0.234-1.048 0.076-2.236 0.162-3.202 0.864-0.974 0.709-1.423 1.817-1.818 2.795-0.227 0.561-0.441 1.091-0.719 1.472-0.271 0.373-0.704 0.735-1.163 1.119-0.814 0.681-1.737 1.452-2.114 2.614-0.363 1.117-0.080 2.264 0.17 3.275 0.149 0.603 0.289 1.172 0.289 1.67s-0.14 1.068-0.289 1.67c-0.249 1.011-0.532 2.158-0.17 3.275 0.377 1.161 1.3 1.933 2.114 2.614 0.459 0.383 0.892 0.746 1.163 1.118 0.278 0.382 0.492 0.911 0.719 1.472 0.396 0.978 0.844 2.086 1.818 2.795 0.965 0.703 2.153 0.789 3.202 0.864 0.609 0.044 1.183 0.086 1.642 0.234 0.425 0.138 0.895 0.433 1.393 0.746 0.904 0.568 1.928 1.211 3.17 1.211s2.266-0.643 3.17-1.211c0.498-0.313 0.968-0.608 1.393-0.746 0.458-0.149 1.033-0.19 1.642-0.234 1.048-0.076 2.236-0.162 3.202-0.864 0.974-0.709 1.423-1.817 1.818-2.795 0.227-0.561 0.442-1.091 0.719-1.472 0.271-0.373 0.705-0.735 1.163-1.118 0.814-0.681 1.737-1.452 2.114-2.614 0.363-1.117 0.080-2.264-0.17-3.275-0.149-0.602-0.289-1.171-0.289-1.67zM28.736 18.19c0.198 0.8 0.384 1.556 0.213 2.084-0.184 0.567-0.795 1.078-1.442 1.619-0.539 0.451-1.097 0.917-1.526 1.507-0.434 0.597-0.71 1.277-0.976 1.934l-0 0.001c-0.314 0.777-0.611 1.51-1.083 1.854-0.464 0.337-1.249 0.394-2.080 0.454-0.711 0.051-1.446 0.105-2.156 0.335-0.681 0.221-1.29 0.603-1.878 0.972-0.719 0.452-1.398 0.878-2.015 0.878s-1.296-0.427-2.015-0.878c-0.588-0.369-1.196-0.751-1.878-0.972-0.709-0.23-1.444-0.283-2.155-0.335l-0.001-0c-0.832-0.060-1.617-0.117-2.080-0.454-0.472-0.344-0.769-1.077-1.083-1.854l-0-0.001c-0.266-0.658-0.541-1.337-0.976-1.934-0.429-0.589-0.987-1.056-1.526-1.507l-0.001-0.001c-0.646-0.541-1.257-1.051-1.441-1.618-0.171-0.528 0.015-1.284 0.213-2.084 0.173-0.702 0.352-1.428 0.352-2.19s-0.179-1.488-0.352-2.19c-0.197-0.8-0.384-1.556-0.213-2.084 0.184-0.567 0.795-1.078 1.442-1.619 0.539-0.451 1.097-0.917 1.526-1.507 0.434-0.597 0.71-1.277 0.976-1.934l0-0.001c0.314-0.777 0.611-1.51 1.083-1.854 0.463-0.337 1.249-0.394 2.080-0.454l0.001-0c0.711-0.051 1.446-0.105 2.155-0.335 0.681-0.221 1.289-0.603 1.878-0.972 0.719-0.452 1.398-0.878 2.015-0.878s1.296 0.427 2.015 0.878c0.588 0.369 1.196 0.751 1.878 0.972 0.709 0.23 1.444 0.283 2.155 0.335l0.001 0c0.832 0.060 1.617 0.117 2.080 0.454 0.472 0.344 0.769 1.077 1.083 1.854l0 0.001c0.266 0.658 0.541 1.337 0.976 1.934 0.429 0.589 0.986 1.056 1.526 1.507 0.647 0.541 1.258 1.052 1.442 1.619 0.171 0.528-0.015 1.284-0.213 2.084-0.173 0.702-0.352 1.428-0.352 2.19s0.179 1.488 0.352 2.19z"></path>
<path fill="#42a5f5" style="fill: var(--color1, #42a5f5)" d="M28.736 18.19c0.198 0.8 0.384 1.556 0.213 2.084-0.184 0.567-0.795 1.078-1.442 1.619-0.539 0.451-1.097 0.917-1.526 1.507-0.434 0.597-0.71 1.277-0.976 1.934l-0 0.001c-0.314 0.777-0.611 1.51-1.083 1.854-0.464 0.337-1.249 0.394-2.080 0.454-0.711 0.051-1.446 0.105-2.156 0.335-0.681 0.221-1.29 0.603-1.878 0.972-0.719 0.452-1.398 0.878-2.015 0.878s-1.296-0.427-2.015-0.878c-0.588-0.369-1.196-0.751-1.878-0.972-0.709-0.23-1.444-0.283-2.155-0.335l-0.001-0c-0.832-0.060-1.617-0.117-2.080-0.454-0.472-0.344-0.769-1.077-1.083-1.854l-0-0.001c-0.266-0.658-0.541-1.337-0.976-1.934-0.429-0.589-0.987-1.056-1.526-1.507l-0.001-0.001c-0.646-0.541-1.257-1.051-1.441-1.618-0.171-0.528 0.015-1.284 0.213-2.084 0.173-0.702 0.352-1.428 0.352-2.19s-0.179-1.488-0.352-2.19c-0.197-0.8-0.384-1.556-0.213-2.084 0.184-0.567 0.795-1.078 1.442-1.619 0.539-0.451 1.097-0.917 1.526-1.507 0.434-0.597 0.71-1.277 0.976-1.934l0-0.001c0.314-0.777 0.611-1.51 1.083-1.854 0.463-0.337 1.249-0.394 2.080-0.454l0.001-0c0.711-0.051 1.446-0.105 2.155-0.335 0.681-0.221 1.289-0.603 1.878-0.972 0.719-0.452 1.398-0.878 2.015-0.878s1.296 0.427 2.015 0.878c0.588 0.369 1.196 0.751 1.878 0.972 0.709 0.23 1.444 0.283 2.155 0.335l0.001 0c0.832 0.060 1.617 0.117 2.080 0.454 0.472 0.344 0.769 1.077 1.083 1.854l0 0.001c0.266 0.658 0.541 1.337 0.976 1.934 0.429 0.589 0.986 1.056 1.526 1.507 0.647 0.541 1.258 1.052 1.442 1.619 0.171 0.528-0.015 1.284-0.213 2.084-0.173 0.702-0.352 1.428-0.352 2.19s0.179 1.488 0.352 2.19z"></path>
<path fill="#fff" style="fill: var(--color3, #fff)" d="M19.73 9.045c-0.348-0.197-0.79-0.075-0.986 0.273l-7.161 12.65c-0.197 0.348-0.074 0.79 0.273 0.986 0.113 0.064 0.235 0.094 0.356 0.094 0.252 0 0.497-0.132 0.631-0.367l7.161-12.65c0.197-0.348 0.075-0.79-0.273-0.986z"></path>
<path fill="#fff" style="fill: var(--color3, #fff)" d="M13.954 14.939c0.435-0.754 0.55-1.632 0.324-2.472s-0.765-1.542-1.519-1.977c-0.754-0.435-1.631-0.55-2.472-0.324s-1.542 0.765-1.977 1.519c-0.435 0.754-0.55 1.632-0.324 2.472s0.765 1.542 1.519 1.977c0.502 0.289 1.058 0.437 1.622 0.437 0.284 0 0.569-0.037 0.85-0.113 0.84-0.226 1.542-0.765 1.977-1.519zM10.228 14.88c-0.419-0.241-0.718-0.632-0.844-1.098s-0.061-0.955 0.18-1.373c0.241-0.419 0.632-0.718 1.098-0.844 0.156-0.042 0.315-0.063 0.472-0.063 0.313 0 0.622 0.082 0.901 0.243 0.419 0.242 0.718 0.632 0.844 1.098s0.061 0.955-0.18 1.373c-0.241 0.419-0.632 0.718-1.098 0.844s-0.954 0.061-1.373-0.18z"></path>
<path fill="#fff" style="fill: var(--color3, #fff)" d="M22.086 15.637c-0.754-0.435-1.632-0.55-2.472-0.324s-1.542 0.765-1.977 1.519c-0.435 0.754-0.55 1.632-0.324 2.472s0.765 1.542 1.519 1.977c0.502 0.289 1.058 0.437 1.622 0.437 0.284 0 0.569-0.037 0.85-0.113 0.84-0.226 1.542-0.765 1.977-1.519s0.55-1.632 0.324-2.472c-0.226-0.84-0.765-1.542-1.519-1.977zM22.026 19.363c-0.241 0.419-0.632 0.718-1.098 0.844s-0.955 0.061-1.373-0.18c-0.419-0.242-0.718-0.632-0.844-1.098s-0.061-0.955 0.18-1.373c0.241-0.419 0.631-0.718 1.098-0.844 0.156-0.042 0.315-0.063 0.472-0.063 0.313 0 0.622 0.082 0.901 0.243 0.419 0.241 0.718 0.632 0.844 1.098s0.061 0.954-0.18 1.373z"></path>
</symbol>
<symbol id="icon-multy-control" viewBox="0 0 34 32">
<path fill="#42a5f5" style="fill: var(--color1, #42a5f5)" d="M2.619 4.032c0.758 0 1.372-0.62 1.372-1.386s-0.614-1.386-1.372-1.386c-0.758 0-1.372 0.62-1.372 1.386s0.614 1.386 1.372 1.386zM2.619 5.291c1.446 0 2.619-1.184 2.619-2.646s-1.173-2.646-2.619-2.646c-1.446 0-2.619 1.185-2.619 2.646s1.173 2.646 2.619 2.646zM24.941 14.11c0 0.024-0 0.049-0 0.073l0.998 0.016c0-0.030 0-0.060 0-0.090 0-6.123-4.913-11.087-10.974-11.087-2.896 0-5.53 1.133-7.491 2.984l-1.363-1.377-0.529 0.534 0.265 0.267 1.761 1.749 0.499-0.504c1.78-1.669 4.239-2.646 6.859-2.646 5.51 0 9.976 4.512 9.976 10.079zM24.861 15.394l0-0.001 0.055 0.001h2.941v0.756h-2.104c-0.403 2.187-1.441 4.148-2.914 5.681l-0.675-0.745c1.374-1.447 2.325-3.308 2.652-5.378l0.045-0.314zM12.003 23.737c0.936 0.293 1.931 0.452 2.962 0.452 2.208 0 4.666-0.747 6.306-2.298l2.079 2.242-0.546 0.517-1.428-1.54c-1.803 1.313-4.017 2.087-6.41 2.087-1.213 0-2.381-0.199-3.472-0.566l0.51-0.893zM10.322 24.159l0.501-0.877c-0.186-0.086-0.368-0.182-0.55-0.278-0.042-0.022-0.085-0.045-0.127-0.067-3.075-1.717-5.158-5.026-5.158-8.828 0-2.218 0.709-4.269 1.911-5.934l-0.748-0.673c-1.357 1.845-2.161 4.131-2.161 6.607 0 4.174 2.283 7.809 5.657 9.701l-1.010 1.766 0.648 0.378 1.029-1.8 0.008 0.004zM23.944 14.236c0 4.94-3.964 8.945-8.854 8.945s-8.854-4.005-8.854-8.945 3.964-8.945 8.854-8.945c4.89 0 8.854 4.005 8.854 8.945zM9.822 12.379c-0.223 0.619-0.345 1.287-0.345 1.983 0 3.201 2.568 5.795 5.736 5.795s5.736-2.595 5.736-5.795c0-3.201-2.568-5.795-5.736-5.795-0.925 0-1.798 0.221-2.571 0.613l4.505 4.164-2.862 3.16-4.463-4.126zM9.228 29.354c0 0.765-0.614 1.386-1.372 1.386s-1.372-0.62-1.372-1.386 0.614-1.386 1.372-1.386c0.758 0 1.372 0.62 1.372 1.386zM10.475 29.354c0 1.461-1.172 2.646-2.619 2.646s-2.619-1.184-2.619-2.646c0-1.461 1.172-2.646 2.619-2.646s2.619 1.184 2.619 2.646zM25.315 28.724c0.758 0 1.372-0.62 1.372-1.386s-0.614-1.386-1.372-1.386c-0.758 0-1.372 0.62-1.372 1.386s0.614 1.386 1.372 1.386zM25.315 29.984c1.446 0 2.619-1.184 2.619-2.646s-1.173-2.646-2.619-2.646-2.619 1.184-2.619 2.646c0 1.461 1.172 2.646 2.619 2.646zM32.673 14.236c0 0.765-0.614 1.386-1.372 1.386s-1.372-0.62-1.372-1.386 0.614-1.386 1.372-1.386c0.758 0 1.372 0.62 1.372 1.386zM33.92 14.236c0 1.461-1.172 2.646-2.619 2.646s-2.619-1.184-2.619-2.646c0-1.461 1.172-2.646 2.619-2.646s2.619 1.184 2.619 2.646z"></path>
</symbol>
<symbol id="icon-payment" viewBox="0 0 29 32">
<path fill="#42a5f5" style="fill: var(--color1, #42a5f5)" d="M20.58 21.62c-0.169 0-0.336 0.034-0.492 0.099 0 0-0.449 0.191-1.163 0.425-0.995 0.232-2.015 0.342-3.037 0.326-1.562-0.007-3.119-0.169-4.649-0.484-0.086-0.017-0.174-0.027-0.262-0.028-0.305 0.001-0.599 0.111-0.83 0.31-0.94 0.751-2.064 1.237-3.256 1.405-2.219 0.262-5.614 0.278-5.65 0.278-0.358 0.003-0.697 0.159-0.932 0.428s-0.344 0.627-0.299 0.981c0.138 1.071 0.348 2.133 0.627 3.176 0.079 0.254 0.237 0.477 0.451 0.634s0.474 0.243 0.74 0.243h0.103l6.483-0.552c2.743 0.429 5.614 2.406 5.642 2.426h0c0.209 0.147 0.459 0.226 0.715 0.226h0.131l8.58-0.905c0.215-0.018 0.422-0.094 0.599-0.218l4.038-2.72c0.369-0.25 0.576-0.678 0.544-1.123s-0.3-0.838-0.701-1.032c-0.401-0.194-0.875-0.159-1.244 0.091l-3.696 2.505c-6.908-0.425-8.23-1.926-8.472-2.382h0c-0.029-0.054-0.051-0.111-0.068-0.171 1.779-0.124 3.535-0.469 5.229-1.028 0.488-0.134 0.964-0.31 1.422-0.528 0.353-0.16 0.612-0.474 0.7-0.851s-0.004-0.774-0.249-1.074c-0.245-0.3-0.616-0.469-1.003-0.457h-0.001z"></path>
<path fill="none" stroke="#42a5f5" style="stroke: var(--color1, #42a5f5)" stroke-linejoin="miter" stroke-linecap="butt" stroke-miterlimit="4" stroke-width="1.3333" d="M26 10.333c0 5.339-4.328 9.667-9.667 9.667s-9.667-4.328-9.667-9.667c0-5.339 4.328-9.667 9.667-9.667s9.667 4.328 9.667 9.667z"></path>
<path fill="#42a5f5" style="fill: var(--color1, #42a5f5)" d="M15.871 16.403v-1.068c-0.717-0.066-1.4-0.339-1.964-0.787s-0.986-1.051-1.212-1.735c-0.052-0.166-0.032-0.346 0.055-0.497s0.233-0.259 0.402-0.297l0.58-0.139c0.373-0.090 0.756 0.108 0.897 0.465 0.274 0.691 0.913 1.227 2.013 1.227 1.004 0 1.588-0.481 1.588-1.159 0-0.528-0.397-0.929-1.163-1.1l-1.421-0.31c-1.671-0.369-2.708-1.421-2.708-2.906 0-1.64 1.271-2.847 2.926-3.109v-1.112c-0-0.299 0.241-0.542 0.54-0.544h0.489c0.3 0 0.544 0.243 0.544 0.544v1.159c1.063 0.15 1.987 0.808 2.477 1.763 0.101 0.196 0.11 0.426 0.023 0.628s-0.26 0.355-0.472 0.416l-0.444 0.127c-0.365 0.107-0.754-0.059-0.929-0.397-0.153-0.272-0.38-0.495-0.655-0.643s-0.586-0.214-0.897-0.191c-0.989 0-1.533 0.572-1.533 1.191 0 0.48 0.341 0.882 1.068 1.036l1.409 0.326c1.949 0.433 2.831 1.588 2.831 2.982s-1.024 2.74-2.879 3.033v1.084l0-0c0 0.156-0.062 0.305-0.172 0.415s-0.26 0.172-0.415 0.172h-0.397c-0.318-0.002-0.575-0.258-0.58-0.576v0z"></path>
</symbol>
 <symbol id="icon-personal-manager" viewBox="0 0 43 42" fill="none" xmlns="http://www.w3.org/2000/svg">
<path d="M10.1481 29.3754C7.47762 29.3754 5.78619 25.1917 5.78619 23.0553C5.78619 20.6518 7.74467 18.6934 10.1481 18.6934C12.5516 18.6934 14.5101 20.6518 14.5101 23.0553C14.5101 25.2808 12.8187 29.3754 10.1481 29.3754ZM10.1481 20.4742C8.72376 20.4742 7.56674 21.6315 7.56674 23.0556C7.56674 24.8359 8.99112 27.5955 10.1481 27.5955C11.3055 27.5955 12.7295 24.747 12.7295 23.0556C12.7298 21.6312 11.5725 20.4742 10.1481 20.4742Z" fill="#42A5F5"/>
<path d="M10.1481 20.4742C8.72376 20.4742 7.56674 21.6315 7.56674 23.0556C7.56674 24.8359 8.99112 27.5955 10.1481 27.5955C11.3055 27.5955 12.7295 24.747 12.7295 23.0556C12.7298 21.6312 11.5725 20.4742 10.1481 20.4742Z" fill="#42A5F5"/>
<path d="M10.1481 41.8385C6.9435 41.8385 3.73888 41.5715 0.712036 40.9483L0 40.7703V38.5448C0 36.8534 0.534104 35.2511 1.51319 33.9158C2.5817 32.4026 4.00578 31.4235 5.78632 31.0674C6.49836 30.8894 7.29951 31.1565 8.18979 31.4235C8.90182 31.6906 9.52505 31.8685 10.2371 31.8685C10.8603 31.8685 11.5723 31.6015 12.2844 31.4235C13.0855 31.1565 13.9758 30.8894 14.6878 31.0674C16.3793 31.4235 17.8925 32.4026 18.9607 33.9158C19.9398 35.2511 20.4739 36.9425 20.4739 38.5448V40.7703L19.7618 40.9483C16.5572 41.5715 13.3527 41.8385 10.1481 41.8385Z" fill="#42A5F5"/>
<path d="M31.6908 10.6821C29.0203 10.6821 27.3289 6.49836 27.3289 4.36195C27.3289 1.95848 29.2873 0 31.6908 0C34.0943 0 36.0527 1.95848 36.0527 4.36195C36.0525 6.58748 34.3613 10.6821 31.6908 10.6821ZM31.6908 1.78085C30.2664 1.78085 29.1094 2.93818 29.1094 4.36225C29.1094 6.14249 30.5338 8.90213 31.6908 8.90213C32.8481 8.90213 34.2722 6.05368 34.2722 4.36225C34.2722 2.93787 33.1149 1.78085 31.6908 1.78085Z" fill="#42A5F5"/>
<path d="M31.6908 1.78085C30.2664 1.78085 29.1094 2.93818 29.1094 4.36225C29.1094 6.14249 30.5338 8.90213 31.6908 8.90213C32.8481 8.90213 34.2722 6.05368 34.2722 4.36225C34.2722 2.93787 33.1149 1.78085 31.6908 1.78085Z" fill="#42A5F5"/>
<path d="M31.6908 23.1452C28.4862 23.1452 25.2815 22.8781 22.2547 22.2549L21.5427 22.077V19.8514C21.5427 18.16 22.0768 16.5577 23.0559 15.2224C24.1241 13.7093 25.6373 12.7299 27.3287 12.374C28.0407 12.1961 28.8419 12.4631 29.7321 12.7302C30.4442 12.9972 31.0674 13.1752 31.7794 13.1752C32.4027 13.1752 33.1147 12.9081 33.8267 12.7302C34.6279 12.4631 35.5182 12.1961 36.2302 12.374C37.9216 12.7302 39.4348 13.7093 40.503 15.2224C41.4821 16.5577 42.0162 18.2491 42.0162 19.8514V22.077L41.3042 22.2549C38.0999 22.8781 34.8957 23.1452 31.6908 23.1452Z" fill="#42A5F5"/>
<path d="M36.1414 36.0518H30.8895V34.2716H34.3611V25.3696H36.1414V36.0518Z" fill="#42A5F5"/>
<path d="M31.3345 38.3672V31.958L28.1299 35.1626L31.3345 38.3672Z" fill="#42A5F5"/>
<path d="M6.14236 15.1331H4.36212V7.12158H12.2844V8.90183H6.14221L6.14236 15.1331Z" fill="#42A5F5"/>
<path d="M11.8397 11.2159V4.80664L15.0443 8.01126L11.8397 11.2159Z" fill="#42A5F5"/>
</symbol>
<symbol id="icon-revenue-share" viewBox="0 0 23 32">
<path fill="#42a5f5" style="fill: var(--color1, #42a5f5); stroke: var(--color1, #42a5f5)" stroke="#42a5f5" stroke-linejoin="miter" stroke-linecap="butt" stroke-miterlimit="4" stroke-width="0.9412" d="M7.95 0.528l0.002 0c1.075 0.232 2.257 0.357 3.508 0.357 1.247 0 2.424-0.124 3.509-0.383 1.068-0.211 2.019 0.641 1.899 1.682-0.004 0.022-0.006 0.040-0.007 0.046-0 0.001-0 0.001-0 0.002l-0.004 0.033-0.005 0.037c-0.007 0.053-0.017 0.124-0.033 0.213-0.032 0.179-0.089 0.435-0.194 0.753-0.198 0.598-0.568 1.423-1.272 2.376h-7.841c-1.19-1.452-1.45-3.215-1.483-3.442-0-0.003-0.001-0.006-0.001-0.009-0.126-1.019 0.852-1.901 1.923-1.665z"></path>
<path fill="#42a5f5" style="fill: var(--color1, #42a5f5); stroke: var(--color1, #42a5f5)" stroke="#42a5f5" stroke-linejoin="miter" stroke-linecap="butt" stroke-miterlimit="4" stroke-width="0.9412" d="M8.651 24.543l0.001 0.001c0.392 0.416 0.864 0.733 1.38 0.941v0.341c0 0.799 0.647 1.446 1.446 1.446s1.446-0.647 1.446-1.446v-0.34c1.425-0.571 2.432-1.965 2.439-3.593v-0.002c0-2.141-1.738-3.879-3.879-3.879-0.542 0-0.986-0.444-0.986-0.986s0.444-0.986 0.986-0.986c0.28 0 0.534 0.112 0.722 0.313v0l0.003 0.003c0.553 0.581 1.465 0.598 2.042 0.058h0l0.003-0.003c0.581-0.553 0.598-1.465 0.058-2.042l-0.001-0.001c-0.392-0.416-0.864-0.733-1.38-0.941v-0.341c0-0.799-0.647-1.446-1.446-1.446s-1.446 0.647-1.446 1.446v0.341c-1.424 0.576-2.433 1.97-2.433 3.6 0 2.141 1.738 3.879 3.879 3.879 0.542 0 0.986 0.444 0.986 0.986s-0.444 0.986-0.986 0.986c-0.28 0-0.534-0.112-0.722-0.313l-0-0c-0.553-0.591-1.467-0.608-2.045-0.067l-0 0c-0.591 0.553-0.608 1.467-0.067 2.045zM7.109 7.94h8.688c1.787 1.413 3.324 3.582 4.426 6.044 1.126 2.516 1.78 5.301 1.793 7.826-0 3.412-1.183 5.671-3.040 7.093-1.879 1.438-4.514 2.070-7.497 2.070-2.985 0-5.62-0.624-7.498-2.058-1.856-1.418-3.040-3.677-3.040-7.105 0-2.525 0.648-5.31 1.768-7.826 1.095-2.461 2.626-4.631 4.4-6.043z"></path>
</symbol>

 <symbol id="icon-step-3" viewBox="0 0 72 74" fill="none" xmlns="http://www.w3.org/2000/svg">
<path fill-rule="evenodd" clip-rule="evenodd" d="M34.7367 15.5309C34.7367 22.7628 28.8565 28.6255 21.6029 28.6255C14.3493 28.6255 8.46913 22.7628 8.46913 15.5309C8.46913 8.29889 14.3493 2.43621 21.6029 2.43621C28.8565 2.43621 34.7367 8.29889 34.7367 15.5309ZM37.1802 15.5309C37.1802 24.1083 30.206 31.0617 21.6029 31.0617C12.9998 31.0617 6.02564 24.1083 6.02564 15.5309C6.02564 6.9534 12.9998 0 21.6029 0C30.206 0 37.1802 6.9534 37.1802 15.5309ZM1.58595 32.7258C3.70054 30.6175 7.12899 30.6175 9.24358 32.7258L18.4713 41.9261C19.1214 42.5742 20.003 42.9383 20.9223 42.9383H32.2932C33.1366 42.9383 33.8204 42.2566 33.8204 41.4156C33.8204 40.5747 33.1366 39.893 32.2932 39.893H23.4355C21.0739 39.893 19.1594 37.9842 19.1594 35.6296C19.1594 33.275 21.0739 31.3663 23.4355 31.3663H39.9291C40.3342 31.3663 40.7226 31.5267 41.009 31.8122L56.2809 47.0386L59.9352 50.6821L63.5896 47.0386C64.186 46.4439 65.153 46.4439 65.7494 47.0386L71.5527 52.8246C72.1491 53.4192 72.1491 54.3833 71.5527 54.9779L52.9211 73.554C52.3246 74.1487 51.3577 74.1487 50.7613 73.554L44.958 67.768C44.3616 67.1734 44.3616 66.2093 44.958 65.6147L48.3069 62.2757L44.5657 58.5456C42.5609 56.5468 39.8418 55.4239 37.0065 55.4239H17.3268C16.9218 55.4239 16.5333 55.2634 16.2469 54.9779L1.58595 40.3606C-0.528648 38.2523 -0.52865 34.8341 1.58595 32.7258ZM7.08381 34.8791C6.16202 33.9601 4.6675 33.9601 3.74571 34.8791C2.82392 35.7982 2.82392 37.2882 3.74571 38.2073L17.9594 52.3786H37.0065C40.6519 52.3786 44.1479 53.8224 46.7255 56.3923L50.033 59.6899L54.1565 55.8357L54.1589 55.8334L57.5849 52.6454L54.1211 49.1919L39.2965 34.4115H23.4355C22.7608 34.4115 22.2138 34.9569 22.2138 35.6296C22.2138 36.3024 22.7608 36.8477 23.4355 36.8477H32.2932C34.8235 36.8477 36.8748 38.8929 36.8748 41.4156C36.8748 43.9384 34.8235 45.9835 32.2932 45.9835H20.9223C19.1929 45.9835 17.5344 45.2986 16.3116 44.0794L7.08381 34.8791ZM64.6695 50.2686L51.3939 63.5047L48.1976 66.6914L51.8412 70.324L68.313 53.9012L64.6695 50.2686ZM21.9084 22.535C25.9569 22.535 29.2388 19.2628 29.2388 15.2263C29.2388 11.1899 25.9569 7.9177 21.9084 7.9177C17.8598 7.9177 14.5779 11.1899 14.5779 15.2263C14.5779 19.2628 17.8598 22.535 21.9084 22.535ZM21.9084 24.3621C26.969 24.3621 31.0715 20.2719 31.0715 15.2263C31.0715 10.1808 26.969 6.09054 21.9084 6.09054C16.8477 6.09054 12.7452 10.1808 12.7452 15.2263C12.7452 20.2719 16.8477 24.3621 21.9084 24.3621ZM22.1006 11.9319V10.963H21.4255V11.9183C21.1424 11.9462 20.8871 12.0163 20.6594 12.1286C20.3593 12.275 20.1242 12.4842 19.9539 12.7562C19.7837 13.0282 19.6986 13.3494 19.6986 13.72C19.6986 14.1086 19.7779 14.4298 19.9366 14.6839C20.0953 14.9349 20.316 15.1456 20.5988 15.316C20.8845 15.4834 21.2148 15.6418 21.5899 15.7912C21.8121 15.8779 21.9881 15.9675 22.118 16.0602C22.2507 16.1528 22.3459 16.2589 22.4036 16.3785C22.4642 16.498 22.4945 16.643 22.4945 16.8133C22.4945 16.9658 22.4628 17.1032 22.3993 17.2258C22.3387 17.3453 22.2478 17.4395 22.1266 17.5082C22.0083 17.5769 21.8568 17.6113 21.6722 17.6113C21.5539 17.6113 21.437 17.5934 21.3216 17.5575C21.2062 17.5217 21.1023 17.4619 21.01 17.3782C20.9205 17.2915 20.8484 17.1765 20.7936 17.033C20.7387 16.8866 20.7113 16.7042 20.7113 16.4861H19.4649C19.4649 16.8866 19.5283 17.2243 19.6553 17.4992C19.7822 17.7712 19.9525 17.9894 20.166 18.1538C20.3795 18.3181 20.6176 18.4377 20.8801 18.5124C21.034 18.5544 21.1884 18.5842 21.3432 18.6016V19.4897H22.0184V18.602C22.2883 18.573 22.5335 18.5088 22.7542 18.4093C23.0658 18.2658 23.3082 18.0596 23.4813 17.7906C23.6544 17.5187 23.741 17.1899 23.741 16.8044C23.741 16.4158 23.6616 16.096 23.5029 15.845C23.3442 15.5939 23.1235 15.3818 22.8407 15.2084C22.558 15.0351 22.229 14.8737 21.8539 14.7242C21.6231 14.6256 21.4413 14.53 21.3086 14.4373C21.1759 14.3417 21.0821 14.2371 21.0273 14.1235C20.9753 14.0099 20.9494 13.8769 20.9494 13.7245C20.9494 13.5691 20.9739 13.4316 21.023 13.3121C21.0749 13.1895 21.1571 13.0924 21.2697 13.0207C21.3822 12.949 21.5265 12.9131 21.7025 12.9131C21.8208 12.9131 21.929 12.937 22.0271 12.9848C22.1252 13.0296 22.2088 13.0984 22.2781 13.191C22.3502 13.2837 22.405 13.3987 22.4426 13.5362C22.4801 13.6737 22.4988 13.8321 22.4988 14.0114H23.741C23.741 13.6767 23.6934 13.3793 23.5981 13.1193C23.5029 12.8593 23.3659 12.6396 23.187 12.4603C23.0081 12.278 22.7946 12.1405 22.5464 12.0479C22.4069 11.9941 22.2584 11.9555 22.1006 11.9319Z" fill="#42A5F5"/>
</symbol>

<symbol id="icon-step-1" viewBox="0 0 48 74" fill="none" xmlns="http://www.w3.org/2000/svg">
<path d="M44.8219 7.45652H34.0581V2.45857C34.0581 1.10078 32.9573 0 31.5995 0H16.1113C14.7536 0 13.6528 1.10078 13.6528 2.45857V7.45652H2.8885C1.53072 7.45652 0.429932 8.5573 0.429932 9.91509V71.5416C0.429932 72.8994 1.53072 74.0002 2.8885 74.0002H44.8219C46.1797 74.0002 47.2804 72.8994 47.2804 71.5416V9.91509C47.2804 8.55713 46.1798 7.45652 44.8219 7.45652ZM18.5698 4.91714H29.1408V13.2756H18.5698V4.91714V4.91714ZM42.3633 69.0829H5.34707V12.3737H13.6526V15.7342C13.6526 17.092 14.7534 18.1928 16.1112 18.1928H31.5994C32.9571 18.1928 34.0579 17.092 34.0579 15.7342V12.3737H42.3633V69.0829V69.0829Z" fill="#42A5F5"/>
<path d="M16.3513 51.5707H31.3596C32.2647 51.5707 32.9986 50.8369 32.9986 49.9317V46.2192C32.9986 43.1149 31.4422 40.3686 29.0698 38.7152C31.442 37.0617 32.9986 34.3155 32.9986 31.211C32.9986 26.1694 28.8971 22.0679 23.8554 22.0679C18.8138 22.0679 14.7123 26.1694 14.7123 31.211C14.7123 34.3153 16.2687 37.0617 18.6409 38.7152C16.2687 40.3686 14.7123 43.1149 14.7123 46.2192V49.9317C14.7123 50.8369 15.4461 51.5707 16.3513 51.5707ZM17.9904 31.211C17.9904 27.977 20.6214 25.346 23.8554 25.346C27.0894 25.346 29.7205 27.977 29.7205 31.211C29.7205 34.445 27.0894 37.0761 23.8554 37.0761C20.6214 37.0761 17.9904 34.445 17.9904 31.211ZM17.9904 46.2192C17.9904 42.9852 20.6214 40.3542 23.8554 40.3542C27.0894 40.3542 29.7205 42.9852 29.7205 46.2192V48.2926H17.9904V46.2192Z" fill="#42A5F5"/>
<path d="M13.4069 54.6597C12.5017 54.6597 11.7679 55.3935 11.7679 56.2987C11.7679 57.204 12.5017 57.9378 13.4069 57.9378H34.3036C35.2087 57.9378 35.9427 57.204 35.9427 56.2987C35.9427 55.3935 35.2087 54.6597 34.3036 54.6597H13.4069Z" fill="#42A5F5"/>
<path d="M34.3038 60.8057H13.4069C12.5017 60.8057 11.7679 61.5395 11.7679 62.4447C11.7679 63.35 12.5017 64.0838 13.4069 64.0838H34.3036C35.2087 64.0838 35.9427 63.35 35.9427 62.4447C35.9427 61.5395 35.2089 60.8057 34.3038 60.8057Z" fill="#42A5F5"/>
</symbol>

 <symbol id="icon-step-2" width="81" height="60" viewBox="0 0 81 60" fill="none" xmlns="http://www.w3.org/2000/svg">
<path fill-rule="evenodd" clip-rule="evenodd" d="M59.7525 7.04543C59.7525 10.3978 57.0252 13.125 53.6728 13.125C50.3205 13.125 47.5931 10.3978 47.5931 7.04543C47.5931 3.69307 50.3205 0.96582 53.6728 0.96582C57.0252 0.96582 59.7525 3.69307 59.7525 7.04543ZM56.846 7.04543C56.846 5.29576 55.4225 3.8724 53.6728 3.8724C51.9232 3.8724 50.4997 5.29576 50.4997 7.04543C50.4997 8.79509 51.9232 10.2184 53.6728 10.2184C55.4225 10.2184 56.846 8.79509 56.846 7.04543ZM42.5309 27.1735C42.5309 21.0299 47.5292 16.0316 53.6728 16.0316C59.8165 16.0316 64.8147 21.0299 64.8147 27.1735C64.8147 27.9761 64.1641 28.6268 63.3615 28.6268H43.9842C43.1816 28.6268 42.5309 27.9761 42.5309 27.1735ZM53.6728 18.9382C49.6276 18.9382 46.2544 21.8701 45.5659 25.7202H61.7798C61.0913 21.8701 57.718 18.9382 53.6728 18.9382ZM28.9513 11.6351C28.9513 10.5305 29.8467 9.63512 30.9513 9.63512H41.2254C42.3299 9.63512 43.2254 10.5305 43.2254 11.6351C43.2254 12.7397 42.3299 13.6351 41.2254 13.6351H32.9513V37.8888H58.8099C59.3403 37.8888 59.849 38.0996 60.2241 38.4746L66.4912 44.7418V39.8888C66.4912 38.7843 67.3866 37.8888 68.4912 37.8888H76.5677V13.6351H63.5518C62.4472 13.6351 61.5518 12.7397 61.5518 11.6351C61.5518 10.5305 62.4472 9.63512 63.5518 9.63512H78.5677C79.6723 9.63512 80.5677 10.5305 80.5677 11.6351V39.8888C80.5677 40.9934 79.6723 41.8888 78.5677 41.8888H70.4912V49.5702C70.4912 50.3791 70.0039 51.1084 69.2566 51.4179C68.5092 51.7275 67.649 51.5564 67.077 50.9844L57.9814 41.8888H49.7911C49.889 42.1248 49.9431 42.3836 49.9431 42.655V47.3969C49.9431 48.5014 49.0476 49.3969 47.9431 49.3969H25.2596L15.5713 59.0852C14.9994 59.6572 14.1391 59.8283 13.3918 59.5187C12.6444 59.2092 12.1571 58.4799 12.1571 57.671V49.3969H2.5C1.39543 49.3969 0.5 48.5014 0.5 47.3969V16.1795C0.5 15.0749 1.39543 14.1795 2.5 14.1795H25.6167C26.7213 14.1795 27.6167 15.0749 27.6167 16.1795C27.6167 17.284 26.7213 18.1795 25.6167 18.1795H4.5V45.3969H14.1571C15.2617 45.3969 16.1571 46.2923 16.1571 47.3969V52.8425L23.017 45.9827C23.3921 45.6076 23.9008 45.3969 24.4312 45.3969H45.9431V42.655C45.9431 42.3836 45.9971 42.1248 46.0951 41.8888H30.9513C29.8467 41.8888 28.9513 40.9934 28.9513 39.8888V11.6351Z" fill="#42A5F5"/>
</symbol>



<symbol id="icon-step-3" viewBox="0 0 138 137" fill="none" xmlns="http://www.w3.org/2000/svg">
<circle cx="69" cy="68.5" r="66" stroke="#4CD7AB" stroke-width="5"/>
<path fill-rule="evenodd" clip-rule="evenodd" d="M67.7367 47.5309C67.7367 54.7628 61.8565 60.6255 54.6029 60.6255C47.3493 60.6255 41.4691 54.7628 41.4691 47.5309C41.4691 40.2989 47.3493 34.4362 54.6029 34.4362C61.8565 34.4362 67.7367 40.2989 67.7367 47.5309ZM70.1802 47.5309C70.1802 56.1083 63.206 63.0617 54.6029 63.0617C45.9998 63.0617 39.0256 56.1083 39.0256 47.5309C39.0256 38.9534 45.9998 32 54.6029 32C63.206 32 70.1802 38.9534 70.1802 47.5309ZM34.5859 64.7258C36.7005 62.6175 40.129 62.6175 42.2436 64.7258L51.4713 73.9261C52.1214 74.5742 53.003 74.9383 53.9223 74.9383H65.2932C66.1366 74.9383 66.8204 74.2566 66.8204 73.4156C66.8204 72.5747 66.1366 71.893 65.2932 71.893H56.4355C54.0739 71.893 52.1594 69.9842 52.1594 67.6296C52.1594 65.275 54.0739 63.3663 56.4355 63.3663H72.9291C73.3342 63.3663 73.7226 63.5267 74.009 63.8122L89.2809 79.0386L92.9352 82.6821L96.5896 79.0386C97.186 78.4439 98.153 78.4439 98.7494 79.0386L104.553 84.8246C105.149 85.4192 105.149 86.3833 104.553 86.9779L85.9211 105.554C85.3246 106.149 84.3577 106.149 83.7613 105.554L77.958 99.768C77.3616 99.1734 77.3616 98.2093 77.958 97.6147L81.3069 94.2757L77.5657 90.5456C75.5609 88.5468 72.8418 87.4239 70.0065 87.4239H50.3268C49.9218 87.4239 49.5333 87.2634 49.2469 86.9779L34.5859 72.3606C32.4714 70.2523 32.4713 66.8341 34.5859 64.7258ZM40.0838 66.8791C39.162 65.9601 37.6675 65.9601 36.7457 66.8791C35.8239 67.7982 35.8239 69.2882 36.7457 70.2073L50.9594 84.3786H70.0065C73.6519 84.3786 77.1479 85.8224 79.7255 88.3923L83.033 91.6899L87.1565 87.8357L87.1589 87.8334L90.5849 84.6454L87.1211 81.1919L72.2965 66.4115H56.4355C55.7608 66.4115 55.2138 66.9569 55.2138 67.6296C55.2138 68.3024 55.7608 68.8477 56.4355 68.8477H65.2932C67.8235 68.8477 69.8748 70.8929 69.8748 73.4156C69.8748 75.9384 67.8235 77.9835 65.2932 77.9835H53.9223C52.1929 77.9835 50.5344 77.2986 49.3116 76.0794L40.0838 66.8791ZM97.6695 82.2686L84.3939 95.5046L81.1976 98.6914L84.8412 102.324L101.313 85.9012L97.6695 82.2686ZM54.9084 54.535C58.9569 54.535 62.2388 51.2628 62.2388 47.2263C62.2388 43.1899 58.9569 39.9177 54.9084 39.9177C50.8598 39.9177 47.5779 43.1899 47.5779 47.2263C47.5779 51.2628 50.8598 54.535 54.9084 54.535ZM54.9084 56.3621C59.969 56.3621 64.0715 52.2719 64.0715 47.2263C64.0715 42.1808 59.969 38.0905 54.9084 38.0905C49.8477 38.0905 45.7452 42.1808 45.7452 47.2263C45.7452 52.2719 49.8477 56.3621 54.9084 56.3621ZM55.1006 43.9319V42.963H54.4255V43.9183C54.1424 43.9462 53.8871 44.0163 53.6594 44.1286C53.3593 44.275 53.1242 44.4842 52.9539 44.7562C52.7837 45.0282 52.6986 45.3494 52.6986 45.72C52.6986 46.1086 52.7779 46.4298 52.9366 46.6839C53.0953 46.9349 53.316 47.1456 53.5988 47.316C53.8845 47.4834 54.2148 47.6418 54.5899 47.7912C54.8121 47.8779 54.9881 47.9675 55.118 48.0602C55.2507 48.1528 55.3459 48.2589 55.4036 48.3785C55.4642 48.498 55.4945 48.643 55.4945 48.8133C55.4945 48.9658 55.4628 49.1032 55.3993 49.2258C55.3387 49.3453 55.2478 49.4395 55.1266 49.5082C55.0083 49.5769 54.8568 49.6113 54.6722 49.6113C54.5539 49.6113 54.437 49.5934 54.3216 49.5575C54.2062 49.5217 54.1023 49.4619 54.01 49.3782C53.9205 49.2915 53.8484 49.1765 53.7936 49.033C53.7387 48.8866 53.7113 48.7042 53.7113 48.4861H52.4649C52.4649 48.8866 52.5283 49.2243 52.6553 49.4992C52.7822 49.7712 52.9525 49.9894 53.166 50.1538C53.3795 50.3181 53.6176 50.4377 53.8801 50.5124C54.034 50.5544 54.1884 50.5842 54.3432 50.6016V51.4897H55.0184V50.602C55.2883 50.573 55.5335 50.5088 55.7542 50.4093C56.0658 50.2658 56.3082 50.0596 56.4813 49.7906C56.6544 49.5187 56.741 49.1899 56.741 48.8044C56.741 48.4158 56.6616 48.096 56.5029 47.845C56.3442 47.5939 56.1235 47.3817 55.8407 47.2084C55.558 47.0351 55.229 46.8737 54.8539 46.7242C54.6231 46.6256 54.4413 46.53 54.3086 46.4373C54.1759 46.3417 54.0821 46.2371 54.0273 46.1235C53.9753 46.0099 53.9494 45.8769 53.9494 45.7245C53.9494 45.5691 53.9739 45.4316 54.023 45.3121C54.0749 45.1895 54.1571 45.0924 54.2697 45.0207C54.3822 44.949 54.5265 44.9131 54.7025 44.9131C54.8208 44.9131 54.929 44.937 55.0271 44.9848C55.1252 45.0296 55.2088 45.0984 55.2781 45.191C55.3502 45.2837 55.405 45.3987 55.4426 45.5362C55.4801 45.6737 55.4988 45.8321 55.4988 46.0114H56.741C56.741 45.6767 56.6934 45.3793 56.5981 45.1193C56.5029 44.8593 56.3659 44.6396 56.187 44.4603C56.0081 44.278 55.7946 44.1405 55.5464 44.0479C55.4069 43.9941 55.2584 43.9555 55.1006 43.9319Z" fill="#42A5F5"/>
</symbol>


<symbol id="icon-support" viewBox="0 0 39 32">
<path fill="#42a5f5" style="fill: var(--color1, #42a5f5)" d="M19.103 3.368c-6.52 0-11.789 5.269-11.789 11.789s5.269 11.789 11.789 11.789c6.52 0 11.789-5.269 11.789-11.789s-5.269-11.789-11.789-11.789zM19.103 4.374c0.582 0 1.15 0.048 1.708 0.135l-1.087 1.896-4.143 1.978-1.641 1.15-4.86 1.631c1.583-3.984 5.466-6.79 10.023-6.79zM25.936 23.507c-1.857 1.521-4.239 2.435-6.838 2.435-5.967 0-10.779-4.812-10.779-10.784 0-0.962 0.125-1.896 0.361-2.781l5.726-1.92 1.694-1.184 4.35-2.084 1.41-2.464c0.688 0.178 1.347 0.428 1.968 0.731v1.747l-1.189 1.857v2.353l-1.694 3.859 1.458 1.949h3.532v6.285zM26.961 22.554v-6.352h-4.042l-0.794-1.063 1.54-3.508v-2.271l1.189-1.853v-1.482c3.027 1.906 5.033 5.279 5.033 9.133 0 2.868-1.112 5.466-2.926 7.396z"></path>
<path fill="#42a5f5" style="fill: var(--color1, #42a5f5)" d="M26.961 22.554v-6.352h-4.042l-0.794-1.063 1.54-3.508v-2.271l1.189-1.853v-1.482c3.027 1.906 5.033 5.279 5.033 9.133 0 2.868-1.112 5.466-2.926 7.396z"></path>
<path fill="#42a5f5" style="fill: var(--color1, #42a5f5)" d="M19.103 4.374c0.582 0 1.15 0.048 1.708 0.135l-1.087 1.896-4.143 1.978-1.641 1.15-4.86 1.631c1.583-3.984 5.466-6.79 10.023-6.79z"></path>
<path fill="#42a5f5" style="fill: var(--color1, #42a5f5)" d="M13.733 13.7l-2.011 1.91v1.651l1.838 3.176 1.059 3.802 3.744-0.823 0.703-2.411 1.049-1.444v-2.541l-2.223-0.467-4.158-2.853zM19.098 19.234h-0.005l-0.958 1.314-0.582 2.002-2.209 0.486-0.837-2.998-1.766-3.051v-0.938l1.097-1.039 3.648 2.502 1.612 0.337v1.386z"></path>
<path fill="#42a5f5" style="fill: var(--color1, #42a5f5)" d="M19.098 19.234h-0.005l-0.958 1.314-0.582 2.002-2.209 0.486-0.837-2.998-1.766-3.051v-0.938l1.097-1.039 3.648 2.502 1.612 0.337v1.386z"></path>
<path fill="#42a5f5" style="fill: var(--color1, #42a5f5)" d="M18.682 29.468c0.003-1.16 0.945-2.099 2.105-2.099 1.163 0 2.105 0.943 2.105 2.105s-0.943 2.105-2.105 2.105c-0.876 0-1.628-0.536-1.945-1.297-0.050 0.020-0.104 0.030-0.162 0.029-6.929-0.189-12.697-5.029-14.295-11.51h-0.149c-2.34 0-4.236-1.897-4.236-4.236s1.897-4.236 4.236-4.236h0.495c2.017-6.003 7.689-10.327 14.372-10.327 6.441 0 11.944 4.018 14.139 9.684h0.566c2.429 0 4.397 1.969 4.397 4.397 0 2.285-1.75 4.189-4.027 4.382l-0.54 0.046c-0.037 0.011-0.075 0.017-0.115 0.017-0.017 0-0.034-0.001-0.050-0.003l-0.019 0.002-0-0.004c-0.22-0.039-0.371-0.257-0.324-0.485 0.19-0.93 0.289-1.892 0.289-2.877 0-7.906-6.409-14.316-14.316-14.316s-14.316 6.409-14.316 14.316c0 7.765 6.183 14.086 13.894 14.31 0 0 0.001 0 0.001 0zM34.023 17.632l0.085-0.007c1.841-0.156 3.256-1.695 3.256-3.543 0-1.964-1.592-3.555-3.555-3.555h-0.268c0.468 1.46 0.721 3.016 0.721 4.632 0 0.842-0.093 1.669-0.238 2.474zM4.475 11.169h-0.239c-1.875 0-3.394 1.52-3.394 3.394 0 1.863 1.502 3.376 3.361 3.394-0.169-0.907-0.258-1.843-0.258-2.8 0-1.38 0.185-2.718 0.53-3.988zM20.787 28.211c-0.698 0-1.263 0.566-1.263 1.263s0.566 1.263 1.263 1.263c0.698 0 1.263-0.566 1.263-1.263s-0.566-1.263-1.263-1.263z"></path>
</symbol>
<symbol id="icon-track-performance" viewBox="0 0 47 39" fill="none" xmlns="http://www.w3.org/2000/svg">
<path fill-rule="evenodd" clip-rule="evenodd" d="M28.6277 23C28.6277 22.3035 28.5625 21.592 28.4302 20.8805L32 17.8442L28.6124 12.1633L24.1084 13.6372C22.9709 12.7111 21.6741 11.9807 20.3064 11.4969L19.378 7H12.622L11.6936 11.4951C10.3105 11.9807 9.03682 12.6998 7.88972 13.6353L3.38762 12.1633L0 17.8442L3.56984 20.8805C3.43747 21.592 3.37225 22.3035 3.37225 23C3.37225 23.6965 3.43747 24.408 3.56983 25.1195L0 28.1558L3.3876 33.8367L7.89162 32.3628C9.02913 33.2889 10.3259 34.0193 11.6936 34.5031L12.622 39H19.378L20.3064 34.5049C21.6875 34.0193 22.9632 33.3002 24.1103 32.3647L28.6124 33.8386L32 28.1577L28.4301 25.1214C28.5625 24.408 28.6277 23.6965 28.6277 23M16 29.5882C12.2978 29.5882 9.28615 26.6329 9.28615 23C9.28615 19.3671 12.2978 16.4118 16 16.4118C19.7022 16.4118 22.7138 19.3671 22.7138 23C22.7138 26.6329 19.7022 29.5882 16 29.5882Z" fill="#42A5F5"/>
<circle cx="32" cy="15" r="14" fill="white" stroke="#42A5F5" stroke-width="2"/>
<path d="M31.8411 4C25.8633 4 21 8.8633 21 14.841C21 20.8188 25.8633 25.6821 31.8411 25.6821C37.8189 25.6821 42.6821 20.8188 42.6821 14.841C42.6821 8.86324 37.8189 4 31.8411 4Z" fill="#42A5F5"/>
<path d="M31.8413 9.26416C31.3206 9.26416 30.8984 9.6863 30.8984 10.207V13.8986H29.83C29.3093 13.8986 28.8872 14.3207 28.8872 14.8414C28.8872 15.3621 29.3093 15.7843 29.83 15.7843H31.8413C32.362 15.7843 32.7841 15.3621 32.7841 14.8414V10.207C32.7841 9.6863 32.362 9.26416 31.8413 9.26416Z" fill="white"/>
<path d="M24.7733 14.2124H23.4469C23.0998 14.2124 22.8184 14.4938 22.8184 14.841C22.8184 15.1881 23.0998 15.4695 23.4469 15.4695H24.7733C25.1205 15.4695 25.4019 15.1881 25.4019 14.841C25.4019 14.4938 25.1205 14.2124 24.7733 14.2124Z" fill="white"/>
<path d="M31.8412 8.40187C32.1884 8.40187 32.4698 8.12046 32.4698 7.77331V6.44692C32.4698 6.09977 32.1884 5.81836 31.8412 5.81836C31.4941 5.81836 31.2126 6.09977 31.2126 6.44692V7.77331C31.2126 8.12046 31.4941 8.40187 31.8412 8.40187Z" fill="white"/>
<path d="M31.8412 21.2808C31.4941 21.2808 31.2126 21.5622 31.2126 21.9093V23.2357C31.2126 23.5829 31.4941 23.8643 31.8412 23.8643C32.1884 23.8643 32.4698 23.5829 32.4698 23.2357V21.9093C32.4698 21.5622 32.1884 21.2808 31.8412 21.2808Z" fill="white"/>
</symbol>

<symbol id="icon-trading-chart" viewBox="0 0 28 32">
<path fill="none" stroke="#42a5f5" style="stroke: var(--color1, #42a5f5)" stroke-linejoin="miter" stroke-linecap="butt" stroke-miterlimit="4" stroke-width="0.9412" d="M1.412 19.294v11.765h26.353"></path>
<path fill="#42a5f5" style="fill: var(--color1, #42a5f5); stroke: var(--color1, #42a5f5)" stroke="#42a5f5" stroke-linejoin="miter" stroke-linecap="butt" stroke-miterlimit="4" stroke-width="0.9412" d="M5.176 14.118h2.824v10.353h-2.824v-10.353z"></path>
<path fill="none" stroke="#42a5f5" style="stroke: var(--color1, #42a5f5)" stroke-linejoin="miter" stroke-linecap="butt" stroke-miterlimit="4" stroke-width="0.9412" d="M6.588 14.118v-3.294M6.588 24.941v3.294"></path>
<path fill="#42a5f5" style="fill: var(--color1, #42a5f5); stroke: var(--color1, #42a5f5)" stroke="#42a5f5" stroke-linejoin="miter" stroke-linecap="butt" stroke-miterlimit="4" stroke-width="0.9412" d="M10.824 9.412h2.824v10.353h-2.824v-10.353z"></path>
<path fill="none" stroke="#42a5f5" style="stroke: var(--color1, #42a5f5)" stroke-linejoin="miter" stroke-linecap="butt" stroke-miterlimit="4" stroke-width="0.9412" d="M12.235 19.765v5.176M12.235 8.941v-2.824"></path>
<path fill="#42a5f5" style="fill: var(--color1, #42a5f5); stroke: var(--color1, #42a5f5)" stroke="#42a5f5" stroke-linejoin="miter" stroke-linecap="butt" stroke-miterlimit="4" stroke-width="0.9412" d="M16.471 13.176h2.824v10.353h-2.824v-10.353z"></path>
<path fill="none" stroke="#42a5f5" style="stroke: var(--color1, #42a5f5)" stroke-linejoin="miter" stroke-linecap="butt" stroke-miterlimit="4" stroke-width="0.9412" d="M17.882 23.529v2.824M17.882 13.176v-3.294"></path>
<path fill="#42a5f5" style="fill: var(--color1, #42a5f5); stroke: var(--color1, #42a5f5)" stroke="#42a5f5" stroke-linejoin="miter" stroke-linecap="butt" stroke-miterlimit="4" stroke-width="0.9412" d="M22.118 11.294h2.824v4.706h-2.824v-4.706z"></path>
<path fill="none" stroke="#42a5f5" style="stroke: var(--color1, #42a5f5)" stroke-linejoin="miter" stroke-linecap="butt" stroke-miterlimit="4" stroke-width="0.9412" d="M23.529 8.471v2.824M23.529 16.201v5.916"></path>
<path fill="#42a5f5" style="fill: var(--color1, #42a5f5)" d="M12.706 2.824l0.333-0.333-0.333-0.333-0.333 0.333 0.333 0.333zM16 6.118l-0.333 0.333 0.333 0.333 0.333-0.333-0.333-0.333zM21.647 0.941c0-0.26-0.211-0.471-0.471-0.471h-4.235c-0.26 0-0.471 0.211-0.471 0.471s0.211 0.471 0.471 0.471h3.765v3.765c0 0.26 0.211 0.471 0.471 0.471s0.471-0.211 0.471-0.471v-4.235zM0.803 15.392l12.235-12.235-0.666-0.665-12.235 12.235 0.665 0.666zM12.373 3.156l3.294 3.294 0.666-0.665-3.294-3.294-0.666 0.665zM16.333 6.45l5.176-5.176-0.666-0.665-5.176 5.176 0.666 0.665z"></path>
</symbol>
<symbol id="icon-trasted-brand" viewBox="0 0 38 41" fill="none" xmlns="http://www.w3.org/2000/svg">
<path d="M36.6574 0.991303C36.5621 0.592932 36.2834 0.263468 35.9065 0.103086C35.5296 -0.0572964 35.099 -0.0293027 34.7458 0.178453C30.1146 2.90254 24.3606 2.90271 19.7291 0.178453C19.325 -0.0594497 18.8233 -0.0594497 18.419 0.178453C13.7877 2.90262 8.03371 2.90262 3.40244 0.178453C3.04938 -0.0293027 2.6187 -0.057038 2.24178 0.103086C1.86486 0.263382 1.58621 0.592932 1.49086 0.991303C-1.84056 14.9094 3.38556 29.4763 14.805 38.1024L18.2953 40.7389C18.5257 40.913 18.7998 41 19.0741 41C19.3482 41 19.6225 40.9129 19.8529 40.7389L23.3432 38.1024C34.7627 29.4763 39.9889 14.9094 36.6574 0.991303ZM21.7858 36.0405L19.0741 38.0887L16.3626 36.0405C6.20775 28.3698 1.32936 15.6368 3.65645 3.2221C8.56309 5.47347 14.2746 5.3236 19.0741 2.7723C23.8739 5.3236 29.5851 5.47356 34.4918 3.2221C36.8189 15.6368 31.9405 28.3698 21.7858 36.0405Z" fill="#42A5F5"/>
<path d="M32.7862 6.12787C32.5787 5.98075 32.3166 5.93277 32.0709 5.99703C30.4944 6.40755 28.8682 6.61573 27.2376 6.61573C24.571 6.61573 21.8692 6.04104 19.4241 4.95369C19.2012 4.85463 18.947 4.85463 18.7241 4.95369C16.2791 6.04104 13.5773 6.61573 10.9108 6.61573C9.28001 6.61573 7.6538 6.40755 6.07737 5.99703C5.83128 5.93286 5.56952 5.98084 5.36219 6.12787C5.15487 6.2749 5.023 6.50608 5.00189 6.7594C4.58233 11.8187 5.40311 16.9674 7.3755 21.6489C9.53265 26.7691 13.0173 31.2464 17.4528 34.5969L18.555 35.4295C18.7086 35.5455 18.8914 35.6035 19.0742 35.6035C19.257 35.6035 19.4397 35.5455 19.5933 35.4295L20.6955 34.5969C25.1311 31.2464 28.6157 26.7689 30.7729 21.6489C32.7452 16.9674 33.566 11.8187 33.1465 6.7594C33.1254 6.506 32.9936 6.2749 32.7862 6.12787Z" fill="#42A5F5"/>
<path d="M15 19.8889L18.3939 23L24 16.5" stroke="white" stroke-width="2" stroke-linecap="round"/>
</symbol>

<symbol id="icon-users" viewBox="0 0 47 32">
<path fill="#2196f3" style="fill: var(--color7, #2196f3); stroke: var(--color7, #2196f3)" stroke="#2196f3" stroke-linejoin="miter" stroke-linecap="butt" stroke-miterlimit="4" stroke-width="1.28" d="M31.74 7.42c0 3.745-3.036 6.78-6.78 6.78s-6.78-3.036-6.78-6.78c0-3.745 3.036-6.78 6.78-6.78s6.78 3.036 6.78 6.78z"></path>
<path fill="#2196f3" style="fill: var(--color7, #2196f3); stroke: var(--color7, #2196f3)" stroke="#2196f3" stroke-linejoin="miter" stroke-linecap="butt" stroke-miterlimit="4" stroke-width="1.28" d="M37.754 31.36h-25.587c0.333-6.777 5.934-12.169 12.794-12.169s12.46 5.392 12.794 12.169z"></path>
<path fill="none" stroke="#2196f3" style="stroke: var(--color7, #2196f3)" stroke-linejoin="miter" stroke-linecap="butt" stroke-miterlimit="4" stroke-width="1.28" d="M43.631 9.071c0 1.122-0.909 2.031-2.031 2.031s-2.031-0.909-2.031-2.031 0.909-2.031 2.031-2.031c1.122 0 2.031 0.909 2.031 2.031z"></path>
<path fill="none" stroke="#2196f3" style="stroke: var(--color7, #2196f3)" stroke-linejoin="miter" stroke-linecap="butt" stroke-miterlimit="4" stroke-width="1.28" d="M45.753 17.28h-8.307c0.308-2.017 2.050-3.562 4.153-3.562s3.845 1.545 4.153 3.562z"></path>
<path fill="none" stroke="#2196f3" style="stroke: var(--color7, #2196f3)" stroke-linejoin="miter" stroke-linecap="butt" stroke-miterlimit="4" stroke-width="1.28" d="M7.791 9.071c0 1.122-0.909 2.031-2.031 2.031s-2.031-0.909-2.031-2.031c0-1.122 0.909-2.031 2.031-2.031s2.031 0.909 2.031 2.031z"></path>
<path fill="none" stroke="#2196f3" style="stroke: var(--color7, #2196f3)" stroke-linejoin="miter" stroke-linecap="butt" stroke-miterlimit="4" stroke-width="1.28" d="M9.913 17.28h-8.307c0.308-2.017 2.050-3.562 4.153-3.562s3.845 1.545 4.153 3.562z"></path>
</symbol>
<symbol id="icon-visa" viewBox="0 0 45 32">
<path fill="#42a5f5" style="fill: var(--color1, #42a5f5)" d="M43.852 7.751h-42.667v5.12h42.667v-5.12z"></path>
<path fill="none" stroke="#42a5f5" style="stroke: var(--color1, #42a5f5)" stroke-linejoin="miter" stroke-linecap="butt" stroke-miterlimit="4" stroke-width="2.3704" d="M1.185 7.751v0c0-3.299 2.674-5.973 5.973-5.973h30.72c3.299 0 5.973 2.674 5.973 5.973v0M1.185 7.751h42.667M1.185 7.751v5.12M43.852 7.751v5.12M43.852 12.871v10.24c0 3.927-3.184 7.111-7.111 7.111h-28.444c-3.927 0-7.111-3.184-7.111-7.111v-10.24M43.852 12.871h-42.667"></path>
</symbol>

<symbol id="icon-headphone" viewBox="0 0 37 38" fill="none" xmlns="http://www.w3.org/2000/svg">
<path d="M25.2386 35.6897H24.7737C24.6196 35.6897 24.4718 35.6245 24.3628 35.5084C24.2539 35.3923 24.1927 35.2349 24.1927 35.0707C24.1927 34.9066 24.2539 34.7491 24.3628 34.6331C24.4718 34.517 24.6196 34.4518 24.7737 34.4518H25.2386C27.0772 34.4518 28.8405 33.6737 30.1406 32.2888C31.4407 30.9039 32.1712 29.0255 32.1713 27.0668V15.4296C32.1197 11.7015 30.6933 8.14475 28.2003 5.52783C25.7073 2.91091 22.348 1.44396 18.8481 1.44396C15.3482 1.44396 11.9888 2.91091 9.49581 5.52783C7.00284 8.14475 5.57644 11.7015 5.52484 15.4296V24.88C5.52484 25.0441 5.46362 25.2016 5.35466 25.3177C5.2457 25.4337 5.09791 25.4989 4.94382 25.4989C4.78972 25.4989 4.64193 25.4337 4.53297 25.3177C4.42401 25.2016 4.36279 25.0441 4.36279 24.88V15.4296C4.36279 11.337 5.88889 7.41206 8.60536 4.51818C11.3218 1.6243 15.0062 -0.00146484 18.8478 -0.00146484C22.6895 -0.00146484 26.3738 1.6243 29.0903 4.51818C31.8067 7.41206 33.3328 11.337 33.3328 15.4296V27.0668C33.3327 29.3537 32.4799 31.5469 30.962 33.164C29.444 34.781 27.3853 35.6896 25.2386 35.6897Z" fill="#1E88E5"/>
<path d="M22.4116 37.9998H19.3909C18.7504 37.9999 18.1356 37.7317 17.6791 37.2531C17.2226 36.7745 16.9611 36.1238 16.9509 35.4416V34.9468C16.9611 34.2646 17.2226 33.614 17.6791 33.1354C18.1356 32.6568 18.7504 32.3886 19.3909 32.3887H22.4116C23.0521 32.3886 23.6669 32.6568 24.1234 33.1354C24.5799 33.614 24.8414 34.2646 24.8516 34.9468V35.4416C24.8414 36.1238 24.5799 36.7745 24.1234 37.2531C23.6669 37.7317 23.0521 37.9999 22.4116 37.9998ZM19.3909 33.6282C19.0586 33.628 18.7392 33.7658 18.5007 34.0122C18.2621 34.2587 18.123 34.5945 18.113 34.9484V35.4437C18.1133 35.6203 18.147 35.795 18.2119 35.9575C18.2767 36.12 18.3716 36.2669 18.4907 36.3897C18.6099 36.5125 18.7509 36.6085 18.9055 36.6722C19.0602 36.7358 19.2252 36.7658 19.3909 36.7603H22.4116C22.5776 36.7658 22.7429 36.7357 22.8978 36.6719C23.0526 36.608 23.1938 36.5116 23.313 36.3885C23.4322 36.2653 23.527 36.1179 23.5917 35.955C23.6563 35.7921 23.6896 35.617 23.6895 35.4401V34.9448C23.6795 34.5909 23.5404 34.2551 23.3019 34.0086C23.0633 33.7622 22.744 33.6244 22.4116 33.6246L19.3909 33.6282Z" fill="#1E88E5"/>
<path d="M19.3909 33.6282C19.0586 33.628 18.7392 33.7658 18.5007 34.0122C18.2621 34.2587 18.123 34.5945 18.113 34.9484V35.4437C18.1133 35.6203 18.147 35.795 18.2119 35.9575C18.2767 36.12 18.3716 36.2669 18.4907 36.3897C18.6099 36.5125 18.7509 36.6085 18.9055 36.6722C19.0602 36.7358 19.2252 36.7658 19.3909 36.7603H22.4116C22.5776 36.7658 22.7429 36.7357 22.8978 36.6719C23.0526 36.608 23.1938 36.5116 23.313 36.3885C23.4322 36.2653 23.527 36.1179 23.5917 35.955C23.6563 35.7921 23.6896 35.617 23.6895 35.4401V34.9448C23.6795 34.5909 23.5404 34.2551 23.3019 34.0086C23.0633 33.7622 22.744 33.6244 22.4116 33.6246L19.3909 33.6282Z" fill="#1E88E5"/>
<path d="M4.94272 25.952H3.74399C2.97679 25.941 2.24393 25.6114 1.7014 25.0334C1.15886 24.4554 0.849481 23.6747 0.839111 22.8574V19.2264C0.849606 18.4092 1.15904 17.6286 1.70156 17.0507C2.24409 16.4729 2.97687 16.1434 3.74399 16.1323H4.94272C5.09637 16.1323 5.24373 16.1973 5.35237 16.3131C5.46102 16.4288 5.52206 16.5858 5.52206 16.7495V25.3333C5.52225 25.4145 5.5074 25.4949 5.47837 25.5699C5.44935 25.645 5.4067 25.7132 5.35289 25.7707C5.29907 25.8282 5.23514 25.8738 5.16476 25.9049C5.09438 25.936 5.01892 25.952 4.94272 25.952ZM3.74399 17.3703C3.28176 17.3703 2.83846 17.5659 2.51162 17.9141C2.18478 18.2623 2.00116 18.7345 2.00116 19.2269V22.8579C2.00116 23.3503 2.18478 23.8226 2.51162 24.1708C2.83846 24.519 3.28176 24.7146 3.74399 24.7146H4.36339V17.3703H3.74399Z" fill="#1E88E5"/>
<path d="M3.74399 17.3703C3.28176 17.3703 2.83846 17.5659 2.51162 17.9141C2.18478 18.2623 2.00116 18.7345 2.00116 19.2269V22.8579C2.00116 23.3503 2.18478 23.8226 2.51162 24.1708C2.83846 24.519 3.28176 24.7146 3.74399 24.7146H4.36339V17.3703H3.74399Z" fill="#1E88E5"/>
<path d="M33.9533 25.952H32.7512C32.5976 25.952 32.4502 25.887 32.3416 25.7712C32.2329 25.6555 32.1719 25.4985 32.1719 25.3348V16.7495C32.1719 16.6684 32.1869 16.5882 32.216 16.5133C32.2451 16.4384 32.2878 16.3704 32.3416 16.3131C32.3954 16.2558 32.4592 16.2103 32.5295 16.1793C32.5998 16.1483 32.6751 16.1323 32.7512 16.1323H33.9519C34.7191 16.1434 35.4519 16.473 35.9945 17.0509C36.537 17.6289 36.8464 18.4096 36.8568 19.2269V22.8579C36.8464 23.6752 36.537 24.4559 35.9945 25.0339C35.4519 25.6119 34.7191 25.9415 33.9519 25.9525L33.9533 25.952ZM33.3334 24.7141H33.9533C34.4156 24.7141 34.8588 24.5185 35.1857 24.1703C35.5125 23.8221 35.6962 23.3498 35.6962 22.8574V19.2264C35.6962 18.734 35.5125 18.2617 35.1857 17.9135C34.8588 17.5654 34.4156 17.3697 33.9533 17.3697H33.3339L33.3334 24.7141Z" fill="#1E88E5"/>
<path d="M33.3334 24.7141H33.9533C34.4156 24.7141 34.8588 24.5185 35.1857 24.1703C35.5125 23.8221 35.6962 23.3498 35.6962 22.8574V19.2264C35.6962 18.734 35.5125 18.2617 35.1857 17.9135C34.8588 17.5654 34.4156 17.3697 33.9533 17.3697H33.3339L33.3334 24.7141Z" fill="#1E88E5"/>
</symbol>

<symbol id="icon-height-comissions" viewBox="0 0 52 38" fill="none" xmlns="http://www.w3.org/2000/svg">
<path d="M23.6064 26.3288C23.4126 26.3291 23.2205 26.3679 23.0416 26.4425C23.0416 26.4425 22.527 26.6611 21.7074 26.9298C20.5657 27.1963 19.3957 27.3218 18.2235 27.3034C16.4319 27.2958 14.6453 27.1096 12.8905 26.7478C12.7917 26.7281 12.691 26.7173 12.59 26.7157C12.2406 26.717 11.9029 26.8431 11.6383 27.0712C10.5601 27.933 9.27042 28.4899 7.90378 28.683C5.35796 28.9835 1.4643 29.0019 1.42331 29.0019C1.0132 29.0051 0.623739 29.184 0.354072 29.4927C0.0840549 29.8018 -0.0404745 30.2116 0.0116292 30.6186C0.170144 31.8476 0.410617 33.0649 0.731152 34.2619C0.821689 34.5536 1.00308 34.8086 1.24895 34.9897C1.49482 35.1708 1.79217 35.2686 2.09748 35.2683H2.21596L9.65255 34.6355C12.7994 35.1273 16.092 37.3955 16.1238 37.418H16.1241C16.3642 37.5867 16.6505 37.6772 16.9436 37.6775H17.0939L26.9356 36.639H26.9359C27.1831 36.6181 27.4204 36.5317 27.6234 36.3887L32.255 33.2692C32.6781 32.9821 32.9157 32.491 32.8786 31.9811C32.8414 31.4712 32.5348 31.0198 32.0745 30.7969C31.6146 30.5742 31.0704 30.6139 30.6472 30.901L26.4073 33.7747C18.4831 33.2874 16.9665 31.5659 16.6892 31.0421H16.6895C16.6565 30.9798 16.6304 30.9144 16.612 30.8464C18.6524 30.7044 20.6673 30.3082 22.6096 29.6669C23.1699 29.5138 23.7157 29.3111 24.2402 29.0611C24.6452 28.8781 24.9419 28.5172 25.0436 28.0845C25.1449 27.6519 25.0394 27.1967 24.758 26.8527C24.4765 26.5086 24.0512 26.3149 23.6071 26.3288L23.6064 26.3288Z" fill="#42A5F5"/>
<path d="M28.3936 11.349C28.5874 11.3486 28.7795 11.3099 28.9584 11.2352C28.9584 11.2352 29.473 11.0167 30.2926 10.7479C31.4343 10.4814 32.6043 10.3559 33.7765 10.3743C35.5681 10.382 37.3547 10.5681 39.1095 10.9299C39.2083 10.9496 39.309 10.9604 39.41 10.962C39.7594 10.9608 40.0971 10.8346 40.3617 10.6066C41.4399 9.74469 42.7296 9.18787 44.0962 8.99473C46.642 8.69422 50.5357 8.67579 50.5767 8.67579C50.9868 8.67261 51.3763 8.49376 51.6459 8.18499C51.9159 7.8759 52.0405 7.46611 51.9884 7.05915C51.8299 5.83011 51.5894 4.61279 51.2688 3.41579C51.1783 3.12418 50.9969 2.86908 50.751 2.68802C50.5052 2.50695 50.2078 2.4091 49.9025 2.40942L49.784 2.40942L42.3474 3.04222C39.2006 2.55046 35.908 0.282272 35.8762 0.259745L35.8759 0.259745C35.6358 0.0910648 35.3495 0.000529853 35.0564 0.000212718L34.9061 0.000212731L25.0644 1.03871L25.0641 1.03871C24.8169 1.05967 24.5796 1.14608 24.3766 1.28903L19.745 4.4085C19.3219 4.69567 19.0843 5.18679 19.1214 5.69666C19.1586 6.20651 19.4652 6.6579 19.9255 6.88089C20.3854 7.10357 20.9296 7.06386 21.3528 6.77669L25.5927 3.90306C33.5169 4.39036 35.0335 6.1118 35.3108 6.63568L35.3105 6.63568C35.3435 6.69794 35.3696 6.76338 35.388 6.83136C33.3476 6.97336 31.3327 7.36949 29.3904 8.01087C28.8301 8.16398 28.2843 8.36666 27.7598 8.61666C27.3548 8.79964 27.0581 9.16051 26.9564 9.59319C26.8551 10.0259 26.9606 10.4811 27.242 10.8251C27.5235 11.1691 27.9488 11.3629 28.3929 11.3489L28.3936 11.349Z" fill="#42A5F5"/>
<circle cx="17.9707" cy="19.5" r="6" fill="white" stroke="#42A5F5"/>
<path d="M17.6799 23.3182V22.6464C17.2287 22.6052 16.7993 22.4332 16.4444 22.1515C16.0894 21.8698 15.8244 21.4906 15.6819 21.0605C15.6493 20.9561 15.6617 20.8427 15.7162 20.7479C15.7708 20.653 15.8626 20.5852 15.9692 20.561L16.3338 20.4736C16.5684 20.4168 16.8092 20.5413 16.8982 20.7659C17.0705 21.2004 17.4726 21.5376 18.1643 21.5376C18.7962 21.5376 19.1632 21.2354 19.1632 20.8084C19.1632 20.4762 18.9134 20.2239 18.4316 20.1166L17.5375 19.9218C16.4862 19.6896 15.8343 19.0278 15.8343 18.0937C15.8343 17.0623 16.6336 16.3031 17.675 16.1383V15.4388C17.6748 15.2509 17.8265 15.0981 18.0145 15.0967H18.3218C18.5106 15.0967 18.6639 15.2498 18.6639 15.4388V16.1681C19.3327 16.2625 19.9139 16.6761 20.2222 17.2769C20.286 17.3999 20.2914 17.545 20.2367 17.6721C20.1819 17.7993 20.0731 17.8955 19.94 17.9338L19.6602 18.0138L19.6604 18.0136C19.4308 18.081 19.1858 17.9763 19.0759 17.7639C18.9798 17.5929 18.8368 17.4526 18.6639 17.3598C18.491 17.2669 18.2952 17.2251 18.0995 17.2394C17.4776 17.2394 17.1355 17.599 17.1355 17.9887C17.1355 18.2909 17.3503 18.5432 17.8072 18.6405L18.6937 18.8454C19.92 19.1177 20.4745 19.8443 20.4745 20.7209C20.4745 21.5976 19.8301 22.4442 18.6638 22.629V23.3108L18.6639 23.3106C18.6639 23.4087 18.6249 23.5026 18.5556 23.572C18.4863 23.6413 18.3924 23.6803 18.2943 23.6803H18.0445C17.8447 23.6789 17.6826 23.518 17.6799 23.3181L17.6799 23.3182Z" fill="#42A5F5"/>
<path fill-rule="evenodd" clip-rule="evenodd" d="M29.6381 24.2096C30.7014 24.9281 31.9514 25.3115 33.2302 25.3115C34.945 25.3115 36.5895 24.6227 37.8021 23.3965C39.0146 22.1704 39.6958 20.5074 39.6958 18.7734C39.6958 17.4803 39.3166 16.2163 38.6061 15.1411C37.8957 14.0659 36.8859 13.2279 35.7045 12.733C34.523 12.2382 33.223 12.1087 31.9688 12.361C30.7146 12.6133 29.5626 13.2359 28.6584 14.1503C27.7541 15.0647 27.1384 16.2297 26.8889 17.4979C26.6394 18.7662 26.7675 20.0808 27.2568 21.2754C27.7462 22.4701 28.5749 23.4912 29.6381 24.2096ZM30.9569 18.7976H31.0753L31.075 18.7979C31.521 18.7979 31.9488 18.6187 32.2641 18.2998C32.5795 17.9809 32.7567 17.5484 32.7567 17.0974V16.9777C32.7567 16.5267 32.5795 16.0941 32.2641 15.7752C31.9488 15.4563 31.521 15.2772 31.075 15.2772H30.9566C30.7339 15.2741 30.5127 15.3157 30.306 15.3998C30.0994 15.4838 29.9112 15.6086 29.7526 15.7668C29.594 15.925 29.4681 16.1134 29.3821 16.3213C29.2961 16.5291 29.2518 16.7521 29.2518 16.9774V17.0971C29.2518 17.3224 29.296 17.5455 29.382 17.7534C29.468 17.9613 29.594 18.1498 29.7526 18.308C29.9113 18.4662 30.0994 18.591 30.3062 18.675C30.5129 18.7591 30.7341 18.8008 30.9569 18.7976ZM30.5784 16.0636C30.6988 16.0156 30.8275 15.9924 30.9569 15.9954H31.0753C31.2028 15.9954 31.3291 16.0208 31.4469 16.0702C31.5647 16.1195 31.6718 16.1919 31.762 16.283C31.8521 16.3742 31.9237 16.4825 31.9725 16.6016C32.0213 16.7207 32.0464 16.8484 32.0464 16.9774V17.0971C32.0464 17.3575 31.9441 17.6073 31.762 17.7915C31.5798 17.9756 31.3328 18.0791 31.0753 18.0791H30.9569C30.8275 18.0821 30.6988 18.0589 30.5784 18.0109C30.458 17.9629 30.3483 17.8911 30.2558 17.7996C30.1632 17.7081 30.0897 17.5988 30.0395 17.4782C29.9893 17.3575 29.9635 17.228 29.9635 17.0971V16.9774C29.9635 16.8465 29.9893 16.717 30.0395 16.5963C30.0897 16.4757 30.1632 16.3664 30.2558 16.2749C30.3483 16.1834 30.458 16.1116 30.5784 16.0636ZM35.5749 22.3653H35.4566C35.0106 22.3653 34.5828 22.1862 34.2675 21.8672C33.9521 21.5483 33.7749 21.1158 33.7749 20.6648V20.5451C33.7718 20.3198 33.813 20.0961 33.8961 19.887C33.9792 19.678 34.1026 19.4877 34.2591 19.3273C34.4156 19.1669 34.602 19.0395 34.8076 18.9525C35.0131 18.8656 35.2337 18.8208 35.4566 18.8209H35.5749C35.7978 18.8208 36.0184 18.8656 36.224 18.9525C36.4295 19.0395 36.616 19.1669 36.7724 19.3273C36.9289 19.4877 37.0523 19.678 37.1354 19.887C37.2185 20.0961 37.2597 20.3198 37.2566 20.5451V20.6648C37.2566 21.1158 37.0794 21.5483 36.7641 21.8672C36.4487 22.1862 36.0209 22.3653 35.5749 22.3653ZM35.4566 19.5394C35.3271 19.5394 35.199 19.5655 35.0797 19.6163C34.9604 19.667 34.8524 19.7414 34.7619 19.835C34.6714 19.9286 34.6004 20.0395 34.5529 20.1612C34.5054 20.283 34.4825 20.4131 34.4855 20.544V20.6637C34.4855 20.7926 34.5106 20.9203 34.5594 21.0395C34.6082 21.1586 34.6797 21.2669 34.7699 21.358C34.8601 21.4492 34.9671 21.5216 35.0849 21.5709C35.2028 21.6203 35.329 21.6457 35.4566 21.6457H35.5749C35.8325 21.6457 36.0795 21.5422 36.2616 21.358C36.4437 21.1739 36.546 20.9241 36.546 20.6637V20.544C36.549 20.4131 36.5261 20.283 36.4786 20.1612C36.4312 20.0395 36.3601 19.9286 36.2696 19.835C36.1792 19.7414 36.0711 19.667 35.9518 19.6163C35.8325 19.5655 35.7044 19.5394 35.5749 19.5394H35.4566ZM30.9968 22.0379C31.0294 22.0503 31.064 22.0559 31.0988 22.0544C31.1576 22.0563 31.2161 22.0442 31.2696 22.0192C31.323 21.9942 31.37 21.957 31.4067 21.9104L35.6459 16.068C35.7024 15.9918 35.7267 15.896 35.7134 15.8017C35.7001 15.7073 35.6502 15.6222 35.5749 15.565C35.4995 15.5079 35.4047 15.4833 35.3114 15.4968C35.2181 15.5103 35.134 15.5607 35.0774 15.6369L30.8145 21.4804C30.7878 21.5196 30.7691 21.5637 30.7594 21.6103C30.7497 21.6568 30.7492 21.7049 30.758 21.7516C30.7668 21.7983 30.7847 21.8428 30.8107 21.8825C30.8366 21.9222 30.8701 21.9562 30.9092 21.9827C30.9345 22.0069 30.9642 22.0256 30.9968 22.0379Z" fill="#42A5F5"/>
</symbol>


<symbol id="icon-maximyze" viewBox="0 0 37 42" fill="none" xmlns="http://www.w3.org/2000/svg">
<path d="M31.5 15H4L11.9492 23.786C12.9473 24.8891 13.5 26.3238 13.5 27.8115V32.5H21V27.9853C21 26.394 21.6321 24.8679 22.7574 23.7426L31.5 15Z" fill="#42A5F5"/>
<path d="M32.75 14.5H2.75C1.7835 14.5 1 13.7165 1 12.75C1 11.7835 1.7835 11 2.75 11H32.75C33.7165 11 34.5 11.7835 34.5 12.75C34.5 13.7165 33.7165 14.5 32.75 14.5Z" stroke="#42A5F5"/>
<path d="M33.4435 23.4949H22.4425C22.3236 23.4902 22.2111 23.4391 22.1286 23.3526C22.0461 23.2661 22 23.1507 22 23.0307C22 22.9108 22.0461 22.7954 22.1286 22.7089C22.2111 22.6224 22.3236 22.5713 22.4425 22.5665H33.4435C34.1279 22.5665 34.7843 22.2926 35.2682 21.8048C35.7521 21.3171 36.024 20.6557 36.024 19.9659C36.024 19.2762 35.7521 18.6147 35.2682 18.127C34.7843 17.6393 34.1279 17.3653 33.4435 17.3653H28.1563C28.0942 17.3678 28.0323 17.3576 27.9743 17.3354C27.9162 17.3132 27.8632 17.2794 27.8185 17.2361C27.7737 17.1927 27.7381 17.1407 27.7137 17.0832C27.6894 17.0256 27.6769 16.9637 27.6769 16.9011C27.6769 16.8385 27.6894 16.7766 27.7137 16.719C27.7381 16.6615 27.7737 16.6094 27.8185 16.5661C27.8632 16.5227 27.9162 16.4889 27.9743 16.4667C28.0323 16.4445 28.0942 16.4344 28.1563 16.4369H33.4435C34.3723 16.4369 35.2631 16.8087 35.9198 17.4706C36.5766 18.1325 36.9456 19.0302 36.9456 19.9663C36.9456 20.9023 36.5766 21.8001 35.9198 22.462C35.2631 23.1238 34.3723 23.4949 33.4435 23.4949Z" fill="#42A5F5"/>
<circle cx="17" cy="34" r="7.5" fill="white" stroke="#42A5F5"/>
<path fill-rule="evenodd" clip-rule="evenodd" d="M17 39C19.7614 39 22 36.7614 22 34C22 31.2386 19.7614 29 17 29C14.2386 29 12 31.2386 12 34C12 36.7614 14.2386 39 17 39ZM16.9873 32.8435V32.5215H16.7676V32.8423C16.6835 32.852 16.6078 32.8734 16.5405 32.9067C16.4458 32.9536 16.3726 33.0205 16.3208 33.1074C16.269 33.1943 16.2432 33.2979 16.2432 33.418C16.2432 33.5332 16.2671 33.6313 16.3149 33.7124C16.3638 33.7935 16.4326 33.8613 16.5215 33.916C16.6113 33.9707 16.7178 34.0171 16.8408 34.0552C16.9424 34.0884 17.0234 34.1245 17.084 34.1636C17.1445 34.2026 17.188 34.2456 17.2144 34.2925C17.2407 34.3394 17.2539 34.3921 17.2539 34.4507C17.2539 34.52 17.2378 34.5806 17.2056 34.6323C17.1733 34.6841 17.1265 34.7241 17.0649 34.7524C17.0044 34.7798 16.9302 34.7935 16.8423 34.7935C16.7944 34.7935 16.7461 34.7871 16.6973 34.7744C16.6494 34.7607 16.6055 34.7383 16.5654 34.707C16.5254 34.6748 16.4932 34.6318 16.4688 34.5781C16.4453 34.5234 16.4336 34.4546 16.4336 34.3716H16.1611C16.1611 34.4946 16.1807 34.5986 16.2197 34.6836C16.2588 34.7676 16.311 34.8354 16.3765 34.8872C16.4419 34.938 16.5151 34.9746 16.5962 34.9971C16.6447 35.0105 16.6935 35.0199 16.7427 35.0253V35.3047H16.9609V35.0248C17.0502 35.0153 17.1307 34.9949 17.2026 34.9634C17.3052 34.9185 17.3848 34.853 17.4414 34.7671C17.498 34.6802 17.5264 34.5737 17.5264 34.4478C17.5264 34.3315 17.5034 34.2344 17.4575 34.1562C17.4116 34.0771 17.3447 34.0107 17.2568 33.957C17.1689 33.9023 17.062 33.855 16.936 33.8149C16.8286 33.7788 16.7441 33.7422 16.6826 33.7051C16.6221 33.667 16.5791 33.6245 16.5537 33.5776C16.5283 33.5308 16.5156 33.4761 16.5156 33.4136C16.5156 33.3462 16.5283 33.2871 16.5537 33.2363C16.5791 33.1846 16.6182 33.1445 16.6709 33.1162C16.7246 33.0879 16.7925 33.0737 16.8745 33.0737C16.9331 33.0737 16.9849 33.085 17.0298 33.1074C17.0747 33.1289 17.1128 33.1602 17.144 33.2012C17.1753 33.2412 17.1987 33.2886 17.2144 33.3433C17.23 33.3979 17.2378 33.458 17.2378 33.5234H17.5073C17.5073 33.4121 17.4927 33.314 17.4634 33.229C17.4351 33.144 17.3936 33.0723 17.3389 33.0137C17.2852 32.9551 17.2192 32.9111 17.1411 32.8818C17.0938 32.8635 17.0425 32.8507 16.9873 32.8435Z" fill="#42A5F5"/>
<path d="M7.5006 7.05583C6.80825 7.05583 6.13144 6.84892 5.55577 6.46127C4.9801 6.07361 4.53142 5.52263 4.26647 4.87799C4.00152 4.23335 3.93219 3.524 4.06726 2.83965C4.20234 2.1553 4.53574 1.52669 5.0253 1.0333C5.51487 0.539916 6.13862 0.203915 6.81767 0.0677894C7.49672 -0.0683359 8.20057 0.00152858 8.84022 0.268548C9.47987 0.535567 10.0266 0.987749 10.4112 1.56791C10.7959 2.14807 11.0012 2.83016 11.0012 3.52791C11.0012 3.99121 10.9107 4.44996 10.7347 4.87799C10.5588 5.30601 10.301 5.69493 9.9759 6.02253C9.65083 6.35012 9.26493 6.60999 8.84022 6.78728C8.41551 6.96458 7.9603 7.05583 7.5006 7.05583ZM7.5006 0.925429C6.99044 0.925429 6.49175 1.07789 6.06757 1.36353C5.64339 1.64916 5.31278 2.05515 5.11756 2.53015C4.92233 3.00515 4.87125 3.52783 4.97077 4.03208C5.0703 4.53634 5.31596 4.99953 5.6767 5.36308C6.03743 5.72663 6.49703 5.97421 6.99739 6.07451C7.49774 6.17481 8.01637 6.12333 8.48769 5.92658C8.95901 5.72983 9.36186 5.39664 9.64528 4.96916C9.92871 4.54167 10.08 4.03908 10.08 3.52494C10.0718 2.83808 9.79737 2.18169 9.31541 1.69597C8.83345 1.21025 8.18214 0.933716 7.5006 0.925429V0.925429Z" fill="#42A5F5"/>
<path d="M14.5791 11.1238H10.647C10.5604 11.1233 10.4758 11.0965 10.4046 11.0468C10.3333 10.9971 10.2786 10.9269 10.2476 10.8453C10.0762 10.5108 9.9916 10.138 10.0018 9.76165C9.98687 9.35646 10.0639 8.95317 10.2271 8.58255C10.3903 8.21194 10.6354 7.88378 10.9436 7.62311C11.2517 7.36245 11.6149 7.17616 12.0054 7.07846C12.3959 6.98075 12.8033 6.97421 13.1967 7.05934C13.5901 7.14447 13.959 7.31902 14.2752 7.56966C14.5915 7.82031 14.8468 8.14044 15.0216 8.50563C15.1964 8.87083 15.2862 9.27144 15.284 9.6769C15.2819 10.0824 15.1879 10.482 15.0092 10.8453C14.9672 10.925 14.9056 10.9924 14.8303 11.0412C14.755 11.09 14.6685 11.1184 14.5791 11.1238ZM10.9849 10.1954H14.2718C14.3053 10.0531 14.3259 9.90806 14.3334 9.76202C14.3662 9.51695 14.3466 9.26763 14.276 9.03081C14.2053 8.79398 14.0853 8.57513 13.9238 8.38893C13.7623 8.20273 13.5632 8.0535 13.3397 7.95125C13.1163 7.849 12.8738 7.7961 12.6284 7.7961C12.383 7.7961 12.1405 7.849 11.917 7.95125C11.6936 8.0535 11.4945 8.20273 11.333 8.38893C11.1715 8.57513 11.0514 8.79398 10.9808 9.03081C10.9101 9.26763 10.8906 9.51695 10.9234 9.76202C10.9308 9.90806 10.9514 10.0531 10.9849 10.1954Z" fill="#42A5F5"/>
<path d="M10.9849 10.1954H14.2718C14.3053 10.0531 14.3259 9.90806 14.3334 9.76202C14.3662 9.51695 14.3466 9.26763 14.276 9.03081C14.2053 8.79398 14.0853 8.57513 13.9238 8.38893C13.7623 8.20273 13.5632 8.0535 13.3397 7.95125C13.1163 7.849 12.8738 7.7961 12.6284 7.7961C12.383 7.7961 12.1405 7.849 11.917 7.95125C11.6936 8.0535 11.4945 8.20273 11.333 8.38893C11.1715 8.57513 11.0514 8.79398 10.9808 9.03081C10.9101 9.26763 10.8906 9.51695 10.9234 9.76202C10.9308 9.90806 10.9514 10.0531 10.9849 10.1954Z" fill="#42A5F5"/>
<path d="M27.2563 9.22258C26.6123 9.22258 25.9827 9.03012 25.4472 8.66952C24.9117 8.30892 24.4943 7.79639 24.2479 7.19674C24.0014 6.59708 23.9369 5.93724 24.0626 5.30065C24.1882 4.66407 24.4983 4.07932 24.9537 3.62037C25.4091 3.16142 25.9894 2.84886 26.621 2.72224C27.2527 2.59561 27.9074 2.6606 28.5024 2.90899C29.0974 3.15737 29.606 3.57799 29.9638 4.11767C30.3216 4.65734 30.5126 5.29182 30.5126 5.94088C30.5126 6.81124 30.1695 7.64596 29.5588 8.2614C28.9482 8.87683 28.1199 9.22258 27.2563 9.22258ZM27.2563 3.58795C26.7945 3.58795 26.3431 3.72595 25.9592 3.98449C25.5753 4.24303 25.276 4.61051 25.0993 5.04045C24.9226 5.4704 24.8764 5.94349 24.9664 6.39992C25.0565 6.85634 25.2789 7.27559 25.6054 7.60466C25.9319 7.93372 26.3479 8.15782 26.8008 8.2486C27.2537 8.33939 27.7231 8.2928 28.1498 8.11471C28.5764 7.93662 28.941 7.63504 29.1975 7.2481C29.4541 6.86116 29.591 6.40625 29.591 5.94088C29.5911 5.63186 29.5307 5.32585 29.4134 5.04034C29.2961 4.75483 29.1241 4.4954 28.9073 4.27687C28.6905 4.05834 28.4331 3.88499 28.1498 3.76672C27.8665 3.64845 27.5629 3.58795 27.2563 3.58795Z" fill="#42A5F5"/>
<path d="M27.2563 3.58795C26.7945 3.58795 26.3431 3.72595 25.9592 3.98449C25.5753 4.24303 25.276 4.61051 25.0993 5.04045C24.9226 5.4704 24.8764 5.94349 24.9664 6.39992C25.0565 6.85634 25.2789 7.27559 25.6054 7.60466C25.9319 7.93372 26.3479 8.15782 26.8008 8.2486C27.2537 8.33939 27.7231 8.2928 28.1498 8.11471C28.5764 7.93662 28.941 7.63504 29.1975 7.2481C29.4541 6.86116 29.591 6.40625 29.591 5.94088C29.5911 5.63186 29.5307 5.32585 29.4134 5.04034C29.2961 4.75483 29.1241 4.4954 28.9073 4.27687C28.6905 4.05834 28.4331 3.88499 28.1498 3.76672C27.8665 3.64845 27.5629 3.58795 27.2563 3.58795Z" fill="#42A5F5"/>
<path d="M17.2732 6.40556C16.8236 6.40556 16.3841 6.2712 16.0103 6.01947C15.6364 5.76774 15.3451 5.40995 15.173 4.99134C15.001 4.57273 14.956 4.11211 15.0437 3.66771C15.1314 3.22332 15.3479 2.81512 15.6658 2.49473C15.9837 2.17433 16.3888 1.95615 16.8297 1.86775C17.2707 1.77936 17.7277 1.82472 18.1431 1.99812C18.5585 2.17151 18.9135 2.46514 19.1633 2.84188C19.413 3.21862 19.5464 3.66155 19.5464 4.11465C19.5464 4.41549 19.4876 4.7134 19.3733 4.99134C19.2591 5.26929 19.0916 5.52184 18.8806 5.73457C18.6695 5.9473 18.4189 6.11605 18.1431 6.23118C17.8673 6.34631 17.5717 6.40556 17.2732 6.40556ZM17.2732 2.78332C17.0089 2.78635 16.7514 2.86831 16.5333 3.01883C16.3151 3.16935 16.1462 3.38167 16.0479 3.62894C15.9495 3.87621 15.9261 4.14733 15.9806 4.408C16.0352 4.66868 16.1652 4.9072 16.3542 5.09341C16.5433 5.27962 16.7828 5.40515 17.0427 5.45412C17.3025 5.5031 17.5709 5.47332 17.814 5.36855C18.057 5.26378 18.2638 5.08873 18.4081 4.86554C18.5524 4.64235 18.6278 4.38103 18.6248 4.11465C18.6168 3.75875 18.4709 3.42015 18.2183 3.17133C17.9656 2.92251 17.6264 2.78323 17.2732 2.78332V2.78332Z" fill="#42A5F5"/>
</symbol>

 <symbol id="icon-instagram" viewBox="0 0 32 32">
<path d="M16 10.667c-2.945 0-5.333 2.388-5.333 5.333s2.388 5.333 5.333 5.333c2.945 0 5.333-2.388 5.333-5.333s-2.388-5.333-5.333-5.333z"></path>
<path d="M9.6 0c-5.302 0-9.6 4.298-9.6 9.6v12.8c0 5.302 4.298 9.6 9.6 9.6h12.8c5.302 0 9.6-4.298 9.6-9.6v-12.8c0-5.302-4.298-9.6-9.6-9.6h-12.8zM8.533 16c0-4.124 3.343-7.467 7.467-7.467s7.467 3.343 7.467 7.467c0 4.124-3.343 7.467-7.467 7.467s-7.467-3.343-7.467-7.467zM23.467 8.533h2.133v-2.133h-2.133v2.133z"></path>
</symbol>

<symbol id="icon-telegram" viewBox="0 0 32 32">
<path d="M29.919 6.163l-4.225 19.925c-0.319 1.406-1.15 1.756-2.331 1.094l-6.438-4.744-3.106 2.988c-0.344 0.344-0.631 0.631-1.294 0.631l0.463-6.556 11.931-10.781c0.519-0.462-0.113-0.719-0.806-0.256l-14.75 9.288-6.35-1.988c-1.381-0.431-1.406-1.381 0.288-2.044l24.837-9.569c1.15-0.431 2.156 0.256 1.781 2.013z"></path>
</symbol>

<symbol id="icon-twitter" viewBox="0 0 32 32">
<path  d="M32 5.824c-1.176 0.535-2.442 0.898-3.77 1.059 1.356-0.832 2.397-2.151 2.887-3.723-1.27 0.77-2.673 1.331-4.172 1.631-1.195-1.308-2.902-2.124-4.791-2.124-3.623 0-6.563 3.014-6.563 6.732 0 0.528 0.056 1.040 0.169 1.533-5.456-0.281-10.293-2.958-13.533-7.036-0.565 0.998-0.888 2.155-0.888 3.388 0 2.334 1.159 4.395 2.921 5.603-1.074-0.033-2.089-0.339-2.975-0.84v0.083c0 3.263 2.263 5.984 5.269 6.601-0.55 0.158-1.131 0.237-1.73 0.237-0.423 0-0.836-0.040-1.236-0.119 0.836 2.673 3.259 4.621 6.133 4.673-2.246 1.807-5.079 2.883-8.154 2.883-0.53 0-1.054-0.031-1.566-0.092 2.906 1.907 6.358 3.022 10.064 3.022 12.077 0 18.679-10.256 18.679-19.153 0-0.293-0.006-0.586-0.017-0.873 1.283-0.95 2.397-2.134 3.274-3.484z"></path>
</symbol>

<symbol id="icon-facebook" viewBox="0 0 32 32">
<path d="M19 6h5v-6h-5c-3.86 0-7 3.14-7 7v3h-4v6h4v16h6v-16h5l1-6h-6v-3c0-0.542 0.458-1 1-1z"></path>
</symbol>

<symbol  id="icon-arrow-right"   viewBox="0 0 12 19" xmlns="http://www.w3.org/2000/svg">
<path  d="M0.351469 0.309162C0.820095 -0.103054 1.57984 -0.103054 2.04848 0.309162L11.6485 8.75366C12.1172 9.1659 12.1172 9.83413 11.6485 10.2464L2.04848 18.6908C1.57984 19.1031 0.820095 19.1031 0.351469 18.6908C-0.117156 18.2786 -0.117156 17.6104 0.351469 17.1981L9.10291 9.50002L0.351469 1.80195C-0.117156 1.38973 -0.117156 0.721379 0.351469 0.309162Z" />
</symbol>


<symbol id="icon-email" viewBox="0 -9.31 56.223 56.223" xmlns="http://www.w3.org/2000/svg">
  <path  d="M798.377,169.859h.012a2.16,2.16,0,0,0,1.181-.346l.092-.059.063-.039,1.071-.887,25.563-21.094a.3.3,0,0,0-.239-.123H770.492a.291.291,0,0,0-.183.066l26.745,22.045A2.1,2.1,0,0,0,798.377,169.859ZM770.2,150.3v31.268l19.159-15.476Zm37.084,15.9,19.139,15.38V150.4Zm-6.085,5.021a4.559,4.559,0,0,1-5.619.005l-4.388-3.619L770.2,184.558v.053a.3.3,0,0,0,.3.3h55.625a.3.3,0,0,0,.3-.3v-.049l-20.974-16.852Z" transform="translate(-770.195 -147.311)"/>
</symbol>

<symbol id="icon-phone" viewBox="0 0 24 24" xmlns="http://www.w3.org/2000/svg">
<path d="M16.5562 12.9062L16.1007 13.359C16.1007 13.359 15.0181 14.4355 12.0631 11.4972C9.10812 8.55901 10.1907 7.48257 10.1907 7.48257L10.4775 7.19738C11.1841 6.49484 11.2507 5.36691 10.6342 4.54348L9.37326 2.85908C8.61028 1.83992 7.13596 1.70529 6.26145 2.57483L4.69185 4.13552C4.25823 4.56668 3.96765 5.12559 4.00289 5.74561C4.09304 7.33182 4.81071 10.7447 8.81536 14.7266C13.0621 18.9492 17.0468 19.117 18.6763 18.9651C19.1917 18.9171 19.6399 18.6546 20.0011 18.2954L21.4217 16.883C22.3806 15.9295 22.1102 14.2949 20.8833 13.628L18.9728 12.5894C18.1672 12.1515 17.1858 12.2801 16.5562 12.9062Z"/>
</symbol>

<symbol id="logo-limit" viewBox="0 0 1260 1360" fill="none" xmlns="http://www.w3.org/2000/svg">
 
<path d="M59.6484 1169.34H77.9883L48.8672 1255H29.0625L0 1169.34H18.3398L34.4531 1220.31C35.3516 1223.32 36.2695 1226.84 37.207 1230.86C38.1836 1234.84 38.7891 1237.62 39.0234 1239.18C39.4531 1235.59 40.918 1229.3 43.418 1220.31L59.6484 1169.34ZM141.27 1255L135.059 1234.61H103.828L97.6172 1255H78.0469L108.281 1168.98H130.488L160.84 1255H141.27ZM130.723 1219.37C124.98 1200.9 121.738 1190.45 120.996 1188.03C120.293 1185.6 119.785 1183.69 119.473 1182.28C118.184 1187.28 114.492 1199.65 108.398 1219.37H130.723ZM247.676 1255H224.59L187.324 1190.19H186.797C187.539 1201.64 187.91 1209.8 187.91 1214.69V1255H171.68V1169.34H194.59L231.797 1233.5H232.207C231.621 1222.36 231.328 1214.49 231.328 1209.88V1169.34H247.676V1255ZM339.023 1169.34V1224.77C339.023 1231.09 337.598 1236.64 334.746 1241.41C331.934 1246.17 327.852 1249.82 322.5 1252.36C317.148 1254.9 310.82 1256.17 303.516 1256.17C292.5 1256.17 283.945 1253.36 277.852 1247.73C271.758 1242.07 268.711 1234.34 268.711 1224.53V1169.34H286.816V1221.78C286.816 1228.38 288.145 1233.22 290.801 1236.31C293.457 1239.39 297.852 1240.94 303.984 1240.94C309.922 1240.94 314.219 1239.39 316.875 1236.31C319.57 1233.18 320.918 1228.3 320.918 1221.66V1169.34H339.023ZM412.441 1255L406.23 1234.61H375L368.789 1255H349.219L379.453 1168.98H401.66L432.012 1255H412.441ZM401.895 1219.37C396.152 1200.9 392.91 1190.45 392.168 1188.03C391.465 1185.6 390.957 1183.69 390.645 1182.28C389.355 1187.28 385.664 1199.65 379.57 1219.37H401.895ZM475.898 1255H457.734V1184.45H434.473V1169.34H499.16V1184.45H475.898V1255ZM582.07 1169.34V1224.77C582.07 1231.09 580.645 1236.64 577.793 1241.41C574.98 1246.17 570.898 1249.82 565.547 1252.36C560.195 1254.9 553.867 1256.17 546.562 1256.17C535.547 1256.17 526.992 1253.36 520.898 1247.73C514.805 1242.07 511.758 1234.34 511.758 1224.53V1169.34H529.863V1221.78C529.863 1228.38 531.191 1233.22 533.848 1236.31C536.504 1239.39 540.898 1240.94 547.031 1240.94C552.969 1240.94 557.266 1239.39 559.922 1236.31C562.617 1233.18 563.965 1228.3 563.965 1221.66V1169.34H582.07ZM652.09 1255H634.219V1169.34H683.32V1184.22H652.09V1206.31H681.152V1221.13H652.09V1255ZM700.078 1255V1169.34H718.242V1255H700.078ZM815.801 1255H792.715L755.449 1190.19H754.922C755.664 1201.64 756.035 1209.8 756.035 1214.69V1255H739.805V1169.34H762.715L799.922 1233.5H800.332C799.746 1222.36 799.453 1214.49 799.453 1209.88V1169.34H815.801V1255ZM889.863 1255L883.652 1234.61H852.422L846.211 1255H826.641L856.875 1168.98H879.082L909.434 1255H889.863ZM879.316 1219.37C873.574 1200.9 870.332 1190.45 869.59 1188.03C868.887 1185.6 868.379 1183.69 868.066 1182.28C866.777 1187.28 863.086 1199.65 856.992 1219.37H879.316ZM996.27 1255H973.184L935.918 1190.19H935.391C936.133 1201.64 936.504 1209.8 936.504 1214.69V1255H920.273V1169.34H943.184L980.391 1233.5H980.801C980.215 1222.36 979.922 1214.49 979.922 1209.88V1169.34H996.27V1255ZM1054.28 1183.22C1047.44 1183.22 1042.15 1185.8 1038.4 1190.96C1034.65 1196.07 1032.77 1203.22 1032.77 1212.4C1032.77 1231.5 1039.94 1241.05 1054.28 1241.05C1060.29 1241.05 1067.58 1239.55 1076.13 1236.54V1251.78C1069.1 1254.71 1061.25 1256.17 1052.58 1256.17C1040.12 1256.17 1030.59 1252.4 1023.98 1244.86C1017.38 1237.28 1014.08 1226.43 1014.08 1212.28C1014.08 1203.38 1015.7 1195.59 1018.95 1188.91C1022.19 1182.19 1026.84 1177.05 1032.89 1173.5C1038.98 1169.9 1046.11 1168.1 1054.28 1168.1C1062.6 1168.1 1070.96 1170.12 1079.36 1174.14L1073.5 1188.91C1070.29 1187.38 1067.07 1186.05 1063.83 1184.92C1060.59 1183.79 1057.4 1183.22 1054.28 1183.22ZM1094.41 1255V1169.34H1112.58V1255H1094.41ZM1186.58 1255L1180.37 1234.61H1149.14L1142.93 1255H1123.36L1153.59 1168.98H1175.8L1206.15 1255H1186.58ZM1176.04 1219.37C1170.29 1200.9 1167.05 1190.45 1166.31 1188.03C1165.61 1185.6 1165.1 1183.69 1164.79 1182.28C1163.5 1187.28 1159.8 1199.65 1153.71 1219.37H1176.04ZM1216.99 1255V1169.34H1235.16V1240H1269.9V1255H1216.99Z" fill="#BFBFBF"/>
<path d="M169.023 1321.26C169.023 1320.11 168.848 1319.09 168.496 1318.18C168.174 1317.24 167.559 1316.39 166.65 1315.63C165.742 1314.84 164.468 1314.06 162.827 1313.3C161.187 1312.54 159.062 1311.75 156.455 1310.93C153.555 1309.99 150.801 1308.94 148.193 1307.77C145.615 1306.59 143.33 1305.23 141.338 1303.68C139.375 1302.1 137.822 1300.27 136.68 1298.19C135.566 1296.1 135.01 1293.69 135.01 1290.93C135.01 1288.27 135.596 1285.85 136.768 1283.68C137.939 1281.49 139.58 1279.61 141.689 1278.06C143.799 1276.48 146.289 1275.26 149.16 1274.41C152.061 1273.56 155.239 1273.14 158.696 1273.14C163.413 1273.14 167.529 1273.99 171.045 1275.69C174.561 1277.38 177.285 1279.71 179.219 1282.67C181.182 1285.63 182.163 1289.02 182.163 1292.82H169.067C169.067 1290.95 168.672 1289.31 167.881 1287.9C167.119 1286.47 165.947 1285.34 164.365 1284.52C162.812 1283.7 160.85 1283.29 158.477 1283.29C156.191 1283.29 154.287 1283.64 152.764 1284.34C151.24 1285.02 150.098 1285.94 149.336 1287.11C148.574 1288.25 148.193 1289.54 148.193 1290.98C148.193 1292.06 148.457 1293.04 148.984 1293.92C149.541 1294.8 150.361 1295.62 151.445 1296.38C152.529 1297.15 153.862 1297.86 155.444 1298.54C157.026 1299.21 158.857 1299.87 160.938 1300.51C164.424 1301.57 167.485 1302.76 170.122 1304.07C172.788 1305.39 175.015 1306.87 176.802 1308.51C178.589 1310.15 179.937 1312.01 180.845 1314.09C181.753 1316.17 182.207 1318.53 182.207 1321.17C182.207 1323.95 181.665 1326.44 180.581 1328.64C179.497 1330.84 177.93 1332.7 175.879 1334.22C173.828 1335.74 171.382 1336.9 168.54 1337.69C165.698 1338.48 162.52 1338.88 159.004 1338.88C155.84 1338.88 152.72 1338.47 149.644 1337.65C146.567 1336.8 143.77 1335.52 141.25 1333.82C138.76 1332.13 136.768 1329.96 135.273 1327.32C133.779 1324.68 133.032 1321.56 133.032 1317.96H146.26C146.26 1319.95 146.567 1321.64 147.183 1323.01C147.798 1324.39 148.662 1325.5 149.775 1326.35C150.918 1327.2 152.266 1327.82 153.818 1328.2C155.4 1328.58 157.129 1328.77 159.004 1328.77C161.289 1328.77 163.164 1328.45 164.629 1327.8C166.123 1327.16 167.222 1326.27 167.925 1325.12C168.657 1323.98 169.023 1322.69 169.023 1321.26ZM234.106 1327.72V1338H200.049V1327.72H234.106ZM204.355 1274.02V1338H191.172V1274.02H204.355ZM229.668 1300.07V1310.09H200.049V1300.07H229.668ZM234.062 1274.02V1284.34H200.049V1274.02H234.062ZM241.797 1274.02H265.659C270.552 1274.02 274.756 1274.75 278.271 1276.21C281.816 1277.68 284.541 1279.85 286.445 1282.72C288.35 1285.59 289.302 1289.12 289.302 1293.31C289.302 1296.73 288.716 1299.68 287.544 1302.14C286.401 1304.57 284.775 1306.61 282.666 1308.25C280.586 1309.86 278.14 1311.15 275.327 1312.12L271.152 1314.31H250.41L250.322 1304.03H265.747C268.062 1304.03 269.98 1303.62 271.504 1302.8C273.027 1301.98 274.17 1300.84 274.932 1299.37C275.723 1297.91 276.118 1296.21 276.118 1294.27C276.118 1292.22 275.737 1290.45 274.976 1288.96C274.214 1287.46 273.057 1286.32 271.504 1285.53C269.951 1284.74 268.003 1284.34 265.659 1284.34H254.98V1338H241.797V1274.02ZM277.568 1338L262.979 1309.48L276.909 1309.39L291.675 1337.38V1338H277.568ZM321.646 1324.64L336.719 1274.02H351.396L329.116 1338H319.448L321.646 1324.64ZM307.759 1274.02L322.788 1324.64L325.073 1338H315.317L293.169 1274.02H307.759ZM371.392 1274.02V1338H358.252V1274.02H371.392ZM420.83 1316.77H433.97C433.706 1321.08 432.52 1324.9 430.41 1328.24C428.33 1331.58 425.415 1334.19 421.665 1336.07C417.944 1337.94 413.462 1338.88 408.218 1338.88C404.116 1338.88 400.439 1338.18 397.188 1336.77C393.936 1335.33 391.152 1333.28 388.838 1330.62C386.553 1327.95 384.81 1324.73 383.608 1320.95C382.407 1317.17 381.807 1312.94 381.807 1308.25V1303.81C381.807 1299.12 382.422 1294.89 383.652 1291.11C384.912 1287.3 386.699 1284.06 389.014 1281.4C391.357 1278.73 394.155 1276.68 397.407 1275.25C400.659 1273.81 404.292 1273.09 408.306 1273.09C413.638 1273.09 418.135 1274.06 421.797 1275.99C425.488 1277.93 428.345 1280.59 430.366 1283.99C432.417 1287.39 433.647 1291.26 434.058 1295.59H420.874C420.728 1293.01 420.215 1290.83 419.336 1289.04C418.457 1287.23 417.124 1285.87 415.337 1284.96C413.579 1284.02 411.235 1283.55 408.306 1283.55C406.108 1283.55 404.189 1283.96 402.549 1284.78C400.908 1285.6 399.531 1286.85 398.418 1288.52C397.305 1290.19 396.47 1292.3 395.913 1294.85C395.386 1297.36 395.122 1300.32 395.122 1303.72V1308.25C395.122 1311.56 395.371 1314.47 395.869 1316.99C396.367 1319.48 397.129 1321.59 398.154 1323.32C399.209 1325.02 400.557 1326.31 402.197 1327.19C403.867 1328.04 405.874 1328.46 408.218 1328.46C410.972 1328.46 413.242 1328.02 415.029 1327.15C416.816 1326.27 418.179 1324.96 419.116 1323.23C420.083 1321.51 420.654 1319.35 420.83 1316.77ZM485.562 1327.72V1338H451.504V1327.72H485.562ZM455.811 1274.02V1338H442.627V1274.02H455.811ZM481.123 1300.07V1310.09H451.504V1300.07H481.123ZM485.518 1274.02V1284.34H451.504V1274.02H485.518ZM526.562 1321.26C526.562 1320.11 526.387 1319.09 526.035 1318.18C525.713 1317.24 525.098 1316.39 524.189 1315.63C523.281 1314.84 522.007 1314.06 520.366 1313.3C518.726 1312.54 516.602 1311.75 513.994 1310.93C511.094 1309.99 508.34 1308.94 505.732 1307.77C503.154 1306.59 500.869 1305.23 498.877 1303.68C496.914 1302.1 495.361 1300.27 494.219 1298.19C493.105 1296.1 492.549 1293.69 492.549 1290.93C492.549 1288.27 493.135 1285.85 494.307 1283.68C495.479 1281.49 497.119 1279.61 499.229 1278.06C501.338 1276.48 503.828 1275.26 506.699 1274.41C509.6 1273.56 512.778 1273.14 516.235 1273.14C520.952 1273.14 525.068 1273.99 528.584 1275.69C532.1 1277.38 534.824 1279.71 536.758 1282.67C538.721 1285.63 539.702 1289.02 539.702 1292.82H526.606C526.606 1290.95 526.211 1289.31 525.42 1287.9C524.658 1286.47 523.486 1285.34 521.904 1284.52C520.352 1283.7 518.389 1283.29 516.016 1283.29C513.73 1283.29 511.826 1283.64 510.303 1284.34C508.779 1285.02 507.637 1285.94 506.875 1287.11C506.113 1288.25 505.732 1289.54 505.732 1290.98C505.732 1292.06 505.996 1293.04 506.523 1293.92C507.08 1294.8 507.9 1295.62 508.984 1296.38C510.068 1297.15 511.401 1297.86 512.983 1298.54C514.565 1299.21 516.396 1299.87 518.477 1300.51C521.963 1301.57 525.024 1302.76 527.661 1304.07C530.327 1305.39 532.554 1306.87 534.341 1308.51C536.128 1310.15 537.476 1312.01 538.384 1314.09C539.292 1316.17 539.746 1318.53 539.746 1321.17C539.746 1323.95 539.204 1326.44 538.12 1328.64C537.036 1330.84 535.469 1332.7 533.418 1334.22C531.367 1335.74 528.921 1336.9 526.079 1337.69C523.237 1338.48 520.059 1338.88 516.543 1338.88C513.379 1338.88 510.259 1338.47 507.183 1337.65C504.106 1336.8 501.309 1335.52 498.789 1333.82C496.299 1332.13 494.307 1329.96 492.812 1327.32C491.318 1324.68 490.571 1321.56 490.571 1317.96H503.799C503.799 1319.95 504.106 1321.64 504.722 1323.01C505.337 1324.39 506.201 1325.5 507.314 1326.35C508.457 1327.2 509.805 1327.82 511.357 1328.2C512.939 1328.58 514.668 1328.77 516.543 1328.77C518.828 1328.77 520.703 1328.45 522.168 1327.8C523.662 1327.16 524.761 1326.27 525.464 1325.12C526.196 1323.98 526.562 1322.69 526.562 1321.26ZM608.213 1316.77H621.353C621.089 1321.08 619.902 1324.9 617.793 1328.24C615.713 1331.58 612.798 1334.19 609.048 1336.07C605.327 1337.94 600.845 1338.88 595.601 1338.88C591.499 1338.88 587.822 1338.18 584.57 1336.77C581.318 1335.33 578.535 1333.28 576.221 1330.62C573.936 1327.95 572.192 1324.73 570.991 1320.95C569.79 1317.17 569.189 1312.94 569.189 1308.25V1303.81C569.189 1299.12 569.805 1294.89 571.035 1291.11C572.295 1287.3 574.082 1284.06 576.396 1281.4C578.74 1278.73 581.538 1276.68 584.79 1275.25C588.042 1273.81 591.675 1273.09 595.688 1273.09C601.021 1273.09 605.518 1274.06 609.18 1275.99C612.871 1277.93 615.728 1280.59 617.749 1283.99C619.8 1287.39 621.03 1291.26 621.44 1295.59H608.257C608.11 1293.01 607.598 1290.83 606.719 1289.04C605.84 1287.23 604.507 1285.87 602.72 1284.96C600.962 1284.02 598.618 1283.55 595.688 1283.55C593.491 1283.55 591.572 1283.96 589.932 1284.78C588.291 1285.6 586.914 1286.85 585.801 1288.52C584.688 1290.19 583.853 1292.3 583.296 1294.85C582.769 1297.36 582.505 1300.32 582.505 1303.72V1308.25C582.505 1311.56 582.754 1314.47 583.252 1316.99C583.75 1319.48 584.512 1321.59 585.537 1323.32C586.592 1325.02 587.939 1326.31 589.58 1327.19C591.25 1328.04 593.257 1328.46 595.601 1328.46C598.354 1328.46 600.625 1328.02 602.412 1327.15C604.199 1326.27 605.562 1324.96 606.499 1323.23C607.466 1321.51 608.037 1319.35 608.213 1316.77ZM682.568 1304.51V1307.55C682.568 1312.41 681.909 1316.77 680.591 1320.64C679.272 1324.51 677.412 1327.8 675.01 1330.53C672.607 1333.22 669.736 1335.29 666.396 1336.73C663.086 1338.16 659.409 1338.88 655.366 1338.88C651.353 1338.88 647.676 1338.16 644.336 1336.73C641.025 1335.29 638.154 1333.22 635.723 1330.53C633.291 1327.8 631.401 1324.51 630.054 1320.64C628.735 1316.77 628.076 1312.41 628.076 1307.55V1304.51C628.076 1299.62 628.735 1295.26 630.054 1291.42C631.372 1287.55 633.232 1284.25 635.635 1281.53C638.066 1278.81 640.938 1276.73 644.248 1275.29C647.588 1273.85 651.265 1273.14 655.278 1273.14C659.321 1273.14 662.998 1273.85 666.309 1275.29C669.648 1276.73 672.52 1278.81 674.922 1281.53C677.354 1284.25 679.229 1287.55 680.547 1291.42C681.895 1295.26 682.568 1299.62 682.568 1304.51ZM669.253 1307.55V1304.43C669.253 1301.03 668.945 1298.04 668.33 1295.46C667.715 1292.88 666.807 1290.71 665.605 1288.96C664.404 1287.2 662.939 1285.88 661.211 1285C659.482 1284.09 657.505 1283.64 655.278 1283.64C653.052 1283.64 651.074 1284.09 649.346 1285C647.646 1285.88 646.196 1287.2 644.995 1288.96C643.823 1290.71 642.93 1292.88 642.314 1295.46C641.699 1298.04 641.392 1301.03 641.392 1304.43V1307.55C641.392 1310.91 641.699 1313.9 642.314 1316.51C642.93 1319.09 643.838 1321.27 645.039 1323.06C646.24 1324.82 647.705 1326.15 649.434 1327.06C651.162 1327.97 653.14 1328.42 655.366 1328.42C657.593 1328.42 659.57 1327.97 661.299 1327.06C663.027 1326.15 664.478 1324.82 665.649 1323.06C666.821 1321.27 667.715 1319.09 668.33 1316.51C668.945 1313.9 669.253 1310.91 669.253 1307.55ZM698.081 1274.02H709.243L725.679 1320.99L742.114 1274.02H753.276L730.161 1338H721.196L698.081 1274.02ZM692.061 1274.02H703.179L705.2 1319.81V1338H692.061V1274.02ZM748.179 1274.02H759.341V1338H746.157V1319.81L748.179 1274.02ZM776.919 1274.02H788.081L804.517 1320.99L820.952 1274.02H832.114L808.999 1338H800.034L776.919 1274.02ZM770.898 1274.02H782.017L784.038 1319.81V1338H770.898V1274.02ZM827.017 1274.02H838.179V1338H824.995V1319.81L827.017 1274.02ZM863.755 1274.02V1338H850.615V1274.02H863.755ZM909.414 1321.26C909.414 1320.11 909.238 1319.09 908.887 1318.18C908.564 1317.24 907.949 1316.39 907.041 1315.63C906.133 1314.84 904.858 1314.06 903.218 1313.3C901.577 1312.54 899.453 1311.75 896.846 1310.93C893.945 1309.99 891.191 1308.94 888.584 1307.77C886.006 1306.59 883.721 1305.23 881.729 1303.68C879.766 1302.1 878.213 1300.27 877.07 1298.19C875.957 1296.1 875.4 1293.69 875.4 1290.93C875.4 1288.27 875.986 1285.85 877.158 1283.68C878.33 1281.49 879.971 1279.61 882.08 1278.06C884.189 1276.48 886.68 1275.26 889.551 1274.41C892.451 1273.56 895.63 1273.14 899.087 1273.14C903.804 1273.14 907.92 1273.99 911.436 1275.69C914.951 1277.38 917.676 1279.71 919.609 1282.67C921.572 1285.63 922.554 1289.02 922.554 1292.82H909.458C909.458 1290.95 909.062 1289.31 908.271 1287.9C907.51 1286.47 906.338 1285.34 904.756 1284.52C903.203 1283.7 901.24 1283.29 898.867 1283.29C896.582 1283.29 894.678 1283.64 893.154 1284.34C891.631 1285.02 890.488 1285.94 889.727 1287.11C888.965 1288.25 888.584 1289.54 888.584 1290.98C888.584 1292.06 888.848 1293.04 889.375 1293.92C889.932 1294.8 890.752 1295.62 891.836 1296.38C892.92 1297.15 894.253 1297.86 895.835 1298.54C897.417 1299.21 899.248 1299.87 901.328 1300.51C904.814 1301.57 907.876 1302.76 910.513 1304.07C913.179 1305.39 915.405 1306.87 917.192 1308.51C918.979 1310.15 920.327 1312.01 921.235 1314.09C922.144 1316.17 922.598 1318.53 922.598 1321.17C922.598 1323.95 922.056 1326.44 920.972 1328.64C919.888 1330.84 918.32 1332.7 916.27 1334.22C914.219 1335.74 911.772 1336.9 908.931 1337.69C906.089 1338.48 902.91 1338.88 899.395 1338.88C896.23 1338.88 893.11 1338.47 890.034 1337.65C886.958 1336.8 884.16 1335.52 881.641 1333.82C879.15 1332.13 877.158 1329.96 875.664 1327.32C874.17 1324.68 873.423 1321.56 873.423 1317.96H886.65C886.65 1319.95 886.958 1321.64 887.573 1323.01C888.188 1324.39 889.053 1325.5 890.166 1326.35C891.309 1327.2 892.656 1327.82 894.209 1328.2C895.791 1328.58 897.52 1328.77 899.395 1328.77C901.68 1328.77 903.555 1328.45 905.02 1327.8C906.514 1327.16 907.612 1326.27 908.315 1325.12C909.048 1323.98 909.414 1322.69 909.414 1321.26ZM964.873 1321.26C964.873 1320.11 964.697 1319.09 964.346 1318.18C964.023 1317.24 963.408 1316.39 962.5 1315.63C961.592 1314.84 960.317 1314.06 958.677 1313.3C957.036 1312.54 954.912 1311.75 952.305 1310.93C949.404 1309.99 946.65 1308.94 944.043 1307.77C941.465 1306.59 939.18 1305.23 937.188 1303.68C935.225 1302.1 933.672 1300.27 932.529 1298.19C931.416 1296.1 930.859 1293.69 930.859 1290.93C930.859 1288.27 931.445 1285.85 932.617 1283.68C933.789 1281.49 935.43 1279.61 937.539 1278.06C939.648 1276.48 942.139 1275.26 945.01 1274.41C947.91 1273.56 951.089 1273.14 954.546 1273.14C959.263 1273.14 963.379 1273.99 966.895 1275.69C970.41 1277.38 973.135 1279.71 975.068 1282.67C977.031 1285.63 978.013 1289.02 978.013 1292.82H964.917C964.917 1290.95 964.521 1289.31 963.73 1287.9C962.969 1286.47 961.797 1285.34 960.215 1284.52C958.662 1283.7 956.699 1283.29 954.326 1283.29C952.041 1283.29 950.137 1283.64 948.613 1284.34C947.09 1285.02 945.947 1285.94 945.186 1287.11C944.424 1288.25 944.043 1289.54 944.043 1290.98C944.043 1292.06 944.307 1293.04 944.834 1293.92C945.391 1294.8 946.211 1295.62 947.295 1296.38C948.379 1297.15 949.712 1297.86 951.294 1298.54C952.876 1299.21 954.707 1299.87 956.787 1300.51C960.273 1301.57 963.335 1302.76 965.972 1304.07C968.638 1305.39 970.864 1306.87 972.651 1308.51C974.438 1310.15 975.786 1312.01 976.694 1314.09C977.603 1316.17 978.057 1318.53 978.057 1321.17C978.057 1323.95 977.515 1326.44 976.431 1328.64C975.347 1330.84 973.779 1332.7 971.729 1334.22C969.678 1335.74 967.231 1336.9 964.39 1337.69C961.548 1338.48 958.369 1338.88 954.854 1338.88C951.689 1338.88 948.569 1338.47 945.493 1337.65C942.417 1336.8 939.619 1335.52 937.1 1333.82C934.609 1332.13 932.617 1329.96 931.123 1327.32C929.629 1324.68 928.882 1321.56 928.882 1317.96H942.109C942.109 1319.95 942.417 1321.64 943.032 1323.01C943.647 1324.39 944.512 1325.5 945.625 1326.35C946.768 1327.2 948.115 1327.82 949.668 1328.2C951.25 1328.58 952.979 1328.77 954.854 1328.77C957.139 1328.77 959.014 1328.45 960.479 1327.8C961.973 1327.16 963.071 1326.27 963.774 1325.12C964.507 1323.98 964.873 1322.69 964.873 1321.26ZM1001.04 1274.02V1338H987.9V1274.02H1001.04ZM1065.95 1304.51V1307.55C1065.95 1312.41 1065.29 1316.77 1063.97 1320.64C1062.65 1324.51 1060.79 1327.8 1058.39 1330.53C1055.99 1333.22 1053.12 1335.29 1049.78 1336.73C1046.46 1338.16 1042.79 1338.88 1038.75 1338.88C1034.73 1338.88 1031.05 1338.16 1027.71 1336.73C1024.4 1335.29 1021.53 1333.22 1019.1 1330.53C1016.67 1327.8 1014.78 1324.51 1013.43 1320.64C1012.11 1316.77 1011.46 1312.41 1011.46 1307.55V1304.51C1011.46 1299.62 1012.11 1295.26 1013.43 1291.42C1014.75 1287.55 1016.61 1284.25 1019.01 1281.53C1021.45 1278.81 1024.32 1276.73 1027.63 1275.29C1030.97 1273.85 1034.64 1273.14 1038.66 1273.14C1042.7 1273.14 1046.38 1273.85 1049.69 1275.29C1053.03 1276.73 1055.9 1278.81 1058.3 1281.53C1060.73 1284.25 1062.61 1287.55 1063.93 1291.42C1065.27 1295.26 1065.95 1299.62 1065.95 1304.51ZM1052.63 1307.55V1304.43C1052.63 1301.03 1052.32 1298.04 1051.71 1295.46C1051.09 1292.88 1050.19 1290.71 1048.98 1288.96C1047.78 1287.2 1046.32 1285.88 1044.59 1285C1042.86 1284.09 1040.88 1283.64 1038.66 1283.64C1036.43 1283.64 1034.45 1284.09 1032.72 1285C1031.03 1285.88 1029.58 1287.2 1028.37 1288.96C1027.2 1290.71 1026.31 1292.88 1025.69 1295.46C1025.08 1298.04 1024.77 1301.03 1024.77 1304.43V1307.55C1024.77 1310.91 1025.08 1313.9 1025.69 1316.51C1026.31 1319.09 1027.22 1321.27 1028.42 1323.06C1029.62 1324.82 1031.08 1326.15 1032.81 1327.06C1034.54 1327.97 1036.52 1328.42 1038.75 1328.42C1040.97 1328.42 1042.95 1327.97 1044.68 1327.06C1046.41 1326.15 1047.86 1324.82 1049.03 1323.06C1050.2 1321.27 1051.09 1319.09 1051.71 1316.51C1052.32 1313.9 1052.63 1310.91 1052.63 1307.55ZM1127.51 1274.02V1338H1114.33L1088.62 1295.11V1338H1075.44V1274.02H1088.62L1114.38 1316.95V1274.02H1127.51Z" fill="#BFBFBF"/>
<rect x="4" y="1279" width="106" height="23" fill="#BFBFBF"/>
<rect x="4" y="1318" width="106" height="12" fill="#BFBFBF"/>
<rect x="1154" y="1279" width="106" height="23" fill="#BFBFBF"/>
<rect x="1154" y="1318" width="106" height="12" fill="#BFBFBF"/>
<path fill-rule="evenodd" clip-rule="evenodd" d="M666.349 935.152C924.584 935.152 1133.92 725.811 1133.92 467.576C1133.92 209.341 924.584 0 666.349 0C490.239 0 336.87 97.3621 257.131 241.196L574.585 926.151C604.257 932.055 634.942 935.152 666.349 935.152Z" fill="#D3D3D3"/>
<path fill-rule="evenodd" clip-rule="evenodd" d="M1133.91 477.818C1129.95 688.039 987.844 863.236 795.812 918.452L1069.03 231.113C1111.76 303.271 1135.61 387.814 1133.91 477.818Z" fill="#BFBFBF"/>
<path fill-rule="evenodd" clip-rule="evenodd" d="M256.216 245.068C226.36 296.483 206.305 353.754 198.399 414.451L-73 811.035L198.918 535.443C204.541 576.059 215.556 614.941 231.227 651.432L230.871 651.609L78.9355 887.002L258.986 705.722C275.91 734.001 295.819 760.376 318.285 784.467L226.591 937.291L345.785 811.654C373.594 837.008 404.508 859.201 437.894 877.666L389.226 998.279L480.332 898.534C503.317 908.493 527.238 916.774 551.922 923.222L256.216 245.068Z" fill="#BFBFBF"/>
<path fill-rule="evenodd" clip-rule="evenodd" d="M264.272 232.153L767.388 231.112L732.598 362.578H579.306V435.374H706.506L670.629 563.581H622.793L681.501 728.729L851.101 231.112H1069.88L1073.55 237.53L798.605 916.41C756.991 928.608 712.967 935.151 667.42 935.151C626.264 935.151 586.354 929.809 548.34 919.78L256.3 246.404C258.876 241.603 261.534 236.852 264.272 232.153Z" fill="#E9E9E9"/>
</symbol>


<symbol id="icon-menu" viewBox="0 0 24 24" fill="none" xmlns="http://www.w3.org/2000/svg">
<path d="M4 18L20 18" stroke="#000000" stroke-width="2" stroke-linecap="round"/>
<path d="M4 12L20 12" stroke="#000000" stroke-width="2" stroke-linecap="round"/>
<path d="M4 6L20 6" stroke="#000000" stroke-width="2" stroke-linecap="round"/>
</symbol>

<symbol id="icon-close" viewBox="0 0 24 24" fill="none" xmlns="http://www.w3.org/2000/svg">
<path id="Vector" d="M16 16L12 12M12 12L8 8M12 12L16 8M12 12L8 16" stroke="#000000" stroke-width="2" stroke-linecap="round" stroke-linejoin="round"/>
</symbol>

</defs>
</svg>
