<svg width="81" height="60" viewBox="0 0 81 60" fill="none" xmlns="http://www.w3.org/2000/svg">
<path fill-rule="evenodd" clip-rule="evenodd" d="M59.7525 7.04543C59.7525 10.3978 57.0252 13.125 53.6728 13.125C50.3205 13.125 47.5931 10.3978 47.5931 7.04543C47.5931 3.69307 50.3205 0.96582 53.6728 0.96582C57.0252 0.96582 59.7525 3.69307 59.7525 7.04543ZM56.846 7.04543C56.846 5.29576 55.4225 3.8724 53.6728 3.8724C51.9232 3.8724 50.4997 5.29576 50.4997 7.04543C50.4997 8.79509 51.9232 10.2184 53.6728 10.2184C55.4225 10.2184 56.846 8.79509 56.846 7.04543ZM42.5309 27.1735C42.5309 21.0299 47.5292 16.0316 53.6728 16.0316C59.8165 16.0316 64.8147 21.0299 64.8147 27.1735C64.8147 27.9761 64.1641 28.6268 63.3615 28.6268H43.9842C43.1816 28.6268 42.5309 27.9761 42.5309 27.1735ZM53.6728 18.9382C49.6276 18.9382 46.2544 21.8701 45.5659 25.7202H61.7798C61.0913 21.8701 57.718 18.9382 53.6728 18.9382ZM28.9513 11.6351C28.9513 10.5305 29.8467 9.63512 30.9513 9.63512H41.2254C42.3299 9.63512 43.2254 10.5305 43.2254 11.6351C43.2254 12.7397 42.3299 13.6351 41.2254 13.6351H32.9513V37.8888H58.8099C59.3403 37.8888 59.849 38.0996 60.2241 38.4746L66.4912 44.7418V39.8888C66.4912 38.7843 67.3866 37.8888 68.4912 37.8888H76.5677V13.6351H63.5518C62.4472 13.6351 61.5518 12.7397 61.5518 11.6351C61.5518 10.5305 62.4472 9.63512 63.5518 9.63512H78.5677C79.6723 9.63512 80.5677 10.5305 80.5677 11.6351V39.8888C80.5677 40.9934 79.6723 41.8888 78.5677 41.8888H70.4912V49.5702C70.4912 50.3791 70.0039 51.1084 69.2566 51.4179C68.5092 51.7275 67.649 51.5564 67.077 50.9844L57.9814 41.8888H49.7911C49.889 42.1248 49.9431 42.3836 49.9431 42.655V47.3969C49.9431 48.5014 49.0476 49.3969 47.9431 49.3969H25.2596L15.5713 59.0852C14.9994 59.6572 14.1391 59.8283 13.3918 59.5187C12.6444 59.2092 12.1571 58.4799 12.1571 57.671V49.3969H2.5C1.39543 49.3969 0.5 48.5014 0.5 47.3969V16.1795C0.5 15.0749 1.39543 14.1795 2.5 14.1795H25.6167C26.7213 14.1795 27.6167 15.0749 27.6167 16.1795C27.6167 17.284 26.7213 18.1795 25.6167 18.1795H4.5V45.3969H14.1571C15.2617 45.3969 16.1571 46.2923 16.1571 47.3969V52.8425L23.017 45.9827C23.3921 45.6076 23.9008 45.3969 24.4312 45.3969H45.9431V42.655C45.9431 42.3836 45.9971 42.1248 46.0951 41.8888H30.9513C29.8467 41.8888 28.9513 40.9934 28.9513 39.8888V11.6351Z" fill="#42A5F5"/>
</svg>
