<svg xmlns="http://www.w3.org/2000/svg" width="81" height="67" fill="none"><path fill="#1B8CFF" d="M67.25 25.125H38.812v27.219H67.25V25.125Z" opacity=".3"/><path fill="#fff" d="M60.688 52.344v-4.188c0-.833-.346-1.631-.962-2.22a3.357 3.357 0 0 0-2.32-.92h-6.562c-.87 0-1.705.33-2.32.92a3.074 3.074 0 0 0-.962 2.22v4.188" opacity=".5"/><path stroke="#41B2FF" stroke-linecap="round" stroke-miterlimit="10" stroke-width="3" d="M54.125 45.016c4.228 0 7.656-3.281 7.656-7.328 0-4.048-3.428-7.329-7.656-7.329s-7.656 3.281-7.656 7.328c0 4.048 3.428 7.329 7.656 7.329Z"/><path stroke="#41B2FF" stroke-linecap="round" stroke-miterlimit="10" stroke-width="3" d="M54.125 40.828c.58 0 1.137-.22 1.547-.613.41-.393.64-.925.64-1.48M60.688 52.344v-4.188c0-.833-.346-1.631-.962-2.22a3.357 3.357 0 0 0-2.32-.92h-6.562c-.87 0-1.705.33-2.32.92a3.074 3.074 0 0 0-.962 2.22v4.188M60.688 34.547h-17.5"/><path stroke="#1B8CFF" stroke-linejoin="round" stroke-width="3" d="M73.813 18.844H8.186v42.922h65.626V18.844Z"/><path stroke="#1B8CFF" stroke-linecap="round" stroke-linejoin="round" stroke-width="3" d="M33.344 18.844V5.234h15.312v13.61"/><path stroke="#1B8CFF" stroke-linejoin="round" stroke-width="3" d="M33.344 10.469h15.312M33.344 13.61h15.312"/><path stroke="#1B8CFF" stroke-linecap="square" stroke-miterlimit="10" stroke-width="3" d="M67.25 25.125H38.812v27.219H67.25V25.125Z"/><path stroke="#1B8CFF" stroke-linecap="round" stroke-miterlimit="10" stroke-width="3" d="M67.25 56.531h-52.5M33.344 34.547H14.75M33.344 38.734H14.75M33.344 42.922H14.75"/><path stroke="#D9EAFB" stroke-linecap="round" stroke-width="3" d="M2 64.5h77"/></svg>