<svg width="48" height="73" viewBox="0 0 48 73" fill="none" xmlns="http://www.w3.org/2000/svg">
<path fill-rule="evenodd" clip-rule="evenodd" d="M19 7V4H28V7V11V13H19V11V7ZM15 7V2C15 0.895508 15.8954 0 17 0H30C31.1046 0 32 0.895508 32 2V7H44.5C46.1569 7 47.5 8.34326 47.5 10V69C47.5 71.209 45.7091 73 43.5 73H4C1.79083 73 0 71.209 0 69V10C0 8.34326 1.34314 7 3 7H15ZM32 11H43.5V69H4V11H15V15C15 16.1045 15.8954 17 17 17H30C31.1046 17 32 16.1045 32 15V11ZM9 54C9 52.8955 9.89545 52 11 52H36C37.1046 52 38 52.8955 38 54C38 55.1045 37.1046 56 36 56H11C9.89545 56 9 55.1045 9 54ZM9 61C9 59.8955 9.89545 59 11 59H36C37.1046 59 38 59.8955 38 61C38 62.1045 37.1046 63 36 63H11C9.89545 63 9 62.1045 9 61ZM25 30.5C25 31.0078 24.4393 32 23 32C21.5607 32 21 31.0078 21 30.5C21 29.9922 21.5607 29 23 29C24.4393 29 25 29.9922 25 30.5ZM29 30.5C29 33.5376 26.3137 36 23 36C19.6863 36 17 33.5376 17 30.5C17 27.4624 19.6863 25 23 25C26.3137 25 29 27.4624 29 30.5ZM28.871 47H32.871C32.871 41.5127 28.4227 37.0645 22.9355 37.0645C17.4482 37.0645 13 41.5127 13 47H17C17 43.7217 19.6574 41.0645 22.9355 41.0645C26.2136 41.0645 28.871 43.7217 28.871 47Z" fill="#42A5F5"/>
</svg>
