<svg xmlns="http://www.w3.org/2000/svg" width="62" height="73" fill="none"><path fill="#B4D6F8" d="m40 60-3 3 5.5 5.5L59 52l-5-5.5-4.5 4.5-9.5 9Z"/><path stroke="#1B8CFF" stroke-linecap="round" stroke-width="3" d="m40 60-3.9-3.9a14 14 0 0 0-9.899-4.1H14.5L3.25 40.75a3.182 3.182 0 0 1 0-4.5v0a3.182 3.182 0 0 1 4.5 0L17 45.5h8.75a2.75 2.75 0 0 0 2.75-2.75v0A2.75 2.75 0 0 0 25.75 40h-6a2.25 2.25 0 0 1-2.25-2.25v0a2.25 2.25 0 0 1 2.25-2.25H33.5l16 15.5M40 60l-3 3 5.5 5.5L59 52l-5-5.5-4.5 4.5M40 60l9.5-9"/><path stroke="#D4E8FB" stroke-linecap="round" stroke-width="3" d="M20 71h36.5"/><circle cx="17" cy="16" r="14.5" fill="#B4D6F8" stroke="#1B8CFF" stroke-width="3"/><path stroke="#D9EAFB" stroke-linecap="round" stroke-width="2" d="M6 18v-2C6 9.925 10.925 5 17 5v0c6.075 0 11 4.925 11 11v2"/><path fill="#F5F5F5" d="M17.792 10.468v2.016h-1.066v-2.016h1.066Zm-.13 11.163v1.839h-1.066v-1.84h1.066Zm.752-2.242c0-.26-.048-.481-.144-.663a1.293 1.293 0 0 0-.45-.486 3.94 3.94 0 0 0-.835-.41 11.777 11.777 0 0 1-1.565-.724 3.06 3.06 0 0 1-1.046-.964c-.25-.388-.376-.878-.376-1.47 0-.565.135-1.055.403-1.47a2.63 2.63 0 0 1 1.115-.957c.478-.228 1.034-.342 1.668-.342.483 0 .92.073 1.312.22a2.715 2.715 0 0 1 1.661 1.634c.15.395.226.849.226 1.36H18.42c0-.274-.03-.516-.089-.725a1.46 1.46 0 0 0-.26-.527 1.015 1.015 0 0 0-.396-.314 1.19 1.19 0 0 0-.513-.11c-.278 0-.506.055-.683.164a.97.97 0 0 0-.39.445 1.597 1.597 0 0 0-.116.629c0 .232.04.435.123.608.086.173.234.333.444.479.21.14.497.287.861.437.593.228 1.112.474 1.559.738a3.12 3.12 0 0 1 1.046.971c.25.383.376.87.376 1.463 0 .588-.137 1.09-.41 1.504a2.62 2.62 0 0 1-1.149.943c-.492.215-1.062.322-1.709.322-.419 0-.836-.055-1.25-.164a3.368 3.368 0 0 1-1.129-.547 2.658 2.658 0 0 1-.806-.998c-.2-.42-.301-.935-.301-1.545h1.969c0 .332.043.61.13.834.086.218.2.394.341.526.146.128.31.219.492.273.183.055.367.082.554.082.292 0 .531-.052.718-.157.191-.105.335-.248.43-.43.1-.187.151-.397.151-.63Z"/><path stroke="#1B8CFF" stroke-linecap="round" stroke-width="2" d="M56.5 49.5 51 55M40.5 65l5-5"/></svg>