<svg xmlns="http://www.w3.org/2000/svg" width="79" height="52" fill="none"><path stroke="#1B8CFF" stroke-linecap="round" stroke-width="3" d="M5 7.61h43.442v24.43a3 3 0 0 1-3 3H30.362l-11.22 11.22V35.04H5a3 3 0 0 1-3-3V10.61a3 3 0 0 1 3-3Z"/><circle cx="25.887" cy="15.403" r="3.429" fill="#B4D6F8"/><path fill="#B4D6F8" fill-rule="evenodd" d="M32.943 25.689H19.455a6.86 6.86 0 0 1 13.488 0Z" clip-rule="evenodd"/><path fill="#D9EAFB" stroke="#1B8CFF" stroke-linecap="round" stroke-width="3" d="M74.116 2H33.675a3 3 0 0 0-3 3v21.428a3 3 0 0 0 3 3h15.078l11.22 11.221v-11.22h14.143a3 3 0 0 0 3-3V5a3 3 0 0 0-3-3Z"/><circle cx="53.428" cy="11.039" r="3.429" fill="#1B8CFF"/><path fill="#1B8CFF" fill-rule="evenodd" d="M60.484 21.325H46.996a6.86 6.86 0 0 1 13.488 0Z" clip-rule="evenodd"/><circle cx="8.857" cy="30.052" r="1.247" fill="#1B8CFF"/><circle cx="13.221" cy="30.052" r="1.247" fill="#1B8CFF"/><path stroke="#D9EAFB" stroke-linecap="round" stroke-width="3" d="M7.831 50h61"/></svg>