<svg width="72" height="74" viewBox="0 0 72 74" fill="none" xmlns="http://www.w3.org/2000/svg">
<path fill-rule="evenodd" clip-rule="evenodd" d="M34.7367 15.5309C34.7367 22.7628 28.8565 28.6255 21.6029 28.6255C14.3493 28.6255 8.46913 22.7628 8.46913 15.5309C8.46913 8.29889 14.3493 2.43621 21.6029 2.43621C28.8565 2.43621 34.7367 8.29889 34.7367 15.5309ZM37.1802 15.5309C37.1802 24.1083 30.206 31.0617 21.6029 31.0617C12.9998 31.0617 6.02564 24.1083 6.02564 15.5309C6.02564 6.9534 12.9998 0 21.6029 0C30.206 0 37.1802 6.9534 37.1802 15.5309ZM1.58595 32.7258C3.70054 30.6175 7.12899 30.6175 9.24358 32.7258L18.4713 41.9261C19.1214 42.5742 20.003 42.9383 20.9223 42.9383H32.2932C33.1366 42.9383 33.8204 42.2566 33.8204 41.4156C33.8204 40.5747 33.1366 39.893 32.2932 39.893H23.4355C21.0739 39.893 19.1594 37.9842 19.1594 35.6296C19.1594 33.275 21.0739 31.3663 23.4355 31.3663H39.9291C40.3342 31.3663 40.7226 31.5267 41.009 31.8122L56.2809 47.0386L59.9352 50.6821L63.5896 47.0386C64.186 46.4439 65.153 46.4439 65.7494 47.0386L71.5527 52.8246C72.1491 53.4192 72.1491 54.3833 71.5527 54.9779L52.9211 73.554C52.3246 74.1487 51.3577 74.1487 50.7613 73.554L44.958 67.768C44.3616 67.1734 44.3616 66.2093 44.958 65.6147L48.3069 62.2757L44.5657 58.5456C42.5609 56.5468 39.8418 55.4239 37.0065 55.4239H17.3268C16.9218 55.4239 16.5333 55.2634 16.2469 54.9779L1.58595 40.3606C-0.528648 38.2523 -0.52865 34.8341 1.58595 32.7258ZM7.08381 34.8791C6.16202 33.9601 4.6675 33.9601 3.74571 34.8791C2.82392 35.7982 2.82392 37.2882 3.74571 38.2073L17.9594 52.3786H37.0065C40.6519 52.3786 44.1479 53.8224 46.7255 56.3923L50.033 59.6899L54.1565 55.8357L54.1589 55.8334L57.5849 52.6454L54.1211 49.1919L39.2965 34.4115H23.4355C22.7608 34.4115 22.2138 34.9569 22.2138 35.6296C22.2138 36.3024 22.7608 36.8477 23.4355 36.8477H32.2932C34.8235 36.8477 36.8748 38.8929 36.8748 41.4156C36.8748 43.9384 34.8235 45.9835 32.2932 45.9835H20.9223C19.1929 45.9835 17.5344 45.2986 16.3116 44.0794L7.08381 34.8791ZM64.6695 50.2686L51.3939 63.5047L48.1976 66.6914L51.8412 70.324L68.313 53.9012L64.6695 50.2686ZM21.9084 22.535C25.9569 22.535 29.2388 19.2628 29.2388 15.2263C29.2388 11.1899 25.9569 7.9177 21.9084 7.9177C17.8598 7.9177 14.5779 11.1899 14.5779 15.2263C14.5779 19.2628 17.8598 22.535 21.9084 22.535ZM21.9084 24.3621C26.969 24.3621 31.0715 20.2719 31.0715 15.2263C31.0715 10.1808 26.969 6.09054 21.9084 6.09054C16.8477 6.09054 12.7452 10.1808 12.7452 15.2263C12.7452 20.2719 16.8477 24.3621 21.9084 24.3621ZM22.1006 11.9319V10.963H21.4255V11.9183C21.1424 11.9462 20.8871 12.0163 20.6594 12.1286C20.3593 12.275 20.1242 12.4842 19.9539 12.7562C19.7837 13.0282 19.6986 13.3494 19.6986 13.72C19.6986 14.1086 19.7779 14.4298 19.9366 14.6839C20.0953 14.9349 20.316 15.1456 20.5988 15.316C20.8845 15.4834 21.2148 15.6418 21.5899 15.7912C21.8121 15.8779 21.9881 15.9675 22.118 16.0602C22.2507 16.1528 22.3459 16.2589 22.4036 16.3785C22.4642 16.498 22.4945 16.643 22.4945 16.8133C22.4945 16.9658 22.4628 17.1032 22.3993 17.2258C22.3387 17.3453 22.2478 17.4395 22.1266 17.5082C22.0083 17.5769 21.8568 17.6113 21.6722 17.6113C21.5539 17.6113 21.437 17.5934 21.3216 17.5575C21.2062 17.5217 21.1023 17.4619 21.01 17.3782C20.9205 17.2915 20.8484 17.1765 20.7936 17.033C20.7387 16.8866 20.7113 16.7042 20.7113 16.4861H19.4649C19.4649 16.8866 19.5283 17.2243 19.6553 17.4992C19.7822 17.7712 19.9525 17.9894 20.166 18.1538C20.3795 18.3181 20.6176 18.4377 20.8801 18.5124C21.034 18.5544 21.1884 18.5842 21.3432 18.6016V19.4897H22.0184V18.602C22.2883 18.573 22.5335 18.5088 22.7542 18.4093C23.0658 18.2658 23.3082 18.0596 23.4813 17.7906C23.6544 17.5187 23.741 17.1899 23.741 16.8044C23.741 16.4158 23.6616 16.096 23.5029 15.845C23.3442 15.5939 23.1235 15.3818 22.8407 15.2084C22.558 15.0351 22.229 14.8737 21.8539 14.7242C21.6231 14.6256 21.4413 14.53 21.3086 14.4373C21.1759 14.3417 21.0821 14.2371 21.0273 14.1235C20.9753 14.0099 20.9494 13.8769 20.9494 13.7245C20.9494 13.5691 20.9739 13.4316 21.023 13.3121C21.0749 13.1895 21.1571 13.0924 21.2697 13.0207C21.3822 12.949 21.5265 12.9131 21.7025 12.9131C21.8208 12.9131 21.929 12.937 22.0271 12.9848C22.1252 13.0296 22.2088 13.0984 22.2781 13.191C22.3502 13.2837 22.405 13.3987 22.4426 13.5362C22.4801 13.6737 22.4988 13.8321 22.4988 14.0114H23.741C23.741 13.6767 23.6934 13.3793 23.5981 13.1193C23.5029 12.8593 23.3659 12.6396 23.187 12.4603C23.0081 12.278 22.7946 12.1405 22.5464 12.0479C22.4069 11.9941 22.2584 11.9555 22.1006 11.9319Z" fill="#42A5F5"/>
</svg>
