<svg width="159" height="33" viewBox="0 0 159 33" fill="none" xmlns="http://www.w3.org/2000/svg">
<path d="M29.9495 9.78522H31.6133L36.2484 20.9569H33.9903L32.8612 18.0451H28.761L27.6319 20.9569H25.3738L29.9495 9.78522ZM32.0887 16.0841L30.8408 12.8158L29.5929 16.0841H32.0887Z" fill="#2196F3"/>
<path d="M37.4369 9.78522H40.5269C45.6373 9.78522 46.5287 13.2318 46.5287 15.4305C46.5287 16.6189 46.2316 20.9569 40.5863 20.9569H37.4369V9.78522ZM40.5269 18.9959C41.656 18.9959 44.4489 18.877 44.4489 15.4899C44.4489 11.9839 41.5371 11.865 40.4081 11.865H39.5167V18.9959H40.5269Z" fill="#2196F3"/>
<path d="M48.0143 9.78522H51.2231C54.9668 9.78522 55.4422 12.281 55.4422 13.3506C55.4422 15.1333 54.2537 16.6784 52.4116 16.8566L55.5611 20.9569H53.0058L50.0941 16.8566H50.0347V20.9569H47.9548V9.78522H48.0143ZM50.0941 15.1333H51.342C51.8174 15.1333 53.4218 15.074 53.4218 13.4695C53.4218 11.8651 51.8174 11.8056 51.342 11.8056H50.0941V15.1333Z" fill="#2196F3"/>
<path d="M67.9806 15.4899C67.9806 18.6987 65.4254 21.3134 62.0977 21.3134C58.77 21.3134 56.2147 18.7581 56.2147 15.4899C56.2147 12.281 58.77 9.66638 62.0977 9.66638C65.4254 9.66638 67.9806 12.2216 67.9806 15.4899ZM65.9008 15.4304C65.9008 13.3506 64.2963 11.6273 62.0977 11.6273C59.899 11.6273 58.2945 13.3506 58.2945 15.4304C58.2945 17.5697 59.9584 19.293 62.0977 19.293C64.2963 19.2336 65.9008 17.5103 65.9008 15.4304Z" fill="#2196F3"/>
<path d="M19.3127 0.990479H16.5198V24.8787H19.3127V0.990479Z" fill="#1976D2"/>
<path d="M15.153 11.9838H12.3601V32.0095H15.153V11.9838Z" fill="#1E88E5"/>
<path d="M11.0528 10.4982H8.25989V24.8787H11.0528V10.4982Z" fill="#2196F3"/>
<path d="M6.89312 6.4574H4.10022V17.4508H6.89312V6.4574Z" fill="#42A5F5"/>
<path d="M2.7929 13.7071H0V21.1945H2.7929V13.7071Z" fill="#64B5F6"/>
<path d="M70.8359 9.80768H76.5405V11.8281H72.9157V14.3833H76.3623V16.4037H72.9157V20.9793H70.8359V9.80768Z" fill="#F44336"/>
<path d="M80.9973 15.3934L77.1348 9.80762H79.5711L82.2452 13.6702L84.9193 9.80762H87.3556L83.4931 15.3934L87.3556 20.9792H84.8598L82.1858 17.1167L79.5117 20.9792H77.1348L80.9973 15.3934Z" fill="#F44336"/>
<line x1="95.5778" y1="5.15015" x2="95.5778" y2="25.9484" stroke="black"/>
<path d="M119.11 12.4288H117.987V11.7204H119.11C119.284 11.7204 119.425 11.6922 119.534 11.6356C119.643 11.5771 119.723 11.4964 119.773 11.3935C119.824 11.2905 119.849 11.1745 119.849 11.0453C119.849 10.9141 119.824 10.792 119.773 10.679C119.723 10.566 119.643 10.4752 119.534 10.4065C119.425 10.3379 119.284 10.3036 119.11 10.3036H118.302V14H117.394V9.59219H119.11C119.455 9.59219 119.751 9.65475 119.997 9.77988C120.245 9.90299 120.435 10.0735 120.566 10.2915C120.697 10.5095 120.763 10.7587 120.763 11.0393C120.763 11.3238 120.697 11.5701 120.566 11.7779C120.435 11.9858 120.245 12.1463 119.997 12.2593C119.751 12.3723 119.455 12.4288 119.11 12.4288ZM124.012 10.346L122.813 14H121.848L123.486 9.59219H124.1L124.012 10.346ZM125.008 14L123.806 10.346L123.71 9.59219H124.33L125.977 14H125.008ZM124.954 12.3592V13.0706H122.626V12.3592H124.954ZM127.719 9.59219H129.363C129.7 9.59219 129.989 9.64264 130.231 9.74355C130.476 9.84447 130.663 9.99382 130.795 10.1916C130.926 10.3894 130.991 10.6326 130.991 10.9212C130.991 11.1573 130.951 11.3602 130.87 11.5297C130.791 11.6972 130.679 11.8375 130.534 11.9505C130.391 12.0615 130.222 12.1503 130.029 12.2169L129.741 12.3683H128.312L128.306 11.6599H129.369C129.528 11.6599 129.66 11.6316 129.765 11.5751C129.87 11.5186 129.949 11.4399 130.001 11.339C130.056 11.2381 130.083 11.121 130.083 10.9878C130.083 10.8465 130.057 10.7244 130.004 10.6215C129.952 10.5186 129.872 10.4398 129.765 10.3854C129.658 10.3309 129.524 10.3036 129.363 10.3036H128.627V14H127.719V9.59219ZM130.183 14L129.178 12.0353L130.138 12.0292L131.155 13.9576V14H130.183ZM134.813 9.59219V14H133.908V9.59219H134.813ZM136.169 9.59219V10.3036H132.573V9.59219H136.169ZM141.607 9.59219V14H140.699L138.928 11.0453V14H138.02V9.59219H138.928L140.702 12.5499V9.59219H141.607ZM146.688 13.2916V14H144.342V13.2916H146.688ZM144.638 9.59219V14H143.73V9.59219H144.638ZM146.382 11.3874V12.0776H144.342V11.3874H146.382ZM146.685 9.59219V10.3036H144.342V9.59219H146.685ZM148.551 9.59219H150.195C150.532 9.59219 150.821 9.64264 151.063 9.74355C151.308 9.84447 151.495 9.99382 151.627 10.1916C151.758 10.3894 151.823 10.6326 151.823 10.9212C151.823 11.1573 151.783 11.3602 151.702 11.5297C151.623 11.6972 151.511 11.8375 151.366 11.9505C151.223 12.0615 151.054 12.1503 150.861 12.2169L150.573 12.3683H149.144L149.138 11.6599H150.201C150.36 11.6599 150.492 11.6316 150.597 11.5751C150.702 11.5186 150.781 11.4399 150.833 11.339C150.888 11.2381 150.915 11.121 150.915 10.9878C150.915 10.8465 150.889 10.7244 150.836 10.6215C150.784 10.5186 150.704 10.4398 150.597 10.3854C150.49 10.3309 150.356 10.3036 150.195 10.3036H149.459V14H148.551V9.59219ZM151.015 14L150.01 12.0353L150.97 12.0292L151.987 13.9576V14H151.015ZM156.15 12.8466C156.15 12.7679 156.138 12.6972 156.114 12.6347C156.092 12.5701 156.049 12.5116 155.987 12.4591C155.924 12.4046 155.837 12.3511 155.723 12.2986C155.61 12.2462 155.464 12.1917 155.285 12.1352C155.085 12.0706 154.895 11.9979 154.715 11.9172C154.538 11.8365 154.38 11.7426 154.243 11.6356C154.108 11.5267 154.001 11.4005 153.922 11.2572C153.846 11.1139 153.807 10.9474 153.807 10.7577C153.807 10.5741 153.848 10.4076 153.928 10.2582C154.009 10.1068 154.122 9.97767 154.267 9.8707C154.413 9.76172 154.584 9.67796 154.782 9.61943C154.982 9.56091 155.201 9.53164 155.439 9.53164C155.764 9.53164 156.047 9.59017 156.29 9.70723C156.532 9.82428 156.719 9.98473 156.853 10.1886C156.988 10.3924 157.056 10.6255 157.056 10.8879H156.153C156.153 10.7587 156.126 10.6457 156.072 10.5488C156.019 10.4499 155.938 10.3722 155.829 10.3157C155.722 10.2592 155.587 10.231 155.424 10.231C155.266 10.231 155.135 10.2552 155.03 10.3036C154.925 10.35 154.847 10.4136 154.794 10.4943C154.742 10.573 154.715 10.6618 154.715 10.7607C154.715 10.8354 154.734 10.903 154.77 10.9636C154.808 11.0241 154.865 11.0806 154.939 11.1331C155.014 11.1856 155.106 11.235 155.215 11.2814C155.324 11.3279 155.45 11.3733 155.593 11.4177C155.833 11.4903 156.044 11.5721 156.226 11.6629C156.41 11.7537 156.563 11.8556 156.686 11.9687C156.809 12.0817 156.902 12.2098 156.965 12.3531C157.027 12.4964 157.059 12.6589 157.059 12.8405C157.059 13.0323 157.021 13.2038 156.947 13.3552C156.872 13.5065 156.764 13.6347 156.623 13.7396C156.481 13.8446 156.313 13.9243 156.117 13.9788C155.921 14.0333 155.702 14.0605 155.46 14.0605C155.242 14.0605 155.027 14.0323 154.815 13.9758C154.603 13.9173 154.411 13.8295 154.237 13.7124C154.066 13.5953 153.928 13.446 153.825 13.2644C153.722 13.0827 153.671 12.8678 153.671 12.6195H154.582C154.582 12.7568 154.603 12.8728 154.646 12.9677C154.688 13.0625 154.748 13.1392 154.824 13.1978C154.903 13.2563 154.996 13.2987 155.103 13.3249C155.212 13.3511 155.331 13.3643 155.46 13.3643C155.618 13.3643 155.747 13.3421 155.848 13.2977C155.951 13.2533 156.026 13.1917 156.075 13.113C156.125 13.0343 156.15 12.9455 156.15 12.8466Z" fill="#232323"/>
<path d="M119.184 17.4988L117.215 22.8464H116.715L118.863 17.1589H119.211L119.184 17.4988ZM120.973 22.8464L119 17.4988L118.973 17.1589H119.32L121.473 22.8464H120.973ZM120.621 20.8386V21.2527H117.602V20.8386H120.621ZM122.797 17.1589V22.8464H122.317V17.1589H122.797ZM125.445 19.7761V20.1902H122.637V19.7761H125.445ZM125.84 17.1589V17.573H122.637V17.1589H125.84ZM127.297 17.1589V22.8464H126.817V17.1589H127.297ZM129.945 19.7761V20.1902H127.137V19.7761H129.945ZM130.34 17.1589V17.573H127.137V17.1589H130.34ZM131.902 17.1589V22.8464H131.422V17.1589H131.902ZM136.738 22.4363V22.8464H133.789V22.4363H136.738ZM133.93 17.1589V22.8464H133.449V17.1589H133.93ZM138.254 17.1589V22.8464H137.774V17.1589H138.254ZM141.738 17.4988L139.77 22.8464H139.27L141.418 17.1589H141.766L141.738 17.4988ZM143.527 22.8464L141.555 17.4988L141.527 17.1589H141.875L144.027 22.8464H143.527ZM143.176 20.8386V21.2527H140.156V20.8386H143.176ZM146.27 17.1589V22.8464H145.793V17.1589H146.27ZM148.219 17.1589V17.573H143.848V17.1589H148.219ZM152.68 22.4363V22.8464H149.481V22.4363H152.68ZM149.625 17.1589V22.8464H149.145V17.1589H149.625ZM152.281 19.7097V20.1199H149.481V19.7097H152.281ZM152.66 17.1589V17.573H149.481V17.1589H152.66ZM156.918 21.448C156.918 21.2917 156.892 21.1524 156.84 21.03C156.788 20.9076 156.702 20.7983 156.582 20.7019C156.465 20.6029 156.306 20.5118 156.106 20.4285C155.908 20.3425 155.66 20.2579 155.363 20.1746C155.08 20.0938 154.823 20.0053 154.594 19.9089C154.365 19.8126 154.168 19.7019 154.004 19.5769C153.843 19.4519 153.719 19.3061 153.633 19.1394C153.547 18.9701 153.504 18.7735 153.504 18.5496C153.504 18.3308 153.551 18.1316 153.645 17.9519C153.738 17.7722 153.87 17.6173 154.039 17.4871C154.211 17.3569 154.413 17.2566 154.645 17.1863C154.879 17.116 155.136 17.0808 155.414 17.0808C155.813 17.0808 156.156 17.1563 156.445 17.3074C156.737 17.4584 156.962 17.6628 157.121 17.9207C157.283 18.1759 157.363 18.4623 157.363 18.78H156.883C156.883 18.5326 156.824 18.3126 156.707 18.1199C156.593 17.9246 156.426 17.7722 156.207 17.6628C155.991 17.5509 155.727 17.4949 155.414 17.4949C155.102 17.4949 154.839 17.5431 154.625 17.6394C154.414 17.7332 154.254 17.8595 154.145 18.0183C154.038 18.1746 153.984 18.349 153.984 18.5417C153.984 18.6772 154.011 18.8022 154.063 18.9167C154.115 19.0287 154.199 19.1342 154.317 19.2332C154.436 19.3295 154.594 19.4207 154.789 19.5066C154.984 19.5899 155.225 19.6694 155.512 19.7449C155.814 19.8282 156.082 19.9207 156.317 20.0222C156.551 20.1238 156.749 20.241 156.91 20.3738C157.072 20.504 157.194 20.6563 157.277 20.8308C157.361 21.0053 157.402 21.2084 157.402 21.4402C157.402 21.672 157.353 21.8803 157.254 22.0652C157.158 22.2475 157.021 22.4024 156.844 22.53C156.669 22.6576 156.462 22.7553 156.223 22.823C155.986 22.8907 155.727 22.9246 155.445 22.9246C155.193 22.9246 154.942 22.892 154.692 22.8269C154.442 22.7618 154.212 22.6615 154.004 22.5261C153.798 22.3881 153.633 22.211 153.508 21.9949C153.386 21.7787 153.324 21.5209 153.324 21.2214H153.801C153.801 21.461 153.849 21.6628 153.945 21.8269C154.042 21.991 154.169 22.1238 154.328 22.2253C154.49 22.3269 154.667 22.4011 154.859 22.448C155.055 22.4923 155.25 22.5144 155.445 22.5144C155.745 22.5144 156.004 22.4701 156.223 22.3816C156.444 22.2931 156.615 22.1694 156.734 22.0105C156.857 21.849 156.918 21.6615 156.918 21.448Z" fill="#4B4B4B"/>
<path d="M112.982 23C112.835 23 112.615 23 112.322 23C112.029 23 111.721 23 111.398 23C111.09 23 110.819 23 110.584 23C110.364 23 110.254 23 110.254 23L102.73 13.012C102.598 12.8067 102.437 12.55 102.246 12.242C102.07 11.9193 101.916 11.5673 101.784 11.186C101.652 10.79 101.586 10.3793 101.586 9.954C101.586 9.338 101.733 8.75867 102.026 8.216C102.334 7.65867 102.781 7.204 103.368 6.852C103.969 6.48533 104.695 6.302 105.546 6.302C106.455 6.302 107.262 6.48533 107.966 6.852C108.67 7.204 109.242 7.62933 109.682 8.128L108.516 9.69C108.061 9.26467 107.614 8.92733 107.174 8.678C106.749 8.414 106.331 8.282 105.92 8.282C105.304 8.282 104.827 8.46533 104.49 8.832C104.167 9.19867 104.006 9.63867 104.006 10.152C104.006 10.4013 104.057 10.6653 104.16 10.944C104.277 11.208 104.387 11.4427 104.49 11.648C104.607 11.8387 104.681 11.956 104.71 12L112.982 23ZM104.754 15.41C104.358 15.41 103.969 15.4907 103.588 15.652C103.207 15.7987 102.869 16.0113 102.576 16.29C102.283 16.554 102.048 16.862 101.872 17.214C101.711 17.566 101.63 17.9473 101.63 18.358C101.63 18.9153 101.769 19.3993 102.048 19.81C102.341 20.2207 102.73 20.5433 103.214 20.778C103.698 21.0127 104.226 21.13 104.798 21.13C105.341 21.13 105.81 21.0493 106.206 20.888C106.617 20.712 106.961 20.492 107.24 20.228C107.533 19.9493 107.753 19.6413 107.9 19.304L109.396 20.602C109.015 21.3353 108.406 21.9587 107.57 22.472C106.749 22.9707 105.722 23.22 104.49 23.22C103.493 23.22 102.591 23.0147 101.784 22.604C100.992 22.1933 100.361 21.6287 99.892 20.91C99.4227 20.1913 99.188 19.3773 99.188 18.468C99.188 17.7787 99.342 17.1407 99.65 16.554C99.9727 15.9527 100.398 15.4393 100.926 15.014C101.454 14.574 102.041 14.2293 102.686 13.98C103.346 13.716 104.021 13.5767 104.71 13.562L104.754 15.41ZM110.122 13.562H112.278L109.66 20.228L107.966 19.172L110.122 13.562Z" fill="black"/>
</svg>
