<svg width="184" height="36" viewBox="0 0 184 36" fill="none" xmlns="http://www.w3.org/2000/svg">
<path d="M34.7586 10.2065H36.6896L42.069 23.1721H39.4483L38.1379 19.7928H33.3793L32.0689 23.1721H29.4482L34.7586 10.2065ZM37.2414 17.5169L35.7931 13.7238L34.3448 17.5169H37.2414Z" fill="#2196F3"/>
<path d="M43.4484 10.2065H47.0346C52.9656 10.2065 54.0001 14.2065 54.0001 16.7583C54.0001 18.1376 53.6553 23.1721 47.1035 23.1721H43.4484V10.2065ZM47.0346 20.8962C48.3449 20.8962 51.5863 20.7583 51.5863 16.8272C51.5863 12.7583 48.207 12.6203 46.8966 12.6203H45.8622V20.8962H47.0346Z" fill="#2196F3"/>
<path d="M55.7242 10.2065H59.4483C63.7932 10.2065 64.3449 13.1031 64.3449 14.3445C64.3449 16.4134 62.9656 18.2066 60.8276 18.4135L64.4828 23.1721H61.5173L58.138 18.4135H58.069V23.1721H55.6552V10.2065H55.7242ZM58.138 16.4134H59.5863C60.138 16.4134 62.0001 16.3445 62.0001 14.4825C62.0001 12.6204 60.138 12.5514 59.5863 12.5514H58.138V16.4134Z" fill="#2196F3"/>
<path d="M78.8967 16.8274C78.8967 20.5516 75.9311 23.5861 72.0691 23.5861C68.207 23.5861 65.2415 20.6205 65.2415 16.8274C65.2415 13.1033 68.207 10.0688 72.0691 10.0688C75.9311 10.0688 78.8967 13.0343 78.8967 16.8274ZM76.4829 16.7585C76.4829 14.3447 74.6208 12.3447 72.0691 12.3447C69.5173 12.3447 67.6553 14.3447 67.6553 16.7585C67.6553 19.2412 69.5863 21.2412 72.0691 21.2412C74.6208 21.1723 76.4829 19.1723 76.4829 16.7585Z" fill="#2196F3"/>
<path d="M22.4138 0H19.1724V27.7241H22.4138V0Z" fill="#1976D2"/>
<path d="M17.5862 12.7583H14.3448V35.9997H17.5862V12.7583Z" fill="#1E88E5"/>
<path d="M12.8276 11.0347H9.58624V27.7243H12.8276V11.0347Z" fill="#2196F3"/>
<path d="M7.99998 6.34473H4.75861V19.1034H7.99998V6.34473Z" fill="#42A5F5"/>
<path d="M3.24137 14.7588H0V23.4485H3.24137V14.7588Z" fill="#64B5F6"/>
<path d="M82.2104 10.2334H88.8311V12.5782H84.6242V15.5438H88.6242V17.8886H84.6242V23.1989H82.2104V10.2334Z" fill="#F44336"/>
<path d="M94.0035 16.7162L89.5208 10.2334H92.3483L95.4518 14.7162L98.5552 10.2334H101.383L96.9001 16.7162L101.383 23.1989H98.4863L95.3828 18.7162L92.2794 23.1989H89.5208L94.0035 16.7162Z" fill="#F44336"/>
<line x1="109.5" y1="4.82764" x2="109.5" y2="28.9656" stroke="white"/>
<path d="M137.897 12.5641H136.774V11.8557H137.897C138.071 11.8557 138.212 11.8274 138.321 11.7709C138.43 11.7124 138.51 11.6316 138.56 11.5287C138.611 11.4258 138.636 11.3097 138.636 11.1806C138.636 11.0494 138.611 10.9273 138.56 10.8143C138.51 10.7012 138.43 10.6104 138.321 10.5418C138.212 10.4732 138.071 10.4389 137.897 10.4389H137.089V14.1353H136.181V9.72744H137.897C138.243 9.72744 138.538 9.79001 138.784 9.91514C139.033 10.0382 139.222 10.2088 139.354 10.4268C139.485 10.6447 139.55 10.894 139.55 11.1745C139.55 11.4591 139.485 11.7053 139.354 11.9132C139.222 12.1211 139.033 12.2815 138.784 12.3945C138.538 12.5076 138.243 12.5641 137.897 12.5641ZM142.8 10.4813L141.601 14.1353H140.635L142.273 9.72744H142.887L142.8 10.4813ZM143.796 14.1353L142.594 10.4813L142.497 9.72744H143.118L144.764 14.1353H143.796ZM143.741 12.4944V13.2059H141.413V12.4944H143.741ZM146.506 9.72744H148.15C148.487 9.72744 148.777 9.7779 149.019 9.87881C149.263 9.97972 149.451 10.1291 149.582 10.3269C149.713 10.5246 149.779 10.7678 149.779 11.0564C149.779 11.2926 149.738 11.4954 149.658 11.6649C149.579 11.8325 149.467 11.9727 149.322 12.0857C149.178 12.1967 149.01 12.2855 148.816 12.3521L148.528 12.5035H147.099L147.093 11.7951H148.156C148.315 11.7951 148.448 11.7669 148.553 11.7104C148.658 11.6538 148.736 11.5751 148.789 11.4742C148.843 11.3733 148.87 11.2563 148.87 11.123C148.87 10.9818 148.844 10.8597 148.792 10.7567C148.739 10.6538 148.66 10.5751 148.553 10.5206C148.446 10.4661 148.311 10.4389 148.15 10.4389H147.414V14.1353H146.506V9.72744ZM148.97 14.1353L147.965 12.1705L148.925 12.1645L149.942 14.0929V14.1353H148.97ZM153.6 9.72744V14.1353H152.695V9.72744H153.6ZM154.956 9.72744V10.4389H151.36V9.72744H154.956ZM160.394 9.72744V14.1353H159.486L157.715 11.1806V14.1353H156.807V9.72744H157.715L159.489 12.6852V9.72744H160.394ZM165.475 13.4269V14.1353H163.129V13.4269H165.475ZM163.426 9.72744V14.1353H162.518V9.72744H163.426ZM165.17 11.5227V12.2129H163.129V11.5227H165.17ZM165.472 9.72744V10.4389H163.129V9.72744H165.472ZM167.338 9.72744H168.982C169.319 9.72744 169.609 9.7779 169.851 9.87881C170.095 9.97972 170.283 10.1291 170.414 10.3269C170.545 10.5246 170.611 10.7678 170.611 11.0564C170.611 11.2926 170.57 11.4954 170.49 11.6649C170.411 11.8325 170.299 11.9727 170.154 12.0857C170.01 12.1967 169.842 12.2855 169.648 12.3521L169.36 12.5035H167.931L167.925 11.7951H168.988C169.147 11.7951 169.28 11.7669 169.385 11.7104C169.49 11.6538 169.568 11.5751 169.621 11.4742C169.675 11.3733 169.702 11.2563 169.702 11.123C169.702 10.9818 169.676 10.8597 169.624 10.7567C169.571 10.6538 169.492 10.5751 169.385 10.5206C169.278 10.4661 169.143 10.4389 168.982 10.4389H168.246V14.1353H167.338V9.72744ZM169.802 14.1353L168.797 12.1705L169.757 12.1645L170.774 14.0929V14.1353H169.802ZM174.938 12.9818C174.938 12.9031 174.926 12.8325 174.901 12.7699C174.879 12.7053 174.837 12.6468 174.774 12.5943C174.712 12.5398 174.624 12.4864 174.511 12.4339C174.398 12.3814 174.251 12.3269 174.072 12.2704C173.872 12.2058 173.682 12.1332 173.503 12.0524C173.325 11.9717 173.168 11.8779 173.03 11.7709C172.895 11.6619 172.788 11.5358 172.71 11.3925C172.633 11.2492 172.595 11.0827 172.595 10.893C172.595 10.7093 172.635 10.5428 172.716 10.3935C172.796 10.2421 172.909 10.1129 173.055 10.006C173.2 9.89697 173.372 9.81322 173.569 9.75469C173.769 9.69616 173.988 9.66689 174.226 9.66689C174.551 9.66689 174.835 9.72542 175.077 9.84248C175.319 9.95954 175.507 10.12 175.64 10.3238C175.775 10.5277 175.843 10.7608 175.843 11.0231H174.941C174.941 10.894 174.913 10.781 174.859 10.6841C174.807 10.5852 174.726 10.5075 174.617 10.451C174.51 10.3945 174.375 10.3662 174.211 10.3662C174.054 10.3662 173.923 10.3904 173.818 10.4389C173.713 10.4853 173.634 10.5489 173.581 10.6296C173.529 10.7083 173.503 10.7971 173.503 10.896C173.503 10.9707 173.521 11.0383 173.557 11.0988C173.596 11.1594 173.652 11.2159 173.727 11.2684C173.801 11.3208 173.893 11.3703 174.002 11.4167C174.111 11.4631 174.237 11.5085 174.381 11.5529C174.621 11.6256 174.832 11.7073 175.013 11.7981C175.197 11.889 175.35 11.9909 175.474 12.1039C175.597 12.2169 175.689 12.3451 175.752 12.4884C175.815 12.6317 175.846 12.7941 175.846 12.9758C175.846 13.1675 175.809 13.3391 175.734 13.4904C175.659 13.6418 175.551 13.77 175.41 13.8749C175.269 13.9799 175.1 14.0596 174.904 14.1141C174.709 14.1686 174.49 14.1958 174.247 14.1958C174.029 14.1958 173.815 14.1675 173.603 14.111C173.391 14.0525 173.198 13.9647 173.024 13.8477C172.853 13.7306 172.716 13.5813 172.613 13.3996C172.51 13.218 172.458 13.003 172.458 12.7548H173.37C173.37 12.892 173.391 13.0081 173.433 13.1029C173.475 13.1978 173.535 13.2745 173.612 13.333C173.69 13.3915 173.783 13.4339 173.89 13.4602C173.999 13.4864 174.118 13.4995 174.247 13.4995C174.405 13.4995 174.534 13.4773 174.635 13.4329C174.738 13.3885 174.814 13.327 174.862 13.2482C174.912 13.1695 174.938 13.0807 174.938 12.9818Z" fill="white"/>
<path d="M137.906 18.894L135.937 24.2417H135.437L137.586 18.5542H137.933L137.906 18.894ZM139.695 24.2417L137.722 18.894L137.695 18.5542H138.043L140.195 24.2417H139.695ZM139.343 22.2339V22.6479H136.324V22.2339H139.343ZM141.519 18.5542V24.2417H141.039V18.5542H141.519ZM144.168 21.1714V21.5854H141.359V21.1714H144.168ZM144.562 18.5542V18.9683H141.359V18.5542H144.562ZM146.019 18.5542V24.2417H145.539V18.5542H146.019ZM148.668 21.1714V21.5854H145.859V21.1714H148.668ZM149.062 18.5542V18.9683H145.859V18.5542H149.062ZM150.625 18.5542V24.2417H150.144V18.5542H150.625ZM155.461 23.8315V24.2417H152.511V23.8315H155.461ZM152.652 18.5542V24.2417H152.172V18.5542H152.652ZM156.976 18.5542V24.2417H156.496V18.5542H156.976ZM160.461 18.894L158.492 24.2417H157.992L160.14 18.5542H160.488L160.461 18.894ZM162.25 24.2417L160.277 18.894L160.25 18.5542H160.597L162.75 24.2417H162.25ZM161.898 22.2339V22.6479H158.879V22.2339H161.898ZM164.992 18.5542V24.2417H164.515V18.5542H164.992ZM166.941 18.5542V18.9683H162.57V18.5542H166.941ZM171.402 23.8315V24.2417H168.203V23.8315H171.402ZM168.347 18.5542V24.2417H167.867V18.5542H168.347ZM171.004 21.105V21.5151H168.203V21.105H171.004ZM171.382 18.5542V18.9683H168.203V18.5542H171.382ZM175.64 22.8433C175.64 22.687 175.614 22.5477 175.562 22.4253C175.51 22.3029 175.424 22.1935 175.304 22.0972C175.187 21.9982 175.028 21.9071 174.828 21.8237C174.63 21.7378 174.382 21.6532 174.086 21.5698C173.802 21.4891 173.545 21.4006 173.316 21.3042C173.087 21.2078 172.89 21.0972 172.726 20.9722C172.565 20.8472 172.441 20.7013 172.355 20.5347C172.269 20.3654 172.226 20.1688 172.226 19.9448C172.226 19.7261 172.273 19.5269 172.367 19.3472C172.461 19.1675 172.592 19.0125 172.761 18.8823C172.933 18.7521 173.135 18.6519 173.367 18.5815C173.601 18.5112 173.858 18.4761 174.136 18.4761C174.535 18.4761 174.879 18.5516 175.168 18.7026C175.459 18.8537 175.685 19.0581 175.843 19.3159C176.005 19.5711 176.086 19.8576 176.086 20.1753H175.605C175.605 19.9279 175.547 19.7078 175.429 19.5151C175.315 19.3198 175.148 19.1675 174.929 19.0581C174.713 18.9461 174.449 18.8901 174.136 18.8901C173.824 18.8901 173.561 18.9383 173.347 19.0347C173.136 19.1284 172.976 19.2547 172.867 19.4136C172.76 19.5698 172.707 19.7443 172.707 19.937C172.707 20.0724 172.733 20.1974 172.785 20.312C172.837 20.424 172.922 20.5295 173.039 20.6284C173.158 20.7248 173.316 20.8159 173.511 20.9019C173.707 20.9852 173.948 21.0646 174.234 21.1401C174.536 21.2235 174.804 21.3159 175.039 21.4175C175.273 21.519 175.471 21.6362 175.632 21.769C175.794 21.8993 175.916 22.0516 176 22.2261C176.083 22.4006 176.125 22.6037 176.125 22.8354C176.125 23.0672 176.075 23.2756 175.976 23.4604C175.88 23.6427 175.743 23.7977 175.566 23.9253C175.392 24.0529 175.185 24.1506 174.945 24.2183C174.708 24.286 174.449 24.3198 174.168 24.3198C173.915 24.3198 173.664 24.2873 173.414 24.2222C173.164 24.1571 172.935 24.0568 172.726 23.9214C172.52 23.7834 172.355 23.6063 172.23 23.3901C172.108 23.174 172.047 22.9162 172.047 22.6167H172.523C172.523 22.8563 172.571 23.0581 172.668 23.2222C172.764 23.3862 172.892 23.519 173.05 23.6206C173.212 23.7222 173.389 23.7964 173.582 23.8433C173.777 23.8875 173.972 23.9097 174.168 23.9097C174.467 23.9097 174.726 23.8654 174.945 23.7769C175.166 23.6883 175.337 23.5646 175.457 23.4058C175.579 23.2443 175.64 23.0568 175.64 22.8433Z" fill="white"/>
<path d="M128.718 25C128.572 25 128.352 25 128.058 25C127.765 25 127.457 25 127.134 25C126.826 25 126.555 25 126.32 25C126.1 25 125.99 25 125.99 25L118.466 15.012C118.334 14.8067 118.173 14.55 117.982 14.242C117.806 13.9193 117.652 13.5673 117.52 13.186C117.388 12.79 117.322 12.3793 117.322 11.954C117.322 11.338 117.469 10.7587 117.762 10.216C118.07 9.65867 118.518 9.204 119.104 8.852C119.706 8.48533 120.432 8.302 121.282 8.302C122.192 8.302 122.998 8.48533 123.702 8.852C124.406 9.204 124.978 9.62933 125.418 10.128L124.252 11.69C123.798 11.2647 123.35 10.9273 122.91 10.678C122.485 10.414 122.067 10.282 121.656 10.282C121.04 10.282 120.564 10.4653 120.226 10.832C119.904 11.1987 119.742 11.6387 119.742 12.152C119.742 12.4013 119.794 12.6653 119.896 12.944C120.014 13.208 120.124 13.4427 120.226 13.648C120.344 13.8387 120.417 13.956 120.446 14L128.718 25ZM120.49 17.41C120.094 17.41 119.706 17.4907 119.324 17.652C118.943 17.7987 118.606 18.0113 118.312 18.29C118.019 18.554 117.784 18.862 117.608 19.214C117.447 19.566 117.366 19.9473 117.366 20.358C117.366 20.9153 117.506 21.3993 117.784 21.81C118.078 22.2207 118.466 22.5433 118.95 22.778C119.434 23.0127 119.962 23.13 120.534 23.13C121.077 23.13 121.546 23.0493 121.942 22.888C122.353 22.712 122.698 22.492 122.976 22.228C123.27 21.9493 123.49 21.6413 123.636 21.304L125.132 22.602C124.751 23.3353 124.142 23.9587 123.306 24.472C122.485 24.9707 121.458 25.22 120.226 25.22C119.229 25.22 118.327 25.0147 117.52 24.604C116.728 24.1933 116.098 23.6287 115.628 22.91C115.159 22.1913 114.924 21.3773 114.924 20.468C114.924 19.7787 115.078 19.1407 115.386 18.554C115.709 17.9527 116.134 17.4393 116.662 17.014C117.19 16.574 117.777 16.2293 118.422 15.98C119.082 15.716 119.757 15.5767 120.446 15.562L120.49 17.41ZM125.858 15.562H128.014L125.396 22.228L123.702 21.172L125.858 15.562Z" fill="white"/>
</svg>
